<?xml version="1.0" standalone="no"?>
<!DOCTYPE svg PUBLIC "-//W3C//DTD SVG 1.1//EN" "http://www.w3.org/Graphics/SVG/1.1/DTD/svg11.dtd" >
<svg xmlns="http://www.w3.org/2000/svg" xmlns:xlink="http://www.w3.org/1999/xlink" version="1.1">
<metadata>
Created by FontForge 20170731 at Wed Mar 18 14:18:29 2015
 By Aleksey,,,
Copyright (c) 2015 by Fontfabric LLC. All rights reserved.
</metadata>
<defs>
<font id="MullerExtraBoldDEMO" horiz-adv-x="375" >
  <font-face 
    font-family="Muller ExtraBold DEMO"
    font-weight="800"
    font-stretch="normal"
    units-per-em="1000"
    panose-1="0 0 0 0 0 0 0 0 0 0"
    ascent="780"
    descent="-220"
    x-height="480"
    cap-height="700"
    bbox="-164 -235 1324 978"
    underline-thickness="50"
    underline-position="-225"
    unicode-range="U+0020-25CA"
  />
<missing-glyph horiz-adv-x="208" 
 />
    <glyph glyph-name="f_f" unicode="ff" horiz-adv-x="747" 
d="M755 576q-31 19 -74 19q-32 0 -52.5 -14.5t-20.5 -46.5v-54h128v-140h-128v-340h-170v340h-165v-340h-170v340h-79v140h79v16q0 106 62.5 157.5t157.5 51.5q85 0 158 -31q53 61 157 61q63 0 117 -19v-140zM273 480h165v42v28q-28 20 -74 20q-43 0 -67 -19.5t-24 -55.5
v-15z" />
    <glyph glyph-name="f_f_i" unicode="ffi" horiz-adv-x="991" 
d="M273 0h-170v340h-79v140h79v16q0 106 62.5 157.5t157.5 51.5q85 0 173 -33q64 63 188 63q83 0 178 -29v-139q-70 28 -141 28q-51 0 -82 -20t-31 -61v-34h331v-480h-170v340h-161v-340h-170v340h-165v-340zM273 495v-15h165v35q0 14 2 38q-39 17 -82 17q-40 0 -62.5 -19.5
t-22.5 -55.5z" />
    <glyph glyph-name="f_f_l" unicode="ffl" horiz-adv-x="1001" 
d="M644 725q85 0 160 -31l145 22v-716h-170v567q-44 18 -84 18q-39 0 -63 -18t-24 -56v-31h118v-140h-118v-340h-170v340h-165v-340h-170v340h-79v140h79v16q0 106 62.5 157.5t157.5 51.5q87 0 173 -34q55 54 148 54zM438 480v35q0 14 2 38q-39 17 -82 17q-40 0 -62.5 -19.5
t-22.5 -55.5v-15h165z" />
    <glyph glyph-name=".notdef" horiz-adv-x="208" 
 />
    <glyph glyph-name=".null" horiz-adv-x="0" 
 />
    <glyph glyph-name="nonmarkingreturn" horiz-adv-x="333" 
 />
    <glyph glyph-name="space" unicode=" " horiz-adv-x="208" 
 />
    <glyph glyph-name="exclam" unicode="!" horiz-adv-x="294" 
d="M227 260h-160l-10 440h180zM249 84q0 -49 -29 -74t-73 -25t-73 25t-29 74q0 48 29 73t73 25t73 -25t29 -73z" />
    <glyph glyph-name="quotedbl" unicode="&#x22;" horiz-adv-x="373" 
d="M303 0h-232v700h232v-700zM126 77h121v48q0 30 -18 45.5t-43 14.5q-25 0 -42.5 -15.5t-17.5 -44.5v-48zM148 99v26q-1 34 38 38q16 0 28 -9.5t12 -28.5v-26h-78zM226 310v-67h-28v65h-21v-65h-28v67h-23v-90h121v90h-21zM247 455v22h-121v-26l53 -39l-53 -37v-26h121v22
h-87l53 39v4l-53 41h87zM123 574q0 -26 18.5 -44t46.5 -18q26 0 44.5 16t18.5 46q0 29 -19 45t-45 17q-26 0 -45 -16t-19 -46zM188 534q-19 -1 -31.5 10t-11.5 30q0 20 13 30t30 10q41 -4 41 -40q0 -20 -12 -30t-29 -10z" />
    <glyph glyph-name="numbersign" unicode="#" horiz-adv-x="373" 
d="M303 0h-232v700h232v-700zM126 77h121v48q0 30 -18 45.5t-43 14.5q-25 0 -42.5 -15.5t-17.5 -44.5v-48zM148 99v26q-1 34 38 38q16 0 28 -9.5t12 -28.5v-26h-78zM226 310v-67h-28v65h-21v-65h-28v67h-23v-90h121v90h-21zM247 455v22h-121v-26l53 -39l-53 -37v-26h121v22
h-87l53 39v4l-53 41h87zM123 574q0 -26 18.5 -44t46.5 -18q26 0 44.5 16t18.5 46q0 29 -19 45t-45 17q-26 0 -45 -16t-19 -46zM188 534q-19 -1 -31.5 10t-11.5 30q0 20 13 30t30 10q41 -4 41 -40q0 -20 -12 -30t-29 -10z" />
    <glyph glyph-name="dollar" unicode="$" horiz-adv-x="373" 
d="M303 0h-232v700h232v-700zM126 77h121v48q0 30 -18 45.5t-43 14.5q-25 0 -42.5 -15.5t-17.5 -44.5v-48zM148 99v26q-1 34 38 38q16 0 28 -9.5t12 -28.5v-26h-78zM226 310v-67h-28v65h-21v-65h-28v67h-23v-90h121v90h-21zM247 455v22h-121v-26l53 -39l-53 -37v-26h121v22
h-87l53 39v4l-53 41h87zM123 574q0 -26 18.5 -44t46.5 -18q26 0 44.5 16t18.5 46q0 29 -19 45t-45 17q-26 0 -45 -16t-19 -46zM188 534q-19 -1 -31.5 10t-11.5 30q0 20 13 30t30 10q41 -4 41 -40q0 -20 -12 -30t-29 -10z" />
    <glyph glyph-name="percent" unicode="%" horiz-adv-x="373" 
d="M303 0h-232v700h232v-700zM126 77h121v48q0 30 -18 45.5t-43 14.5q-25 0 -42.5 -15.5t-17.5 -44.5v-48zM148 99v26q-1 34 38 38q16 0 28 -9.5t12 -28.5v-26h-78zM226 310v-67h-28v65h-21v-65h-28v67h-23v-90h121v90h-21zM247 455v22h-121v-26l53 -39l-53 -37v-26h121v22
h-87l53 39v4l-53 41h87zM123 574q0 -26 18.5 -44t46.5 -18q26 0 44.5 16t18.5 46q0 29 -19 45t-45 17q-26 0 -45 -16t-19 -46zM188 534q-19 -1 -31.5 10t-11.5 30q0 20 13 30t30 10q41 -4 41 -40q0 -20 -12 -30t-29 -10z" />
    <glyph glyph-name="ampersand" unicode="&#x26;" horiz-adv-x="373" 
d="M303 0h-232v700h232v-700zM126 77h121v48q0 30 -18 45.5t-43 14.5q-25 0 -42.5 -15.5t-17.5 -44.5v-48zM148 99v26q-1 34 38 38q16 0 28 -9.5t12 -28.5v-26h-78zM226 310v-67h-28v65h-21v-65h-28v67h-23v-90h121v90h-21zM247 455v22h-121v-26l53 -39l-53 -37v-26h121v22
h-87l53 39v4l-53 41h87zM123 574q0 -26 18.5 -44t46.5 -18q26 0 44.5 16t18.5 46q0 29 -19 45t-45 17q-26 0 -45 -16t-19 -46zM188 534q-19 -1 -31.5 10t-11.5 30q0 20 13 30t30 10q41 -4 41 -40q0 -20 -12 -30t-29 -10z" />
    <glyph glyph-name="quotesingle" unicode="'" horiz-adv-x="373" 
d="M303 0h-232v700h232v-700zM126 77h121v48q0 30 -18 45.5t-43 14.5q-25 0 -42.5 -15.5t-17.5 -44.5v-48zM148 99v26q-1 34 38 38q16 0 28 -9.5t12 -28.5v-26h-78zM226 310v-67h-28v65h-21v-65h-28v67h-23v-90h121v90h-21zM247 455v22h-121v-26l53 -39l-53 -37v-26h121v22
h-87l53 39v4l-53 41h87zM123 574q0 -26 18.5 -44t46.5 -18q26 0 44.5 16t18.5 46q0 29 -19 45t-45 17q-26 0 -45 -16t-19 -46zM188 534q-19 -1 -31.5 10t-11.5 30q0 20 13 30t30 10q41 -4 41 -40q0 -20 -12 -30t-29 -10z" />
    <glyph glyph-name="parenleft" unicode="(" horiz-adv-x="333" 
d="M186 811h130q-113 -219 -113 -461t113 -461h-130q-70 97 -111.5 219.5t-41.5 241.5t41.5 241.5t111.5 219.5z" />
    <glyph glyph-name="parenright" unicode=")" horiz-adv-x="332" 
d="M16 811h130q70 -97 111.5 -219.5t41.5 -241.5t-41.5 -241.5t-111.5 -219.5h-130q113 219 113 461t-113 461z" />
    <glyph glyph-name="asterisk" unicode="*" horiz-adv-x="373" 
d="M303 0h-232v700h232v-700zM126 77h121v48q0 30 -18 45.5t-43 14.5q-25 0 -42.5 -15.5t-17.5 -44.5v-48zM148 99v26q-1 34 38 38q16 0 28 -9.5t12 -28.5v-26h-78zM226 310v-67h-28v65h-21v-65h-28v67h-23v-90h121v90h-21zM247 455v22h-121v-26l53 -39l-53 -37v-26h121v22
h-87l53 39v4l-53 41h87zM123 574q0 -26 18.5 -44t46.5 -18q26 0 44.5 16t18.5 46q0 29 -19 45t-45 17q-26 0 -45 -16t-19 -46zM188 534q-19 -1 -31.5 10t-11.5 30q0 20 13 30t30 10q41 -4 41 -40q0 -20 -12 -30t-29 -10z" />
    <glyph glyph-name="plus" unicode="+" horiz-adv-x="373" 
d="M303 0h-232v700h232v-700zM126 77h121v48q0 30 -18 45.5t-43 14.5q-25 0 -42.5 -15.5t-17.5 -44.5v-48zM148 99v26q-1 34 38 38q16 0 28 -9.5t12 -28.5v-26h-78zM226 310v-67h-28v65h-21v-65h-28v67h-23v-90h121v90h-21zM247 455v22h-121v-26l53 -39l-53 -37v-26h121v22
h-87l53 39v4l-53 41h87zM123 574q0 -26 18.5 -44t46.5 -18q26 0 44.5 16t18.5 46q0 29 -19 45t-45 17q-26 0 -45 -16t-19 -46zM188 534q-19 -1 -31.5 10t-11.5 30q0 20 13 30t30 10q41 -4 41 -40q0 -20 -12 -30t-29 -10z" />
    <glyph glyph-name="comma" unicode="," horiz-adv-x="281" 
d="M137 -143h-138l68 290h180z" />
    <glyph glyph-name="hyphen" unicode="-" horiz-adv-x="484" 
d="M52 311h380v-140h-380v140z" />
    <glyph glyph-name="period" unicode="." horiz-adv-x="273" 
d="M238 84q0 -49 -29 -74t-73 -25t-73 25t-29 74q0 48 29 73t73 25t73 -25t29 -73z" />
    <glyph glyph-name="slash" unicode="/" horiz-adv-x="373" 
d="M303 0h-232v700h232v-700zM126 77h121v48q0 30 -18 45.5t-43 14.5q-25 0 -42.5 -15.5t-17.5 -44.5v-48zM148 99v26q-1 34 38 38q16 0 28 -9.5t12 -28.5v-26h-78zM226 310v-67h-28v65h-21v-65h-28v67h-23v-90h121v90h-21zM247 455v22h-121v-26l53 -39l-53 -37v-26h121v22
h-87l53 39v4l-53 41h87zM123 574q0 -26 18.5 -44t46.5 -18q26 0 44.5 16t18.5 46q0 29 -19 45t-45 17q-26 0 -45 -16t-19 -46zM188 534q-19 -1 -31.5 10t-11.5 30q0 20 13 30t30 10q41 -4 41 -40q0 -20 -12 -30t-29 -10z" />
    <glyph glyph-name="zero" unicode="0" horiz-adv-x="708" 
d="M39 340q0 156 78.5 255.5t236.5 99.5t236.5 -99.5t78.5 -255.5t-78.5 -255.5t-236.5 -99.5t-236.5 99.5t-78.5 255.5zM484 340q0 195 -130 195t-130 -195t130 -195t130 195z" />
    <glyph glyph-name="one" unicode="1" horiz-adv-x="478" 
d="M215 680h135v-525h106v-155h-406v155h120v342l-120 -45v165z" />
    <glyph glyph-name="two" unicode="2" horiz-adv-x="608" 
d="M60 620q106 75 243 75q111 0 184 -52t73 -159q0 -41 -15 -77t-44 -65t-56 -49.5t-65 -43.5q-106 -64 -121 -79q-9 -9 -9 -15h315v-155h-527v81q0 45 14 84t30 63.5t51 53t52.5 39.5t59.5 36l15 9q8 5 34.5 19.5t34.5 20t22.5 17.5t19 24t4.5 27q0 30 -24.5 45.5
t-64.5 15.5q-118 0 -226 -85v170z" />
    <glyph glyph-name="three" unicode="3" horiz-adv-x="604" 
d="M538 506q0 -108 -105 -144q60 -19 96.5 -62.5t36.5 -113.5q0 -54 -24 -94t-65.5 -62.5t-90.5 -33.5t-105 -11q-119 0 -235 46v170q101 -58 220 -56q54 1 89 18.5t35 52.5q0 56 -93 56h-116l1 155l94 -1q87 -2 87 51q0 58 -105 58q-102 0 -200 -66v170q98 56 225 56
q114 0 184.5 -47.5t70.5 -141.5z" />
    <glyph glyph-name="four" unicode="4" horiz-adv-x="666" 
d="M362 680h180v-420h90v-150h-90v-110h-175v110h-345v150zM367 260v199l-161 -199h161z" />
    <glyph glyph-name="five" unicode="5" horiz-adv-x="598" 
d="M88 681h445v-155l-279 1l-7 -100q37 6 73 6q111 0 177 -53t66 -163q0 -61 -25.5 -107t-68.5 -72.5t-95.5 -39.5t-111.5 -13q-122 0 -219 46v170q80 -56 199 -56q61 0 98.5 19t37.5 57q0 76 -146 77q-88 0 -168 -28z" />
    <glyph glyph-name="six" unicode="6" horiz-adv-x="661" 
d="M226 412q77 37 162 37q101 0 170.5 -59t69.5 -165q0 -115 -77.5 -177.5t-191.5 -62.5q-168 0 -243.5 92.5t-75.5 268.5q0 90 27 158.5t74 109.5t104.5 61t124.5 20q103 0 200 -43v-160q-76 53 -170 53q-148 0 -174 -133zM224 270q9 -80 39 -110t81 -30q42 0 70.5 22
t28.5 64q0 43 -32 63t-82 20q-52 0 -105 -29z" />
    <glyph glyph-name="seven" unicode="7" horiz-adv-x="582" 
d="M25 681h540v-125l-276 -556h-200l261 526h-325v155z" />
    <glyph glyph-name="eight" unicode="8" horiz-adv-x="664" 
d="M62 500q0 79 68 137t202 58q128 0 199 -58.5t71 -136.5q0 -85 -83 -148q108 -55 108 -162q0 -86 -73 -145.5t-222 -59.5t-222 59.5t-73 145.5q0 51 28.5 95t72.5 70q-76 54 -76 145zM352 266q-17 7 -53 19l-51 17q-29 -42 -27 -89q2 -38 32.5 -63t92.5 -25q42 0 69 17
t27 44q0 29 -22 45.5t-68 34.5zM426 491q-1 28 -27 46t-76 18q-39 0 -62.5 -16.5t-23.5 -39.5q0 -31 25.5 -48.5t79.5 -35.5q7 -2 24.5 -7.5t27.5 -8.5q34 48 32 92z" />
    <glyph glyph-name="nine" unicode="9" horiz-adv-x="661" 
d="M33 455q0 115 77.5 177.5t191.5 62.5q168 0 243.5 -92.5t75.5 -268.5q0 -90 -27 -158.5t-74 -109.5t-104.5 -61t-124.5 -20q-103 0 -200 43v160q76 -53 170 -53q148 0 174 133q-77 -37 -162 -37q-101 0 -170.5 59t-69.5 165zM317 550q-42 0 -70.5 -22t-28.5 -64
q0 -43 32 -63t82 -20q52 0 105 29q-9 80 -39 110t-81 30z" />
    <glyph glyph-name="colon" unicode=":" horiz-adv-x="373" 
d="M303 0h-232v700h232v-700zM126 77h121v48q0 30 -18 45.5t-43 14.5q-25 0 -42.5 -15.5t-17.5 -44.5v-48zM148 99v26q-1 34 38 38q16 0 28 -9.5t12 -28.5v-26h-78zM226 310v-67h-28v65h-21v-65h-28v67h-23v-90h121v90h-21zM247 455v22h-121v-26l53 -39l-53 -37v-26h121v22
h-87l53 39v4l-53 41h87zM123 574q0 -26 18.5 -44t46.5 -18q26 0 44.5 16t18.5 46q0 29 -19 45t-45 17q-26 0 -45 -16t-19 -46zM188 534q-19 -1 -31.5 10t-11.5 30q0 20 13 30t30 10q41 -4 41 -40q0 -20 -12 -30t-29 -10z" />
    <glyph glyph-name="semicolon" unicode=";" horiz-adv-x="373" 
d="M303 0h-232v700h232v-700zM126 77h121v48q0 30 -18 45.5t-43 14.5q-25 0 -42.5 -15.5t-17.5 -44.5v-48zM148 99v26q-1 34 38 38q16 0 28 -9.5t12 -28.5v-26h-78zM226 310v-67h-28v65h-21v-65h-28v67h-23v-90h121v90h-21zM247 455v22h-121v-26l53 -39l-53 -37v-26h121v22
h-87l53 39v4l-53 41h87zM123 574q0 -26 18.5 -44t46.5 -18q26 0 44.5 16t18.5 46q0 29 -19 45t-45 17q-26 0 -45 -16t-19 -46zM188 534q-19 -1 -31.5 10t-11.5 30q0 20 13 30t30 10q41 -4 41 -40q0 -20 -12 -30t-29 -10z" />
    <glyph glyph-name="less" unicode="&#x3c;" horiz-adv-x="373" 
d="M303 0h-232v700h232v-700zM126 77h121v48q0 30 -18 45.5t-43 14.5q-25 0 -42.5 -15.5t-17.5 -44.5v-48zM148 99v26q-1 34 38 38q16 0 28 -9.5t12 -28.5v-26h-78zM226 310v-67h-28v65h-21v-65h-28v67h-23v-90h121v90h-21zM247 455v22h-121v-26l53 -39l-53 -37v-26h121v22
h-87l53 39v4l-53 41h87zM123 574q0 -26 18.5 -44t46.5 -18q26 0 44.5 16t18.5 46q0 29 -19 45t-45 17q-26 0 -45 -16t-19 -46zM188 534q-19 -1 -31.5 10t-11.5 30q0 20 13 30t30 10q41 -4 41 -40q0 -20 -12 -30t-29 -10z" />
    <glyph glyph-name="equal" unicode="=" horiz-adv-x="373" 
d="M303 0h-232v700h232v-700zM126 77h121v48q0 30 -18 45.5t-43 14.5q-25 0 -42.5 -15.5t-17.5 -44.5v-48zM148 99v26q-1 34 38 38q16 0 28 -9.5t12 -28.5v-26h-78zM226 310v-67h-28v65h-21v-65h-28v67h-23v-90h121v90h-21zM247 455v22h-121v-26l53 -39l-53 -37v-26h121v22
h-87l53 39v4l-53 41h87zM123 574q0 -26 18.5 -44t46.5 -18q26 0 44.5 16t18.5 46q0 29 -19 45t-45 17q-26 0 -45 -16t-19 -46zM188 534q-19 -1 -31.5 10t-11.5 30q0 20 13 30t30 10q41 -4 41 -40q0 -20 -12 -30t-29 -10z" />
    <glyph glyph-name="greater" unicode="&#x3e;" horiz-adv-x="373" 
d="M303 0h-232v700h232v-700zM126 77h121v48q0 30 -18 45.5t-43 14.5q-25 0 -42.5 -15.5t-17.5 -44.5v-48zM148 99v26q-1 34 38 38q16 0 28 -9.5t12 -28.5v-26h-78zM226 310v-67h-28v65h-21v-65h-28v67h-23v-90h121v90h-21zM247 455v22h-121v-26l53 -39l-53 -37v-26h121v22
h-87l53 39v4l-53 41h87zM123 574q0 -26 18.5 -44t46.5 -18q26 0 44.5 16t18.5 46q0 29 -19 45t-45 17q-26 0 -45 -16t-19 -46zM188 534q-19 -1 -31.5 10t-11.5 30q0 20 13 30t30 10q41 -4 41 -40q0 -20 -12 -30t-29 -10z" />
    <glyph glyph-name="question" unicode="?" horiz-adv-x="503" 
d="M305 242h-160q0 34 15 67.5t36 58.5t42.5 46.5t36.5 42t15 35.5q0 63 -92 63q-82 0 -163 -47v160q92 47 194 47q106 0 176 -42.5t70 -135.5q0 -38 -17.5 -74.5t-42.5 -65t-50 -54.5t-42.5 -52t-17.5 -49zM328 84q0 -49 -29 -74t-73 -25t-73 25t-29 74q0 48 29 73t73 25
t73 -25t29 -73z" />
    <glyph glyph-name="at" unicode="@" horiz-adv-x="373" 
d="M303 0h-232v700h232v-700zM126 77h121v48q0 30 -18 45.5t-43 14.5q-25 0 -42.5 -15.5t-17.5 -44.5v-48zM148 99v26q-1 34 38 38q16 0 28 -9.5t12 -28.5v-26h-78zM226 310v-67h-28v65h-21v-65h-28v67h-23v-90h121v90h-21zM247 455v22h-121v-26l53 -39l-53 -37v-26h121v22
h-87l53 39v4l-53 41h87zM123 574q0 -26 18.5 -44t46.5 -18q26 0 44.5 16t18.5 46q0 29 -19 45t-45 17q-26 0 -45 -16t-19 -46zM188 534q-19 -1 -31.5 10t-11.5 30q0 20 13 30t30 10q41 -4 41 -40q0 -20 -12 -30t-29 -10z" />
    <glyph glyph-name="A" unicode="A" horiz-adv-x="752" 
d="M191 0h-190l275 700h200l275 -700h-190l-40 110h-290zM358 462l-72 -202h180l-72 202q-12 34 -18 71q-6 -37 -18 -71z" />
    <glyph glyph-name="B" unicode="B" horiz-adv-x="684" 
d="M66 700h316q118 0 181.5 -44t63.5 -133q0 -115 -104 -152q132 -39 132 -173q0 -57 -25 -97.5t-68.5 -61.5t-90 -30t-101.5 -9h-304v700zM469 218q0 73 -93 73h-126v-146h126q93 0 93 73zM442 490q0 30 -20.5 47.5t-56.5 17.5h-114v-129l114 -1q36 0 56.5 17.5t20.5 47.5z
" />
    <glyph glyph-name="C" unicode="C" horiz-adv-x="655" 
d="M32 340q0 95 32 169t87 118t121 66t139 22q110 0 203 -44v-175q-68 57 -171 57q-92 0 -156.5 -53.5t-64.5 -159.5q0 -95 64 -143.5t155 -48.5q115 0 178 61v-180q-93 -44 -204 -44q-75 0 -141.5 21t-121.5 62.5t-87.5 111.5t-32.5 160z" />
    <glyph glyph-name="D" unicode="D" horiz-adv-x="744" 
d="M66 700h279q181 0 273.5 -95t92.5 -255t-92.5 -255t-273.5 -95h-279v700zM521 350q0 190 -176 190h-94v-380h94q176 0 176 190z" />
    <glyph glyph-name="E" unicode="E" horiz-adv-x="617" 
d="M66 700h504v-160h-319v-107h289v-159h-289v-114h325v-160h-510v700z" />
    <glyph glyph-name="F" unicode="F" horiz-adv-x="604" 
d="M66 700h505v-165h-320v-121h291v-165h-291v-249h-185v700z" />
    <glyph glyph-name="G" unicode="G" horiz-adv-x="699" 
d="M32 350q0 94 32.5 166.5t88 114.5t122.5 63t143 21q113 0 217 -44v-175q-81 56 -193 56q-93 0 -156.5 -50.5t-63.5 -151.5q0 -61 20.5 -104.5t54 -64t65.5 -29t67 -8.5q28 0 48 5v236h175v-353q-113 -47 -232 -47q-77 0 -145 22t-123 65t-87.5 114.5t-32.5 163.5z" />
    <glyph glyph-name="H" unicode="H" horiz-adv-x="762" 
d="M511 700h185v-700h-185v267h-260v-267h-185v700h185v-268h260v268z" />
    <glyph glyph-name="I" unicode="I" horiz-adv-x="317" 
d="M66 700h185v-700h-185v700z" />
    <glyph glyph-name="J" unicode="J" horiz-adv-x="518" 
d="M97 700h360v-482q0 -63 -21 -109.5t-58 -72.5t-82.5 -38.5t-99.5 -12.5q-90 0 -181 33v170q61 -33 134 -33q123 0 123 88v292h-175v165z" />
    <glyph glyph-name="K" unicode="K" horiz-adv-x="706" 
d="M251 0h-185v700h185v-265h88l159 265h205l-220 -341l230 -359h-205l-170 270h-87v-270z" />
    <glyph glyph-name="L" unicode="L" horiz-adv-x="584" 
d="M66 700h185v-535h320v-165h-505v700z" />
    <glyph glyph-name="M" unicode="M" horiz-adv-x="908" 
d="M667 700h175v-700h-185v372l-150 -230h-106l-150 231v-373h-185v700h175l213 -328z" />
    <glyph glyph-name="N" unicode="N" horiz-adv-x="762" 
d="M251 0h-185v700h175l274 -402q-4 44 -4 116v286h185v-700h-175l-274 401q4 -44 4 -115v-286z" />
    <glyph glyph-name="O" unicode="O" horiz-adv-x="812" 
d="M31 350q0 155 98 260t277 105t277 -105t98 -260t-98 -260t-277 -105t-277 105t-98 260zM591 350q0 87 -48.5 141t-136.5 54t-136.5 -54t-48.5 -141t48.5 -141t136.5 -54t136.5 54t48.5 141z" />
    <glyph glyph-name="P" unicode="P" horiz-adv-x="668" 
d="M66 700h277q305 0 305 -240q0 -238 -305 -240h-92v-220h-185v700zM458 460q0 80 -106 80h-101v-160h101q106 0 106 80z" />
    <glyph glyph-name="Q" unicode="Q" horiz-adv-x="812" 
d="M781 54l-126 -111l-76 76q-74 -34 -173 -34q-179 0 -277 105t-98 260t98 260t277 105t277 -105t98 -260q0 -132 -70 -226zM221 350q0 -87 48.5 -141t136.5 -54q13 0 35 2l-63 63l119 118l78 -78q16 43 16 90q0 87 -48.5 142t-136.5 55t-136.5 -55t-48.5 -142z" />
    <glyph glyph-name="R" unicode="R" horiz-adv-x="711" 
d="M251 0h-185v700h295q57 0 105.5 -11.5t91 -37t66.5 -73.5t24 -114q0 -156 -134 -210l193 -254h-209l-167 228h-80v-228zM251 540v-162h118q41 0 65 21t24 60t-24 60t-65 21h-118z" />
    <glyph glyph-name="S" unicode="S" horiz-adv-x="621" 
d="M41 509q0 100 74.5 153t189.5 53q137 0 235 -56v-170q-90 68 -220 66q-89 -1 -89 -45q0 -21 27 -37.5t67.5 -28t87.5 -31t87.5 -43.5t67.5 -68.5t27 -102.5q0 -214 -280 -214q-153 0 -269 64v175q115 -79 255 -79q56 0 80 10.5t24 36.5q0 27 -37.5 47t-91 37.5t-107 41.5
t-91 73t-37.5 118z" />
    <glyph glyph-name="T" unicode="T" horiz-adv-x="606" 
d="M13 700h580v-165h-197v-535h-185v535h-198v165z" />
    <glyph glyph-name="U" unicode="U" horiz-adv-x="748" 
d="M504 700h185v-433q0 -76 -27 -132.5t-73 -88t-100 -46.5t-115 -15t-115 15t-100 46.5t-73 88t-27 132.5v433h185v-423q0 -127 130 -127t130 127v423z" />
    <glyph glyph-name="V" unicode="V" horiz-adv-x="722" 
d="M456 0h-190l-263 700h200l158 -480l158 480h200z" />
    <glyph glyph-name="W" unicode="W" horiz-adv-x="1078" 
d="M872 700h200l-214 -700h-200l-119 433l-119 -433h-200l-214 700h200l119 -492l133 492h162l133 -492z" />
    <glyph glyph-name="X" unicode="X" horiz-adv-x="694" 
d="M205 0h-216l240 364l-225 336h216l127 -206l127 206h216l-225 -336l240 -364h-216l-142 235z" />
    <glyph glyph-name="Y" unicode="Y" horiz-adv-x="728" 
d="M456 0h-184v239l-273 461h210l155 -289l155 289h210l-273 -461v-239z" />
    <glyph glyph-name="Z" unicode="Z" horiz-adv-x="627" 
d="M593 0h-563v125l304 410h-286v165h536v-125l-305 -410h314v-165z" />
    <glyph glyph-name="bracketleft" unicode="[" horiz-adv-x="373" 
d="M303 0h-232v700h232v-700zM126 77h121v48q0 30 -18 45.5t-43 14.5q-25 0 -42.5 -15.5t-17.5 -44.5v-48zM148 99v26q-1 34 38 38q16 0 28 -9.5t12 -28.5v-26h-78zM226 310v-67h-28v65h-21v-65h-28v67h-23v-90h121v90h-21zM247 455v22h-121v-26l53 -39l-53 -37v-26h121v22
h-87l53 39v4l-53 41h87zM123 574q0 -26 18.5 -44t46.5 -18q26 0 44.5 16t18.5 46q0 29 -19 45t-45 17q-26 0 -45 -16t-19 -46zM188 534q-19 -1 -31.5 10t-11.5 30q0 20 13 30t30 10q41 -4 41 -40q0 -20 -12 -30t-29 -10z" />
    <glyph glyph-name="backslash" unicode="\" horiz-adv-x="373" 
d="M303 0h-232v700h232v-700zM126 77h121v48q0 30 -18 45.5t-43 14.5q-25 0 -42.5 -15.5t-17.5 -44.5v-48zM148 99v26q-1 34 38 38q16 0 28 -9.5t12 -28.5v-26h-78zM226 310v-67h-28v65h-21v-65h-28v67h-23v-90h121v90h-21zM247 455v22h-121v-26l53 -39l-53 -37v-26h121v22
h-87l53 39v4l-53 41h87zM123 574q0 -26 18.5 -44t46.5 -18q26 0 44.5 16t18.5 46q0 29 -19 45t-45 17q-26 0 -45 -16t-19 -46zM188 534q-19 -1 -31.5 10t-11.5 30q0 20 13 30t30 10q41 -4 41 -40q0 -20 -12 -30t-29 -10z" />
    <glyph glyph-name="bracketright" unicode="]" horiz-adv-x="373" 
d="M303 0h-232v700h232v-700zM126 77h121v48q0 30 -18 45.5t-43 14.5q-25 0 -42.5 -15.5t-17.5 -44.5v-48zM148 99v26q-1 34 38 38q16 0 28 -9.5t12 -28.5v-26h-78zM226 310v-67h-28v65h-21v-65h-28v67h-23v-90h121v90h-21zM247 455v22h-121v-26l53 -39l-53 -37v-26h121v22
h-87l53 39v4l-53 41h87zM123 574q0 -26 18.5 -44t46.5 -18q26 0 44.5 16t18.5 46q0 29 -19 45t-45 17q-26 0 -45 -16t-19 -46zM188 534q-19 -1 -31.5 10t-11.5 30q0 20 13 30t30 10q41 -4 41 -40q0 -20 -12 -30t-29 -10z" />
    <glyph glyph-name="asciicircum" unicode="^" horiz-adv-x="373" 
d="M303 0h-232v700h232v-700zM126 77h121v48q0 30 -18 45.5t-43 14.5q-25 0 -42.5 -15.5t-17.5 -44.5v-48zM148 99v26q-1 34 38 38q16 0 28 -9.5t12 -28.5v-26h-78zM226 310v-67h-28v65h-21v-65h-28v67h-23v-90h121v90h-21zM247 455v22h-121v-26l53 -39l-53 -37v-26h121v22
h-87l53 39v4l-53 41h87zM123 574q0 -26 18.5 -44t46.5 -18q26 0 44.5 16t18.5 46q0 29 -19 45t-45 17q-26 0 -45 -16t-19 -46zM188 534q-19 -1 -31.5 10t-11.5 30q0 20 13 30t30 10q41 -4 41 -40q0 -20 -12 -30t-29 -10z" />
    <glyph glyph-name="underscore" unicode="_" horiz-adv-x="373" 
d="M303 0h-232v700h232v-700zM126 77h121v48q0 30 -18 45.5t-43 14.5q-25 0 -42.5 -15.5t-17.5 -44.5v-48zM148 99v26q-1 34 38 38q16 0 28 -9.5t12 -28.5v-26h-78zM226 310v-67h-28v65h-21v-65h-28v67h-23v-90h121v90h-21zM247 455v22h-121v-26l53 -39l-53 -37v-26h121v22
h-87l53 39v4l-53 41h87zM123 574q0 -26 18.5 -44t46.5 -18q26 0 44.5 16t18.5 46q0 29 -19 45t-45 17q-26 0 -45 -16t-19 -46zM188 534q-19 -1 -31.5 10t-11.5 30q0 20 13 30t30 10q41 -4 41 -40q0 -20 -12 -30t-29 -10z" />
    <glyph glyph-name="grave" unicode="`" horiz-adv-x="290" 
d="M-106 749v165h500v-165h-500zM-49 875v-88h31q47 0 47 44q0 19 -12.5 31.5t-34.5 12.5h-31zM-34 802v57h16q31 0 31 -28q0 -29 -31 -29h-16zM116 802h-46v21h46v16h-46v20h46v16h-62v-88h62v15zM219 787h16v88h-21l-26 -36l-26 36h-21v-88h17v66l30 -39l31 40v-67z
M305 880q-19 0 -32 -13.5t-13 -33.5t11.5 -33.5t33.5 -13.5q23 0 35 13.5t12 33.5q0 21 -13.5 34t-33.5 13zM275 833q0 13 8 22.5t22 9.5q15 0 23 -9.5t8 -22.5q0 -32 -31 -32q-14 0 -22 10t-8 22z" />
    <glyph glyph-name="a" unicode="a" horiz-adv-x="567" 
d="M505 137q0 -30 33 -30q10 0 19 3v-105q-38 -15 -86 -15q-80 0 -114 53q-74 -58 -167 -58q-71 0 -119 40t-48 108q0 43 19 75.5t50.5 49.5t66 25t72.5 8q54 0 104 -11v17q0 27 -25.5 43.5t-74.5 16.5q-76 0 -168 -37v143q98 32 187 32q123 0 187 -51t64 -173v-134z
M198 147q0 -20 16 -33.5t42 -13.5q45 0 79 25v65q-27 9 -61 9q-76 0 -76 -52z" />
    <glyph glyph-name="b" unicode="b" horiz-adv-x="624" 
d="M51 700h170v-259q52 54 143 54q58 0 104 -22t73 -59t41 -81.5t14 -92.5t-14 -92.5t-41 -81.5t-73 -59t-104 -22q-60 0 -101.5 23t-61.5 57v-65h-150v700zM421 240q0 47 -26.5 81t-76.5 34q-33 0 -59 -17.5t-38 -42.5v-110q12 -25 38 -42.5t59 -17.5q50 0 76.5 34t26.5 81
z" />
    <glyph glyph-name="c" unicode="c" horiz-adv-x="490" 
d="M27 230q0 132 81.5 199t195.5 67q79 0 148 -33v-145q-57 33 -122 33q-56 0 -92 -27t-36 -84q0 -54 36 -82t89 -28q74 0 130 32v-145q-77 -32 -165 -32q-110 0 -187.5 62.5t-77.5 182.5z" />
    <glyph glyph-name="d" unicode="d" horiz-adv-x="623" 
d="M402 700h170v-700h-150v65q-20 -34 -61.5 -57t-101.5 -23q-58 0 -104 22t-73 59t-41 81.5t-14 92.5t14 92.5t41 81.5t73 59t104 22q91 0 143 -54v259zM402 295q-12 25 -38 42.5t-59 17.5q-50 0 -76.5 -34t-26.5 -81t26.5 -81t76.5 -34q33 0 59 17.5t38 42.5v110z" />
    <glyph glyph-name="e" unicode="e" horiz-adv-x="548" 
d="M27 240q0 67 24 118.5t63 80t81 42.5t84 14q60 0 107 -18t74.5 -48t44.5 -69.5t16.5 -83t-8.5 -87.5h-314q27 -74 153 -74q77 0 138 23v-126q-76 -27 -178 -27q-123 0 -204 67.5t-81 187.5zM358 291q5 24 -12.5 52.5t-62.5 28.5q-36 0 -61 -22t-25 -59h161z" />
    <glyph glyph-name="f" unicode="f" horiz-adv-x="412" 
d="M273 0h-170v340h-79v140h79v41q0 54 17.5 93.5t47 60.5t63 30.5t72.5 9.5q63 0 117 -19v-140q-31 19 -74 19q-32 0 -52.5 -14.5t-20.5 -46.5v-34h128v-140h-128v-340z" />
    <glyph glyph-name="g" unicode="g" horiz-adv-x="623" 
d="M27 240q0 48 14 92.5t41 81.5t73 59t104 22q60 0 101.5 -23t61.5 -57v65h150v-460q0 -69 -23.5 -120.5t-64.5 -79.5t-90 -41.5t-106 -13.5q-114 0 -207 45v145q81 -50 184 -50q137 0 137 105v29q-52 -54 -143 -54q-58 0 -104 22t-73 59t-41 81.5t-14 92.5zM402 295
q-12 25 -38 42.5t-59 17.5q-50 0 -76.5 -34t-26.5 -81t26.5 -81t76.5 -34q33 0 59 17.5t38 42.5v110z" />
    <glyph glyph-name="h" unicode="h" horiz-adv-x="592" 
d="M51 700h170v-256q57 51 133 51q94 0 143 -55.5t49 -141.5v-298h-170v275q0 37 -20 56t-53 19q-49 0 -82 -42v-308h-170v700z" />
    <glyph glyph-name="i" unicode="i" horiz-adv-x="274" 
d="M222 0h-170v480h170v-480zM234 642q0 -47 -27.5 -70.5t-69.5 -23.5t-69.5 23.5t-27.5 70.5q0 46 28 69.5t69 23.5q42 0 69.5 -23.5t27.5 -69.5z" />
    <glyph glyph-name="j" unicode="j" horiz-adv-x="274" 
d="M222 -57q0 -92 -51.5 -135t-133.5 -43q-57 0 -92 15v142q24 -8 49 -8q26 0 42 15.5t16 45.5v505h170v-537zM234 642q0 -47 -27.5 -70.5t-69.5 -23.5t-69.5 23.5t-27.5 70.5q0 46 28 69.5t69 23.5q42 0 69.5 -23.5t27.5 -69.5z" />
    <glyph glyph-name="k" unicode="k" horiz-adv-x="561" 
d="M564 0h-189l-118 182h-36v-182h-170v700h170v-388h38l105 168h190l-156 -236z" />
    <glyph glyph-name="l" unicode="l" horiz-adv-x="274" 
d="M52 730h170v-730h-170v730z" />
    <glyph glyph-name="m" unicode="m" horiz-adv-x="867" 
d="M221 0h-170v480h150v-51q22 26 61.5 46t86.5 20q96 0 142 -66q71 66 153 66q51 0 88 -18.5t55 -49t26 -60t8 -59.5v-308h-170v293q0 27 -15.5 42t-39.5 15q-39 0 -70 -31v-11v-308h-170v293q0 27 -15.5 42t-39.5 15q-47 0 -80 -42v-308z" />
    <glyph glyph-name="n" unicode="n" horiz-adv-x="592" 
d="M201 425q65 70 153 70q94 0 143 -55.5t49 -141.5v-298h-170v275q0 37 -20 56t-53 19q-49 0 -82 -42v-308h-170v480h150v-55z" />
    <glyph glyph-name="o" unicode="o" horiz-adv-x="594" 
d="M27 240q0 122 77.5 188.5t192.5 66.5t192.5 -66.5t77.5 -188.5t-77.5 -188.5t-192.5 -66.5t-192.5 66.5t-77.5 188.5zM392 240q0 45 -23 75t-72 30t-72 -30t-23 -75t23 -75t72 -30t72 30t23 75z" />
    <glyph glyph-name="p" unicode="p" horiz-adv-x="624" 
d="M201 415q20 34 61.5 57t101.5 23q58 0 104 -22t73 -59t41 -81.5t14 -92.5t-14 -92.5t-41 -81.5t-73 -59t-104 -22q-91 0 -143 54v-259h-170v700h150v-65zM421 240q0 47 -26.5 81t-76.5 34q-33 0 -59 -17.5t-38 -42.5v-110q12 -25 38 -42.5t59 -17.5q50 0 76.5 34t26.5 81
z" />
    <glyph glyph-name="q" unicode="q" horiz-adv-x="623" 
d="M27 240q0 48 14 92.5t41 81.5t73 59t104 22q60 0 101.5 -23t61.5 -57v65h150v-700h-170v259q-52 -54 -143 -54q-58 0 -104 22t-73 59t-41 81.5t-14 92.5zM402 295q-12 25 -38 42.5t-59 17.5q-50 0 -76.5 -34t-26.5 -81t26.5 -81t76.5 -34q33 0 59 17.5t38 42.5v110z" />
    <glyph glyph-name="r" unicode="r" horiz-adv-x="404" 
d="M201 415q61 89 188 75v-165q-51 11 -98.5 -3.5t-69.5 -48.5v-273h-170v480h150v-65z" />
    <glyph glyph-name="s" unicode="s" horiz-adv-x="486" 
d="M34 342q0 81 59 117t150 36q94 0 181 -41v-135q-32 22 -79.5 36.5t-89.5 14.5q-46 0 -46 -24q0 -18 26 -29.5t63 -21.5t74 -24.5t63 -47.5t26 -83q0 -155 -229 -155q-116 0 -193 44v135q77 -51 184 -51q63 0 63 24q0 17 -26 28.5t-63 21.5t-74 25.5t-63 48.5t-26 81z" />
    <glyph glyph-name="t" unicode="t" horiz-adv-x="422" 
d="M89 615l170 40v-175h130v-140h-130v-156q0 -59 63 -59q42 0 77 12v-132q-58 -20 -130 -20q-79 0 -129.5 38.5t-50.5 126.5v190h-76v140h76v135z" />
    <glyph glyph-name="u" unicode="u" horiz-adv-x="592" 
d="M371 480h170v-480h-150v55q-65 -70 -153 -70q-94 0 -143 55.5t-49 141.5v298h170v-275q0 -37 20 -56t53 -19q49 0 82 42v308z" />
    <glyph glyph-name="v" unicode="v" horiz-adv-x="572" 
d="M386 480h180l-190 -480h-180l-190 480h180l100 -303z" />
    <glyph glyph-name="w" unicode="w" horiz-adv-x="828" 
d="M637 480h182l-149 -480h-180l-76 281l-76 -281h-180l-149 480h182l68 -295l73 295h164l73 -295z" />
    <glyph glyph-name="x" unicode="x" horiz-adv-x="552" 
d="M355 480h192l-172 -241l181 -239h-192l-88 124l-88 -124h-192l181 239l-172 241h192l79 -126z" />
    <glyph glyph-name="y" unicode="y" horiz-adv-x="577" 
d="M297 194l98 286h175l-201 -530q-70 -183 -220 -183q-36 0 -88 13v140q34 -8 65 -8q66 0 100 76l-226 492h180z" />
    <glyph glyph-name="z" unicode="z" horiz-adv-x="492" 
d="M43 480h405v-100l-194 -240h208v-140h-433v100l195 240h-181v140z" />
    <glyph glyph-name="braceleft" unicode="{" horiz-adv-x="373" 
d="M303 0h-232v700h232v-700zM126 77h121v48q0 30 -18 45.5t-43 14.5q-25 0 -42.5 -15.5t-17.5 -44.5v-48zM148 99v26q-1 34 38 38q16 0 28 -9.5t12 -28.5v-26h-78zM226 310v-67h-28v65h-21v-65h-28v67h-23v-90h121v90h-21zM247 455v22h-121v-26l53 -39l-53 -37v-26h121v22
h-87l53 39v4l-53 41h87zM123 574q0 -26 18.5 -44t46.5 -18q26 0 44.5 16t18.5 46q0 29 -19 45t-45 17q-26 0 -45 -16t-19 -46zM188 534q-19 -1 -31.5 10t-11.5 30q0 20 13 30t30 10q41 -4 41 -40q0 -20 -12 -30t-29 -10z" />
    <glyph glyph-name="bar" unicode="|" horiz-adv-x="373" 
d="M303 0h-232v700h232v-700zM126 77h121v48q0 30 -18 45.5t-43 14.5q-25 0 -42.5 -15.5t-17.5 -44.5v-48zM148 99v26q-1 34 38 38q16 0 28 -9.5t12 -28.5v-26h-78zM226 310v-67h-28v65h-21v-65h-28v67h-23v-90h121v90h-21zM247 455v22h-121v-26l53 -39l-53 -37v-26h121v22
h-87l53 39v4l-53 41h87zM123 574q0 -26 18.5 -44t46.5 -18q26 0 44.5 16t18.5 46q0 29 -19 45t-45 17q-26 0 -45 -16t-19 -46zM188 534q-19 -1 -31.5 10t-11.5 30q0 20 13 30t30 10q41 -4 41 -40q0 -20 -12 -30t-29 -10z" />
    <glyph glyph-name="braceright" unicode="}" horiz-adv-x="373" 
d="M303 0h-232v700h232v-700zM126 77h121v48q0 30 -18 45.5t-43 14.5q-25 0 -42.5 -15.5t-17.5 -44.5v-48zM148 99v26q-1 34 38 38q16 0 28 -9.5t12 -28.5v-26h-78zM226 310v-67h-28v65h-21v-65h-28v67h-23v-90h121v90h-21zM247 455v22h-121v-26l53 -39l-53 -37v-26h121v22
h-87l53 39v4l-53 41h87zM123 574q0 -26 18.5 -44t46.5 -18q26 0 44.5 16t18.5 46q0 29 -19 45t-45 17q-26 0 -45 -16t-19 -46zM188 534q-19 -1 -31.5 10t-11.5 30q0 20 13 30t30 10q41 -4 41 -40q0 -20 -12 -30t-29 -10z" />
    <glyph glyph-name="asciitilde" unicode="~" horiz-adv-x="373" 
d="M303 0h-232v700h232v-700zM126 77h121v48q0 30 -18 45.5t-43 14.5q-25 0 -42.5 -15.5t-17.5 -44.5v-48zM148 99v26q-1 34 38 38q16 0 28 -9.5t12 -28.5v-26h-78zM226 310v-67h-28v65h-21v-65h-28v67h-23v-90h121v90h-21zM247 455v22h-121v-26l53 -39l-53 -37v-26h121v22
h-87l53 39v4l-53 41h87zM123 574q0 -26 18.5 -44t46.5 -18q26 0 44.5 16t18.5 46q0 29 -19 45t-45 17q-26 0 -45 -16t-19 -46zM188 534q-19 -1 -31.5 10t-11.5 30q0 20 13 30t30 10q41 -4 41 -40q0 -20 -12 -30t-29 -10z" />
    <glyph glyph-name="exclamdown" unicode="&#xa1;" horiz-adv-x="373" 
d="M303 0h-232v700h232v-700zM126 77h121v48q0 30 -18 45.5t-43 14.5q-25 0 -42.5 -15.5t-17.5 -44.5v-48zM148 99v26q-1 34 38 38q16 0 28 -9.5t12 -28.5v-26h-78zM226 310v-67h-28v65h-21v-65h-28v67h-23v-90h121v90h-21zM247 455v22h-121v-26l53 -39l-53 -37v-26h121v22
h-87l53 39v4l-53 41h87zM123 574q0 -26 18.5 -44t46.5 -18q26 0 44.5 16t18.5 46q0 29 -19 45t-45 17q-26 0 -45 -16t-19 -46zM188 534q-19 -1 -31.5 10t-11.5 30q0 20 13 30t30 10q41 -4 41 -40q0 -20 -12 -30t-29 -10z" />
    <glyph glyph-name="cent" unicode="&#xa2;" horiz-adv-x="373" 
d="M303 0h-232v700h232v-700zM126 77h121v48q0 30 -18 45.5t-43 14.5q-25 0 -42.5 -15.5t-17.5 -44.5v-48zM148 99v26q-1 34 38 38q16 0 28 -9.5t12 -28.5v-26h-78zM226 310v-67h-28v65h-21v-65h-28v67h-23v-90h121v90h-21zM247 455v22h-121v-26l53 -39l-53 -37v-26h121v22
h-87l53 39v4l-53 41h87zM123 574q0 -26 18.5 -44t46.5 -18q26 0 44.5 16t18.5 46q0 29 -19 45t-45 17q-26 0 -45 -16t-19 -46zM188 534q-19 -1 -31.5 10t-11.5 30q0 20 13 30t30 10q41 -4 41 -40q0 -20 -12 -30t-29 -10z" />
    <glyph glyph-name="sterling" unicode="&#xa3;" horiz-adv-x="373" 
d="M303 0h-232v700h232v-700zM126 77h121v48q0 30 -18 45.5t-43 14.5q-25 0 -42.5 -15.5t-17.5 -44.5v-48zM148 99v26q-1 34 38 38q16 0 28 -9.5t12 -28.5v-26h-78zM226 310v-67h-28v65h-21v-65h-28v67h-23v-90h121v90h-21zM247 455v22h-121v-26l53 -39l-53 -37v-26h121v22
h-87l53 39v4l-53 41h87zM123 574q0 -26 18.5 -44t46.5 -18q26 0 44.5 16t18.5 46q0 29 -19 45t-45 17q-26 0 -45 -16t-19 -46zM188 534q-19 -1 -31.5 10t-11.5 30q0 20 13 30t30 10q41 -4 41 -40q0 -20 -12 -30t-29 -10z" />
    <glyph glyph-name="currency" unicode="&#xa4;" horiz-adv-x="371" 
d="M303 0h-232v700h232v-700zM126 77h121v48q0 30 -18 45.5t-43 14.5q-25 0 -42.5 -15.5t-17.5 -44.5v-48zM148 99v26q-1 34 38 38q16 0 28 -9.5t12 -28.5v-26h-78zM226 310v-67h-28v65h-21v-65h-28v67h-23v-90h121v90h-21zM247 455v22h-121v-26l53 -39l-53 -37v-26h121v22
h-87l53 39v4l-53 41h87zM123 574q0 -26 18.5 -44t46.5 -18q26 0 44.5 16t18.5 46q0 29 -19 45t-45 17q-26 0 -45 -16t-19 -46zM188 534q-19 -1 -31.5 10t-11.5 30q0 20 13 30t30 10q41 -4 41 -40q0 -20 -12 -30t-29 -10z" />
    <glyph glyph-name="yen" unicode="&#xa5;" 
d="M303 0h-232v700h232v-700zM126 77h121v48q0 30 -18 45.5t-43 14.5q-25 0 -42.5 -15.5t-17.5 -44.5v-48zM148 99v26q-1 34 38 38q16 0 28 -9.5t12 -28.5v-26h-78zM226 310v-67h-28v65h-21v-65h-28v67h-23v-90h121v90h-21zM247 455v22h-121v-26l53 -39l-53 -37v-26h121v22
h-87l53 39v4l-53 41h87zM123 574q0 -26 18.5 -44t46.5 -18q26 0 44.5 16t18.5 46q0 29 -19 45t-45 17q-26 0 -45 -16t-19 -46zM188 534q-19 -1 -31.5 10t-11.5 30q0 20 13 30t30 10q41 -4 41 -40q0 -20 -12 -30t-29 -10z" />
    <glyph glyph-name="brokenbar" unicode="&#xa6;" horiz-adv-x="373" 
d="M303 0h-232v700h232v-700zM126 77h121v48q0 30 -18 45.5t-43 14.5q-25 0 -42.5 -15.5t-17.5 -44.5v-48zM148 99v26q-1 34 38 38q16 0 28 -9.5t12 -28.5v-26h-78zM226 310v-67h-28v65h-21v-65h-28v67h-23v-90h121v90h-21zM247 455v22h-121v-26l53 -39l-53 -37v-26h121v22
h-87l53 39v4l-53 41h87zM123 574q0 -26 18.5 -44t46.5 -18q26 0 44.5 16t18.5 46q0 29 -19 45t-45 17q-26 0 -45 -16t-19 -46zM188 534q-19 -1 -31.5 10t-11.5 30q0 20 13 30t30 10q41 -4 41 -40q0 -20 -12 -30t-29 -10z" />
    <glyph glyph-name="section" unicode="&#xa7;" 
d="M303 0h-232v700h232v-700zM126 77h121v48q0 30 -18 45.5t-43 14.5q-25 0 -42.5 -15.5t-17.5 -44.5v-48zM148 99v26q-1 34 38 38q16 0 28 -9.5t12 -28.5v-26h-78zM226 310v-67h-28v65h-21v-65h-28v67h-23v-90h121v90h-21zM247 455v22h-121v-26l53 -39l-53 -37v-26h121v22
h-87l53 39v4l-53 41h87zM123 574q0 -26 18.5 -44t46.5 -18q26 0 44.5 16t18.5 46q0 29 -19 45t-45 17q-26 0 -45 -16t-19 -46zM188 534q-19 -1 -31.5 10t-11.5 30q0 20 13 30t30 10q41 -4 41 -40q0 -20 -12 -30t-29 -10z" />
    <glyph glyph-name="dieresis" unicode="&#xa8;" horiz-adv-x="370" 
d="M-61 914h500v-165h-500v165zM-4 875v-88h31q47 0 47 44q0 19 -12.5 31.5t-34.5 12.5h-31zM11 859h16q31 0 31 -28q0 -29 -31 -29h-16v57zM161 802h-46v21h46v16h-46v20h46v16h-62v-88h62v15zM264 787h16v88h-21l-26 -36l-26 36h-21v-88h17v66l30 -39l31 40v-67zM350 880
q-19 0 -32 -13.5t-13 -33.5t11.5 -33.5t33.5 -13.5q23 0 35 13.5t12 33.5q0 21 -13.5 34t-33.5 13zM320 833q0 13 8 22.5t22 9.5q15 0 23 -9.5t8 -22.5q0 -32 -31 -32q-14 0 -22 10t-8 22z" />
    <glyph glyph-name="copyright" unicode="&#xa9;" 
d="M303 0h-232v700h232v-700zM126 77h121v48q0 30 -18 45.5t-43 14.5q-25 0 -42.5 -15.5t-17.5 -44.5v-48zM148 99v26q-1 34 38 38q16 0 28 -9.5t12 -28.5v-26h-78zM226 310v-67h-28v65h-21v-65h-28v67h-23v-90h121v90h-21zM247 455v22h-121v-26l53 -39l-53 -37v-26h121v22
h-87l53 39v4l-53 41h87zM123 574q0 -26 18.5 -44t46.5 -18q26 0 44.5 16t18.5 46q0 29 -19 45t-45 17q-26 0 -45 -16t-19 -46zM188 534q-19 -1 -31.5 10t-11.5 30q0 20 13 30t30 10q41 -4 41 -40q0 -20 -12 -30t-29 -10z" />
    <glyph glyph-name="guillemotleft" unicode="&#xab;" horiz-adv-x="373" 
d="M303 0h-232v700h232v-700zM126 77h121v48q0 30 -18 45.5t-43 14.5q-25 0 -42.5 -15.5t-17.5 -44.5v-48zM148 99v26q-1 34 38 38q16 0 28 -9.5t12 -28.5v-26h-78zM226 310v-67h-28v65h-21v-65h-28v67h-23v-90h121v90h-21zM247 455v22h-121v-26l53 -39l-53 -37v-26h121v22
h-87l53 39v4l-53 41h87zM123 574q0 -26 18.5 -44t46.5 -18q26 0 44.5 16t18.5 46q0 29 -19 45t-45 17q-26 0 -45 -16t-19 -46zM188 534q-19 -1 -31.5 10t-11.5 30q0 20 13 30t30 10q41 -4 41 -40q0 -20 -12 -30t-29 -10z" />
    <glyph glyph-name="logicalnot" unicode="&#xac;" horiz-adv-x="377" 
d="M303 0h-232v700h232v-700zM126 77h121v48q0 30 -18 45.5t-43 14.5q-25 0 -42.5 -15.5t-17.5 -44.5v-48zM148 99v26q-1 34 38 38q16 0 28 -9.5t12 -28.5v-26h-78zM226 310v-67h-28v65h-21v-65h-28v67h-23v-90h121v90h-21zM247 455v22h-121v-26l53 -39l-53 -37v-26h121v22
h-87l53 39v4l-53 41h87zM123 574q0 -26 18.5 -44t46.5 -18q26 0 44.5 16t18.5 46q0 29 -19 45t-45 17q-26 0 -45 -16t-19 -46zM188 534q-19 -1 -31.5 10t-11.5 30q0 20 13 30t30 10q41 -4 41 -40q0 -20 -12 -30t-29 -10z" />
    <glyph glyph-name="registered" unicode="&#xae;" horiz-adv-x="373" 
d="M71 0v700h232v-700h-232zM126 77h121v48q0 30 -18 45.5t-43 14.5q-25 0 -42.5 -15.5t-17.5 -44.5v-48zM148 99v26q-1 34 38 38q16 0 28 -9.5t12 -28.5v-26h-78zM226 310v-67h-28v65h-21v-65h-28v67h-23v-90h121v90h-21zM247 455v22h-121v-26l53 -39l-53 -37v-26h121v22
h-87l53 39v4l-53 41h87zM123 574q0 -26 18.5 -44t46.5 -18q26 0 44.5 16t18.5 46q0 29 -19 45t-45 17q-26 0 -45 -16t-19 -46zM188 534q-19 -1 -31.5 10t-11.5 30q0 20 13 30t30 10q41 -4 41 -40q0 -20 -12 -30t-29 -10z" />
    <glyph glyph-name="macron" unicode="&#xaf;" horiz-adv-x="360" 
d="M-61 749v165h500v-165h-500zM-4 875v-88h31q47 0 47 44q0 19 -12.5 31.5t-34.5 12.5h-31zM11 802v57h16q31 0 31 -28q0 -29 -31 -29h-16zM161 802h-46v21h46v16h-46v20h46v16h-62v-88h62v15zM264 787h16v88h-21l-26 -36l-26 36h-21v-88h17v66l30 -39l31 40v-67zM350 880
q-19 0 -32 -13.5t-13 -33.5t11.5 -33.5t33.5 -13.5q23 0 35 13.5t12 33.5q0 21 -13.5 34t-33.5 13zM320 833q0 13 8 22.5t22 9.5q15 0 23 -9.5t8 -22.5q0 -32 -31 -32q-14 0 -22 10t-8 22z" />
    <glyph glyph-name="degree" unicode="&#xb0;" horiz-adv-x="430" 
d="M-42 749v165h500v-165h-500zM15 875v-88h31q47 0 47 44q0 19 -12.5 31.5t-34.5 12.5h-31zM30 802v57h16q31 0 31 -28q0 -29 -31 -29h-16zM180 802h-46v21h46v16h-46v20h46v16h-62v-88h62v15zM283 787h16v88h-21l-26 -36l-26 36h-21v-88h17v66l30 -39l31 40v-67zM369 880
q-19 0 -32 -13.5t-13 -33.5t11.5 -33.5t33.5 -13.5q23 0 35 13.5t12 33.5q0 21 -13.5 34t-33.5 13zM339 833q0 13 8 22.5t22 9.5q15 0 23 -9.5t8 -22.5q0 -32 -31 -32q-14 0 -22 10t-8 22z" />
    <glyph glyph-name="plusminus" unicode="&#xb1;" horiz-adv-x="373" 
d="M303 0h-232v700h232v-700zM126 77h121v48q0 30 -18 45.5t-43 14.5q-25 0 -42.5 -15.5t-17.5 -44.5v-48zM148 99v26q-1 34 38 38q16 0 28 -9.5t12 -28.5v-26h-78zM226 310v-67h-28v65h-21v-65h-28v67h-23v-90h121v90h-21zM247 455v22h-121v-26l53 -39l-53 -37v-26h121v22
h-87l53 39v4l-53 41h87zM123 574q0 -26 18.5 -44t46.5 -18q26 0 44.5 16t18.5 46q0 29 -19 45t-45 17q-26 0 -45 -16t-19 -46zM188 534q-19 -1 -31.5 10t-11.5 30q0 20 13 30t30 10q41 -4 41 -40q0 -20 -12 -30t-29 -10z" />
    <glyph glyph-name="two.sups" unicode="&#xb2;" 
d="M303 0h-232v700h232v-700zM126 77h121v48q0 30 -18 45.5t-43 14.5q-25 0 -42.5 -15.5t-17.5 -44.5v-48zM148 99v26q-1 34 38 38q16 0 28 -9.5t12 -28.5v-26h-78zM226 310v-67h-28v65h-21v-65h-28v67h-23v-90h121v90h-21zM247 455v22h-121v-26l53 -39l-53 -37v-26h121v22
h-87l53 39v4l-53 41h87zM123 574q0 -26 18.5 -44t46.5 -18q26 0 44.5 16t18.5 46q0 29 -19 45t-45 17q-26 0 -45 -16t-19 -46zM188 534q-19 -1 -31.5 10t-11.5 30q0 20 13 30t30 10q41 -4 41 -40q0 -20 -12 -30t-29 -10z" />
    <glyph glyph-name="three.sups" unicode="&#xb3;" 
d="M303 0h-232v700h232v-700zM126 77h121v48q0 30 -18 45.5t-43 14.5q-25 0 -42.5 -15.5t-17.5 -44.5v-48zM148 99v26q-1 34 38 38q16 0 28 -9.5t12 -28.5v-26h-78zM226 310v-67h-28v65h-21v-65h-28v67h-23v-90h121v90h-21zM247 455v22h-121v-26l53 -39l-53 -37v-26h121v22
h-87l53 39v4l-53 41h87zM123 574q0 -26 18.5 -44t46.5 -18q26 0 44.5 16t18.5 46q0 29 -19 45t-45 17q-26 0 -45 -16t-19 -46zM188 534q-19 -1 -31.5 10t-11.5 30q0 20 13 30t30 10q41 -4 41 -40q0 -20 -12 -30t-29 -10z" />
    <glyph glyph-name="acute" unicode="&#xb4;" horiz-adv-x="270" 
d="M-134 749v165h500v-165h-500zM-77 875v-88h31q47 0 47 44q0 19 -12.5 31.5t-34.5 12.5h-31zM-62 802v57h16q31 0 31 -28q0 -29 -31 -29h-16zM88 802h-46v21h46v16h-46v20h46v16h-62v-88h62v15zM191 787h16v88h-21l-26 -36l-26 36h-21v-88h17v66l30 -39l31 40v-67z
M277 880q-19 0 -32 -13.5t-13 -33.5t11.5 -33.5t33.5 -13.5q23 0 35 13.5t12 33.5q0 21 -13.5 34t-33.5 13zM247 833q0 13 8 22.5t22 9.5q15 0 23 -9.5t8 -22.5q0 -32 -31 -32q-14 0 -22 10t-8 22z" />
    <glyph glyph-name="paragraph" unicode="&#xb6;" 
d="M303 0h-232v700h232v-700zM126 77h121v48q0 30 -18 45.5t-43 14.5q-25 0 -42.5 -15.5t-17.5 -44.5v-48zM148 99v26q-1 34 38 38q16 0 28 -9.5t12 -28.5v-26h-78zM226 310v-67h-28v65h-21v-65h-28v67h-23v-90h121v90h-21zM247 455v22h-121v-26l53 -39l-53 -37v-26h121v22
h-87l53 39v4l-53 41h87zM123 574q0 -26 18.5 -44t46.5 -18q26 0 44.5 16t18.5 46q0 29 -19 45t-45 17q-26 0 -45 -16t-19 -46zM188 534q-19 -1 -31.5 10t-11.5 30q0 20 13 30t30 10q41 -4 41 -40q0 -20 -12 -30t-29 -10z" />
    <glyph glyph-name="periodcentered" unicode="&#xb7;" 
d="M303 0h-232v700h232v-700zM126 77h121v48q0 30 -18 45.5t-43 14.5q-25 0 -42.5 -15.5t-17.5 -44.5v-48zM148 99v26q-1 34 38 38q16 0 28 -9.5t12 -28.5v-26h-78zM226 310v-67h-28v65h-21v-65h-28v67h-23v-90h121v90h-21zM247 455v22h-121v-26l53 -39l-53 -37v-26h121v22
h-87l53 39v4l-53 41h87zM123 574q0 -26 18.5 -44t46.5 -18q26 0 44.5 16t18.5 46q0 29 -19 45t-45 17q-26 0 -45 -16t-19 -46zM188 534q-19 -1 -31.5 10t-11.5 30q0 20 13 30t30 10q41 -4 41 -40q0 -20 -12 -30t-29 -10z" />
    <glyph glyph-name="cedilla" unicode="&#xb8;" horiz-adv-x="225" 
d="M-147 -192v165h500v-165h-500zM-90 -66v-88h31q47 0 47 44q0 19 -12.5 31.5t-34.5 12.5h-31zM-75 -139v57h16q31 0 31 -28q0 -29 -31 -29h-16zM75 -139h-46v21h46v16h-46v20h46v16h-62v-88h62v15zM178 -154h16v88h-21l-26 -36l-26 36h-21v-88h17v66l30 -39l31 40v-67z
M264 -61q-19 0 -32 -13.5t-13 -33.5t11.5 -33.5t33.5 -13.5q23 0 35 13.5t12 33.5q0 21 -13.5 34t-33.5 13zM234 -108q0 13 8 22.5t22 9.5q15 0 23 -9.5t8 -22.5q0 -32 -31 -32q-14 0 -22 10t-8 22z" />
    <glyph glyph-name="one.sups" unicode="&#xb9;" 
d="M303 0h-232v700h232v-700zM126 77h121v48q0 30 -18 45.5t-43 14.5q-25 0 -42.5 -15.5t-17.5 -44.5v-48zM148 99v26q-1 34 38 38q16 0 28 -9.5t12 -28.5v-26h-78zM226 310v-67h-28v65h-21v-65h-28v67h-23v-90h121v90h-21zM247 455v22h-121v-26l53 -39l-53 -37v-26h121v22
h-87l53 39v4l-53 41h87zM123 574q0 -26 18.5 -44t46.5 -18q26 0 44.5 16t18.5 46q0 29 -19 45t-45 17q-26 0 -45 -16t-19 -46zM188 534q-19 -1 -31.5 10t-11.5 30q0 20 13 30t30 10q41 -4 41 -40q0 -20 -12 -30t-29 -10z" />
    <glyph glyph-name="guillemotright" unicode="&#xbb;" 
d="M303 0h-232v700h232v-700zM126 77h121v48q0 30 -18 45.5t-43 14.5q-25 0 -42.5 -15.5t-17.5 -44.5v-48zM148 99v26q-1 34 38 38q16 0 28 -9.5t12 -28.5v-26h-78zM226 310v-67h-28v65h-21v-65h-28v67h-23v-90h121v90h-21zM247 455v22h-121v-26l53 -39l-53 -37v-26h121v22
h-87l53 39v4l-53 41h87zM123 574q0 -26 18.5 -44t46.5 -18q26 0 44.5 16t18.5 46q0 29 -19 45t-45 17q-26 0 -45 -16t-19 -46zM188 534q-19 -1 -31.5 10t-11.5 30q0 20 13 30t30 10q41 -4 41 -40q0 -20 -12 -30t-29 -10z" />
    <glyph glyph-name="onequarter" unicode="&#xbc;" 
d="M303 0h-232v700h232v-700zM126 77h121v48q0 30 -18 45.5t-43 14.5q-25 0 -42.5 -15.5t-17.5 -44.5v-48zM148 99v26q-1 34 38 38q16 0 28 -9.5t12 -28.5v-26h-78zM226 310v-67h-28v65h-21v-65h-28v67h-23v-90h121v90h-21zM247 455v22h-121v-26l53 -39l-53 -37v-26h121v22
h-87l53 39v4l-53 41h87zM123 574q0 -26 18.5 -44t46.5 -18q26 0 44.5 16t18.5 46q0 29 -19 45t-45 17q-26 0 -45 -16t-19 -46zM188 534q-19 -1 -31.5 10t-11.5 30q0 20 13 30t30 10q41 -4 41 -40q0 -20 -12 -30t-29 -10z" />
    <glyph glyph-name="onehalf" unicode="&#xbd;" 
d="M303 0h-232v700h232v-700zM126 77h121v48q0 30 -18 45.5t-43 14.5q-25 0 -42.5 -15.5t-17.5 -44.5v-48zM148 99v26q-1 34 38 38q16 0 28 -9.5t12 -28.5v-26h-78zM226 310v-67h-28v65h-21v-65h-28v67h-23v-90h121v90h-21zM247 455v22h-121v-26l53 -39l-53 -37v-26h121v22
h-87l53 39v4l-53 41h87zM123 574q0 -26 18.5 -44t46.5 -18q26 0 44.5 16t18.5 46q0 29 -19 45t-45 17q-26 0 -45 -16t-19 -46zM188 534q-19 -1 -31.5 10t-11.5 30q0 20 13 30t30 10q41 -4 41 -40q0 -20 -12 -30t-29 -10z" />
    <glyph glyph-name="threequarters" unicode="&#xbe;" 
d="M303 0h-232v700h232v-700zM126 77h121v48q0 30 -18 45.5t-43 14.5q-25 0 -42.5 -15.5t-17.5 -44.5v-48zM148 99v26q-1 34 38 38q16 0 28 -9.5t12 -28.5v-26h-78zM226 310v-67h-28v65h-21v-65h-28v67h-23v-90h121v90h-21zM247 455v22h-121v-26l53 -39l-53 -37v-26h121v22
h-87l53 39v4l-53 41h87zM123 574q0 -26 18.5 -44t46.5 -18q26 0 44.5 16t18.5 46q0 29 -19 45t-45 17q-26 0 -45 -16t-19 -46zM188 534q-19 -1 -31.5 10t-11.5 30q0 20 13 30t30 10q41 -4 41 -40q0 -20 -12 -30t-29 -10z" />
    <glyph glyph-name="questiondown" unicode="&#xbf;" 
d="M303 0h-232v700h232v-700zM126 77h121v48q0 30 -18 45.5t-43 14.5q-25 0 -42.5 -15.5t-17.5 -44.5v-48zM148 99v26q-1 34 38 38q16 0 28 -9.5t12 -28.5v-26h-78zM226 310v-67h-28v65h-21v-65h-28v67h-23v-90h121v90h-21zM247 455v22h-121v-26l53 -39l-53 -37v-26h121v22
h-87l53 39v4l-53 41h87zM123 574q0 -26 18.5 -44t46.5 -18q26 0 44.5 16t18.5 46q0 29 -19 45t-45 17q-26 0 -45 -16t-19 -46zM188 534q-19 -1 -31.5 10t-11.5 30q0 20 13 30t30 10q41 -4 41 -40q0 -20 -12 -30t-29 -10z" />
    <glyph glyph-name="Agrave" unicode="&#xc0;" horiz-adv-x="752" 
d="M191 0h-190l275 700h200l275 -700h-190l-40 110h-290zM358 462l-72 -202h180l-72 202q-12 34 -18 71q-6 -37 -18 -71zM90 749v165h500v-165h-500zM147 875v-88h31q47 0 47 44q0 19 -12.5 31.5t-34.5 12.5h-31zM162 802v57h16q31 0 31 -28q0 -29 -31 -29h-16zM312 802h-46
v21h46v16h-46v20h46v16h-62v-88h62v15zM415 787h16v88h-21l-26 -36l-26 36h-21v-88h17v66l30 -39l31 40v-67zM501 880q-19 0 -32 -13.5t-13 -33.5t11.5 -33.5t33.5 -13.5q23 0 35 13.5t12 33.5q0 21 -13.5 34t-33.5 13zM471 833q0 13 8 22.5t22 9.5q15 0 23 -9.5t8 -22.5
q0 -32 -31 -32q-14 0 -22 10t-8 22z" />
    <glyph glyph-name="Aacute" unicode="&#xc1;" horiz-adv-x="752" 
d="M191 0h-190l275 700h200l275 -700h-190l-40 110h-290zM358 462l-72 -202h180l-72 202q-12 34 -18 71q-6 -37 -18 -71zM142 749v165h500v-165h-500zM199 875v-88h31q47 0 47 44q0 19 -12.5 31.5t-34.5 12.5h-31zM214 802v57h16q31 0 31 -28q0 -29 -31 -29h-16zM364 802
h-46v21h46v16h-46v20h46v16h-62v-88h62v15zM467 787h16v88h-21l-26 -36l-26 36h-21v-88h17v66l30 -39l31 40v-67zM553 880q-19 0 -32 -13.5t-13 -33.5t11.5 -33.5t33.5 -13.5q23 0 35 13.5t12 33.5q0 21 -13.5 34t-33.5 13zM523 833q0 13 8 22.5t22 9.5q15 0 23 -9.5
t8 -22.5q0 -32 -31 -32q-14 0 -22 10t-8 22z" />
    <glyph glyph-name="Acircumflex" unicode="&#xc2;" horiz-adv-x="752" 
d="M191 0h-190l275 700h200l275 -700h-190l-40 110h-290zM358 462l-72 -202h180l-72 202q-12 34 -18 71q-6 -37 -18 -71zM123 749v165h500v-165h-500zM180 875v-88h31q47 0 47 44q0 19 -12.5 31.5t-34.5 12.5h-31zM195 802v57h16q31 0 31 -28q0 -29 -31 -29h-16zM345 802
h-46v21h46v16h-46v20h46v16h-62v-88h62v15zM448 787h16v88h-21l-26 -36l-26 36h-21v-88h17v66l30 -39l31 40v-67zM534 880q-19 0 -32 -13.5t-13 -33.5t11.5 -33.5t33.5 -13.5q23 0 35 13.5t12 33.5q0 21 -13.5 34t-33.5 13zM504 833q0 13 8 22.5t22 9.5q15 0 23 -9.5
t8 -22.5q0 -32 -31 -32q-14 0 -22 10t-8 22z" />
    <glyph glyph-name="Atilde" unicode="&#xc3;" horiz-adv-x="752" 
d="M191 0h-190l275 700h200l275 -700h-190l-40 110h-290zM358 462l-72 -202h180l-72 202q-12 34 -18 71q-6 -37 -18 -71zM120 749v165h500v-165h-500zM177 875v-88h31q47 0 47 44q0 19 -12.5 31.5t-34.5 12.5h-31zM192 802v57h16q31 0 31 -28q0 -29 -31 -29h-16zM342 802
h-46v21h46v16h-46v20h46v16h-62v-88h62v15zM445 787h16v88h-21l-26 -36l-26 36h-21v-88h17v66l30 -39l31 40v-67zM531 880q-19 0 -32 -13.5t-13 -33.5t11.5 -33.5t33.5 -13.5q23 0 35 13.5t12 33.5q0 21 -13.5 34t-33.5 13zM501 833q0 13 8 22.5t22 9.5q15 0 23 -9.5
t8 -22.5q0 -32 -31 -32q-14 0 -22 10t-8 22z" />
    <glyph glyph-name="Adieresis" unicode="&#xc4;" horiz-adv-x="752" 
d="M191 0h-190l275 700h200l275 -700h-190l-40 110h-290zM358 462l-72 -202h180l-72 202q-12 34 -18 71q-6 -37 -18 -71zM130 914h500v-165h-500v165zM187 875v-88h31q47 0 47 44q0 19 -12.5 31.5t-34.5 12.5h-31zM202 859h16q31 0 31 -28q0 -29 -31 -29h-16v57zM352 802
h-46v21h46v16h-46v20h46v16h-62v-88h62v15zM455 787h16v88h-21l-26 -36l-26 36h-21v-88h17v66l30 -39l31 40v-67zM541 880q-19 0 -32 -13.5t-13 -33.5t11.5 -33.5t33.5 -13.5q23 0 35 13.5t12 33.5q0 21 -13.5 34t-33.5 13zM511 833q0 13 8 22.5t22 9.5q15 0 23 -9.5
t8 -22.5q0 -32 -31 -32q-14 0 -22 10t-8 22z" />
    <glyph glyph-name="Aring" unicode="&#xc5;" horiz-adv-x="752" 
d="M191 0h-190l275 700h200l275 -700h-190l-40 110h-290zM358 462l-72 -202h180l-72 202q-12 34 -18 71q-6 -37 -18 -71zM140 749v165h500v-165h-500zM197 875v-88h31q47 0 47 44q0 19 -12.5 31.5t-34.5 12.5h-31zM212 802v57h16q31 0 31 -28q0 -29 -31 -29h-16zM362 802
h-46v21h46v16h-46v20h46v16h-62v-88h62v15zM465 787h16v88h-21l-26 -36l-26 36h-21v-88h17v66l30 -39l31 40v-67zM551 880q-19 0 -32 -13.5t-13 -33.5t11.5 -33.5t33.5 -13.5q23 0 35 13.5t12 33.5q0 21 -13.5 34t-33.5 13zM521 833q0 13 8 22.5t22 9.5q15 0 23 -9.5
t8 -22.5q0 -32 -31 -32q-14 0 -22 10t-8 22z" />
    <glyph glyph-name="AE" unicode="&#xc6;" horiz-adv-x="373" 
d="M303 0h-232v700h232v-700zM126 77h121v48q0 30 -18 45.5t-43 14.5q-25 0 -42.5 -15.5t-17.5 -44.5v-48zM148 99v26q-1 34 38 38q16 0 28 -9.5t12 -28.5v-26h-78zM226 310v-67h-28v65h-21v-65h-28v67h-23v-90h121v90h-21zM247 455v22h-121v-26l53 -39l-53 -37v-26h121v22
h-87l53 39v4l-53 41h87zM123 574q0 -26 18.5 -44t46.5 -18q26 0 44.5 16t18.5 46q0 29 -19 45t-45 17q-26 0 -45 -16t-19 -46zM188 534q-19 -1 -31.5 10t-11.5 30q0 20 13 30t30 10q41 -4 41 -40q0 -20 -12 -30t-29 -10z" />
    <glyph glyph-name="Ccedilla" unicode="&#xc7;" horiz-adv-x="655" 
d="M32 340q0 95 32 169t87 118t121 66t139 22q110 0 203 -44v-175q-68 57 -171 57q-92 0 -156.5 -53.5t-64.5 -159.5q0 -95 64 -143.5t155 -48.5q115 0 178 61v-180q-93 -44 -204 -44q-75 0 -141.5 21t-121.5 62.5t-87.5 111.5t-32.5 160z" />
    <glyph glyph-name="Egrave" unicode="&#xc8;" horiz-adv-x="617" 
d="M66 700h504v-160h-319v-107h289v-159h-289v-114h325v-160h-510v700zM42 749v165h500v-165h-500zM99 875v-88h31q47 0 47 44q0 19 -12.5 31.5t-34.5 12.5h-31zM114 802v57h16q31 0 31 -28q0 -29 -31 -29h-16zM264 802h-46v21h46v16h-46v20h46v16h-62v-88h62v15zM367 787
h16v88h-21l-26 -36l-26 36h-21v-88h17v66l30 -39l31 40v-67zM453 880q-19 0 -32 -13.5t-13 -33.5t11.5 -33.5t33.5 -13.5q23 0 35 13.5t12 33.5q0 21 -13.5 34t-33.5 13zM423 833q0 13 8 22.5t22 9.5q15 0 23 -9.5t8 -22.5q0 -32 -31 -32q-14 0 -22 10t-8 22z" />
    <glyph glyph-name="Eacute" unicode="&#xc9;" horiz-adv-x="617" 
d="M66 700h504v-160h-319v-107h289v-159h-289v-114h325v-160h-510v700zM94 749v165h500v-165h-500zM151 875v-88h31q47 0 47 44q0 19 -12.5 31.5t-34.5 12.5h-31zM166 802v57h16q31 0 31 -28q0 -29 -31 -29h-16zM316 802h-46v21h46v16h-46v20h46v16h-62v-88h62v15zM419 787
h16v88h-21l-26 -36l-26 36h-21v-88h17v66l30 -39l31 40v-67zM505 880q-19 0 -32 -13.5t-13 -33.5t11.5 -33.5t33.5 -13.5q23 0 35 13.5t12 33.5q0 21 -13.5 34t-33.5 13zM475 833q0 13 8 22.5t22 9.5q15 0 23 -9.5t8 -22.5q0 -32 -31 -32q-14 0 -22 10t-8 22z" />
    <glyph glyph-name="Ecircumflex" unicode="&#xca;" horiz-adv-x="617" 
d="M66 700h504v-160h-319v-107h289v-159h-289v-114h325v-160h-510v700zM75 749v165h500v-165h-500zM132 875v-88h31q47 0 47 44q0 19 -12.5 31.5t-34.5 12.5h-31zM147 802v57h16q31 0 31 -28q0 -29 -31 -29h-16zM297 802h-46v21h46v16h-46v20h46v16h-62v-88h62v15zM400 787
h16v88h-21l-26 -36l-26 36h-21v-88h17v66l30 -39l31 40v-67zM486 880q-19 0 -32 -13.5t-13 -33.5t11.5 -33.5t33.5 -13.5q23 0 35 13.5t12 33.5q0 21 -13.5 34t-33.5 13zM456 833q0 13 8 22.5t22 9.5q15 0 23 -9.5t8 -22.5q0 -32 -31 -32q-14 0 -22 10t-8 22z" />
    <glyph glyph-name="Edieresis" unicode="&#xcb;" horiz-adv-x="617" 
d="M66 700h504v-160h-319v-107h289v-159h-289v-114h325v-160h-510v700zM82 914h500v-165h-500v165zM139 875v-88h31q47 0 47 44q0 19 -12.5 31.5t-34.5 12.5h-31zM154 859h16q31 0 31 -28q0 -29 -31 -29h-16v57zM304 802h-46v21h46v16h-46v20h46v16h-62v-88h62v15zM407 787
h16v88h-21l-26 -36l-26 36h-21v-88h17v66l30 -39l31 40v-67zM493 880q-19 0 -32 -13.5t-13 -33.5t11.5 -33.5t33.5 -13.5q23 0 35 13.5t12 33.5q0 21 -13.5 34t-33.5 13zM463 833q0 13 8 22.5t22 9.5q15 0 23 -9.5t8 -22.5q0 -32 -31 -32q-14 0 -22 10t-8 22z" />
    <glyph glyph-name="Igrave" unicode="&#xcc;" horiz-adv-x="317" 
d="M66 700h185v-700h-185v700zM-127 749v165h500v-165h-500zM-70 875v-88h31q47 0 47 44q0 19 -12.5 31.5t-34.5 12.5h-31zM-55 802v57h16q31 0 31 -28q0 -29 -31 -29h-16zM95 802h-46v21h46v16h-46v20h46v16h-62v-88h62v15zM198 787h16v88h-21l-26 -36l-26 36h-21v-88h17
v66l30 -39l31 40v-67zM284 880q-19 0 -32 -13.5t-13 -33.5t11.5 -33.5t33.5 -13.5q23 0 35 13.5t12 33.5q0 21 -13.5 34t-33.5 13zM254 833q0 13 8 22.5t22 9.5q15 0 23 -9.5t8 -22.5q0 -32 -31 -32q-14 0 -22 10t-8 22z" />
    <glyph glyph-name="Iacute" unicode="&#xcd;" horiz-adv-x="317" 
d="M66 700h185v-700h-185v700zM-75 749v165h500v-165h-500zM-18 875v-88h31q47 0 47 44q0 19 -12.5 31.5t-34.5 12.5h-31zM-3 802v57h16q31 0 31 -28q0 -29 -31 -29h-16zM147 802h-46v21h46v16h-46v20h46v16h-62v-88h62v15zM250 787h16v88h-21l-26 -36l-26 36h-21v-88h17v66
l30 -39l31 40v-67zM336 880q-19 0 -32 -13.5t-13 -33.5t11.5 -33.5t33.5 -13.5q23 0 35 13.5t12 33.5q0 21 -13.5 34t-33.5 13zM306 833q0 13 8 22.5t22 9.5q15 0 23 -9.5t8 -22.5q0 -32 -31 -32q-14 0 -22 10t-8 22z" />
    <glyph glyph-name="Icircumflex" unicode="&#xce;" horiz-adv-x="317" 
d="M66 700h185v-700h-185v700zM-94 749v165h500v-165h-500zM-37 875v-88h31q47 0 47 44q0 19 -12.5 31.5t-34.5 12.5h-31zM-22 802v57h16q31 0 31 -28q0 -29 -31 -29h-16zM128 802h-46v21h46v16h-46v20h46v16h-62v-88h62v15zM231 787h16v88h-21l-26 -36l-26 36h-21v-88h17
v66l30 -39l31 40v-67zM317 880q-19 0 -32 -13.5t-13 -33.5t11.5 -33.5t33.5 -13.5q23 0 35 13.5t12 33.5q0 21 -13.5 34t-33.5 13zM287 833q0 13 8 22.5t22 9.5q15 0 23 -9.5t8 -22.5q0 -32 -31 -32q-14 0 -22 10t-8 22z" />
    <glyph glyph-name="Idieresis" unicode="&#xcf;" horiz-adv-x="317" 
d="M66 700h185v-700h-185v700zM-87 914h500v-165h-500v165zM-30 875v-88h31q47 0 47 44q0 19 -12.5 31.5t-34.5 12.5h-31zM-15 859h16q31 0 31 -28q0 -29 -31 -29h-16v57zM135 802h-46v21h46v16h-46v20h46v16h-62v-88h62v15zM238 787h16v88h-21l-26 -36l-26 36h-21v-88h17
v66l30 -39l31 40v-67zM324 880q-19 0 -32 -13.5t-13 -33.5t11.5 -33.5t33.5 -13.5q23 0 35 13.5t12 33.5q0 21 -13.5 34t-33.5 13zM294 833q0 13 8 22.5t22 9.5q15 0 23 -9.5t8 -22.5q0 -32 -31 -32q-14 0 -22 10t-8 22z" />
    <glyph glyph-name="Eth" unicode="&#xd0;" horiz-adv-x="760" 
d="M82 700h279q181 0 273.5 -95t92.5 -255t-92.5 -255t-273.5 -95h-279v700zM267 160h94q176 0 176 190t-176 190h-94v-380z" />
    <glyph glyph-name="Ntilde" unicode="&#xd1;" horiz-adv-x="762" 
d="M251 0h-185v700h175l274 -402q-4 44 -4 116v286h185v-700h-175l-274 401q4 -44 4 -115v-286zM125 749v165h500v-165h-500zM182 875v-88h31q47 0 47 44q0 19 -12.5 31.5t-34.5 12.5h-31zM197 802v57h16q31 0 31 -28q0 -29 -31 -29h-16zM347 802h-46v21h46v16h-46v20h46v16
h-62v-88h62v15zM450 787h16v88h-21l-26 -36l-26 36h-21v-88h17v66l30 -39l31 40v-67zM536 880q-19 0 -32 -13.5t-13 -33.5t11.5 -33.5t33.5 -13.5q23 0 35 13.5t12 33.5q0 21 -13.5 34t-33.5 13zM506 833q0 13 8 22.5t22 9.5q15 0 23 -9.5t8 -22.5q0 -32 -31 -32
q-14 0 -22 10t-8 22z" />
    <glyph glyph-name="Ograve" unicode="&#xd2;" horiz-adv-x="812" 
d="M31 350q0 155 98 260t277 105t277 -105t98 -260t-98 -260t-277 -105t-277 105t-98 260zM591 350q0 87 -48.5 141t-136.5 54t-136.5 -54t-48.5 -141t48.5 -141t136.5 -54t136.5 54t48.5 141zM120 749v165h500v-165h-500zM177 875v-88h31q47 0 47 44q0 19 -12.5 31.5
t-34.5 12.5h-31zM192 802v57h16q31 0 31 -28q0 -29 -31 -29h-16zM342 802h-46v21h46v16h-46v20h46v16h-62v-88h62v15zM445 787h16v88h-21l-26 -36l-26 36h-21v-88h17v66l30 -39l31 40v-67zM531 880q-19 0 -32 -13.5t-13 -33.5t11.5 -33.5t33.5 -13.5q23 0 35 13.5t12 33.5
q0 21 -13.5 34t-33.5 13zM501 833q0 13 8 22.5t22 9.5q15 0 23 -9.5t8 -22.5q0 -32 -31 -32q-14 0 -22 10t-8 22z" />
    <glyph glyph-name="Oacute" unicode="&#xd3;" horiz-adv-x="812" 
d="M31 350q0 155 98 260t277 105t277 -105t98 -260t-98 -260t-277 -105t-277 105t-98 260zM591 350q0 87 -48.5 141t-136.5 54t-136.5 -54t-48.5 -141t48.5 -141t136.5 -54t136.5 54t48.5 141zM172 749v165h500v-165h-500zM229 875v-88h31q47 0 47 44q0 19 -12.5 31.5
t-34.5 12.5h-31zM244 802v57h16q31 0 31 -28q0 -29 -31 -29h-16zM394 802h-46v21h46v16h-46v20h46v16h-62v-88h62v15zM497 787h16v88h-21l-26 -36l-26 36h-21v-88h17v66l30 -39l31 40v-67zM583 880q-19 0 -32 -13.5t-13 -33.5t11.5 -33.5t33.5 -13.5q23 0 35 13.5t12 33.5
q0 21 -13.5 34t-33.5 13zM553 833q0 13 8 22.5t22 9.5q15 0 23 -9.5t8 -22.5q0 -32 -31 -32q-14 0 -22 10t-8 22z" />
    <glyph glyph-name="Ocircumflex" unicode="&#xd4;" horiz-adv-x="812" 
d="M31 350q0 155 98 260t277 105t277 -105t98 -260t-98 -260t-277 -105t-277 105t-98 260zM591 350q0 87 -48.5 141t-136.5 54t-136.5 -54t-48.5 -141t48.5 -141t136.5 -54t136.5 54t48.5 141zM153 749v165h500v-165h-500zM210 875v-88h31q47 0 47 44q0 19 -12.5 31.5
t-34.5 12.5h-31zM225 802v57h16q31 0 31 -28q0 -29 -31 -29h-16zM375 802h-46v21h46v16h-46v20h46v16h-62v-88h62v15zM478 787h16v88h-21l-26 -36l-26 36h-21v-88h17v66l30 -39l31 40v-67zM564 880q-19 0 -32 -13.5t-13 -33.5t11.5 -33.5t33.5 -13.5q23 0 35 13.5t12 33.5
q0 21 -13.5 34t-33.5 13zM534 833q0 13 8 22.5t22 9.5q15 0 23 -9.5t8 -22.5q0 -32 -31 -32q-14 0 -22 10t-8 22z" />
    <glyph glyph-name="Otilde" unicode="&#xd5;" horiz-adv-x="812" 
d="M31 350q0 155 98 260t277 105t277 -105t98 -260t-98 -260t-277 -105t-277 105t-98 260zM591 350q0 87 -48.5 141t-136.5 54t-136.5 -54t-48.5 -141t48.5 -141t136.5 -54t136.5 54t48.5 141zM150 749v165h500v-165h-500zM207 875v-88h31q47 0 47 44q0 19 -12.5 31.5
t-34.5 12.5h-31zM222 802v57h16q31 0 31 -28q0 -29 -31 -29h-16zM372 802h-46v21h46v16h-46v20h46v16h-62v-88h62v15zM475 787h16v88h-21l-26 -36l-26 36h-21v-88h17v66l30 -39l31 40v-67zM561 880q-19 0 -32 -13.5t-13 -33.5t11.5 -33.5t33.5 -13.5q23 0 35 13.5t12 33.5
q0 21 -13.5 34t-33.5 13zM531 833q0 13 8 22.5t22 9.5q15 0 23 -9.5t8 -22.5q0 -32 -31 -32q-14 0 -22 10t-8 22z" />
    <glyph glyph-name="Odieresis" unicode="&#xd6;" horiz-adv-x="812" 
d="M31 350q0 155 98 260t277 105t277 -105t98 -260t-98 -260t-277 -105t-277 105t-98 260zM591 350q0 87 -48.5 141t-136.5 54t-136.5 -54t-48.5 -141t48.5 -141t136.5 -54t136.5 54t48.5 141zM160 914h500v-165h-500v165zM217 875v-88h31q47 0 47 44q0 19 -12.5 31.5
t-34.5 12.5h-31zM232 859h16q31 0 31 -28q0 -29 -31 -29h-16v57zM382 802h-46v21h46v16h-46v20h46v16h-62v-88h62v15zM485 787h16v88h-21l-26 -36l-26 36h-21v-88h17v66l30 -39l31 40v-67zM571 880q-19 0 -32 -13.5t-13 -33.5t11.5 -33.5t33.5 -13.5q23 0 35 13.5t12 33.5
q0 21 -13.5 34t-33.5 13zM541 833q0 13 8 22.5t22 9.5q15 0 23 -9.5t8 -22.5q0 -32 -31 -32q-14 0 -22 10t-8 22z" />
    <glyph glyph-name="multiply" unicode="&#xd7;" 
d="M303 0h-232v700h232v-700zM126 77h121v48q0 30 -18 45.5t-43 14.5q-25 0 -42.5 -15.5t-17.5 -44.5v-48zM148 99v26q-1 34 38 38q16 0 28 -9.5t12 -28.5v-26h-78zM226 310v-67h-28v65h-21v-65h-28v67h-23v-90h121v90h-21zM247 455v22h-121v-26l53 -39l-53 -37v-26h121v22
h-87l53 39v4l-53 41h87zM123 574q0 -26 18.5 -44t46.5 -18q26 0 44.5 16t18.5 46q0 29 -19 45t-45 17q-26 0 -45 -16t-19 -46zM188 534q-19 -1 -31.5 10t-11.5 30q0 20 13 30t30 10q41 -4 41 -40q0 -20 -12 -30t-29 -10z" />
    <glyph glyph-name="Oslash" unicode="&#xd8;" horiz-adv-x="812" 
d="M31 350q0 155 98 260t277 105t277 -105t98 -260t-98 -260t-277 -105t-277 105t-98 260zM591 350q0 87 -48.5 141t-136.5 54t-136.5 -54t-48.5 -141t48.5 -141t136.5 -54t136.5 54t48.5 141z" />
    <glyph glyph-name="Ugrave" unicode="&#xd9;" horiz-adv-x="748" 
d="M504 700h185v-433q0 -76 -27 -132.5t-73 -88t-100 -46.5t-115 -15t-115 15t-100 46.5t-73 88t-27 132.5v433h185v-423q0 -127 130 -127t130 127v423zM88 749v165h500v-165h-500zM145 875v-88h31q47 0 47 44q0 19 -12.5 31.5t-34.5 12.5h-31zM160 802v57h16q31 0 31 -28
q0 -29 -31 -29h-16zM310 802h-46v21h46v16h-46v20h46v16h-62v-88h62v15zM413 787h16v88h-21l-26 -36l-26 36h-21v-88h17v66l30 -39l31 40v-67zM499 880q-19 0 -32 -13.5t-13 -33.5t11.5 -33.5t33.5 -13.5q23 0 35 13.5t12 33.5q0 21 -13.5 34t-33.5 13zM469 833q0 13 8 22.5
t22 9.5q15 0 23 -9.5t8 -22.5q0 -32 -31 -32q-14 0 -22 10t-8 22z" />
    <glyph glyph-name="Uacute" unicode="&#xda;" horiz-adv-x="748" 
d="M504 700h185v-433q0 -76 -27 -132.5t-73 -88t-100 -46.5t-115 -15t-115 15t-100 46.5t-73 88t-27 132.5v433h185v-423q0 -127 130 -127t130 127v423zM140 749v165h500v-165h-500zM197 875v-88h31q47 0 47 44q0 19 -12.5 31.5t-34.5 12.5h-31zM212 802v57h16q31 0 31 -28
q0 -29 -31 -29h-16zM362 802h-46v21h46v16h-46v20h46v16h-62v-88h62v15zM465 787h16v88h-21l-26 -36l-26 36h-21v-88h17v66l30 -39l31 40v-67zM551 880q-19 0 -32 -13.5t-13 -33.5t11.5 -33.5t33.5 -13.5q23 0 35 13.5t12 33.5q0 21 -13.5 34t-33.5 13zM521 833q0 13 8 22.5
t22 9.5q15 0 23 -9.5t8 -22.5q0 -32 -31 -32q-14 0 -22 10t-8 22z" />
    <glyph glyph-name="Ucircumflex" unicode="&#xdb;" horiz-adv-x="748" 
d="M504 700h185v-433q0 -76 -27 -132.5t-73 -88t-100 -46.5t-115 -15t-115 15t-100 46.5t-73 88t-27 132.5v433h185v-423q0 -127 130 -127t130 127v423zM121 749v165h500v-165h-500zM178 875v-88h31q47 0 47 44q0 19 -12.5 31.5t-34.5 12.5h-31zM193 802v57h16q31 0 31 -28
q0 -29 -31 -29h-16zM343 802h-46v21h46v16h-46v20h46v16h-62v-88h62v15zM446 787h16v88h-21l-26 -36l-26 36h-21v-88h17v66l30 -39l31 40v-67zM532 880q-19 0 -32 -13.5t-13 -33.5t11.5 -33.5t33.5 -13.5q23 0 35 13.5t12 33.5q0 21 -13.5 34t-33.5 13zM502 833q0 13 8 22.5
t22 9.5q15 0 23 -9.5t8 -22.5q0 -32 -31 -32q-14 0 -22 10t-8 22z" />
    <glyph glyph-name="Udieresis" unicode="&#xdc;" horiz-adv-x="748" 
d="M504 700h185v-433q0 -76 -27 -132.5t-73 -88t-100 -46.5t-115 -15t-115 15t-100 46.5t-73 88t-27 132.5v433h185v-423q0 -127 130 -127t130 127v423zM128 914h500v-165h-500v165zM185 875v-88h31q47 0 47 44q0 19 -12.5 31.5t-34.5 12.5h-31zM200 859h16q31 0 31 -28
q0 -29 -31 -29h-16v57zM350 802h-46v21h46v16h-46v20h46v16h-62v-88h62v15zM453 787h16v88h-21l-26 -36l-26 36h-21v-88h17v66l30 -39l31 40v-67zM539 880q-19 0 -32 -13.5t-13 -33.5t11.5 -33.5t33.5 -13.5q23 0 35 13.5t12 33.5q0 21 -13.5 34t-33.5 13zM509 833
q0 13 8 22.5t22 9.5q15 0 23 -9.5t8 -22.5q0 -32 -31 -32q-14 0 -22 10t-8 22z" />
    <glyph glyph-name="Yacute" unicode="&#xdd;" horiz-adv-x="728" 
d="M456 0h-184v239l-273 461h210l155 -289l155 289h210l-273 -461v-239zM128 749v165h500v-165h-500zM185 875v-88h31q47 0 47 44q0 19 -12.5 31.5t-34.5 12.5h-31zM200 802v57h16q31 0 31 -28q0 -29 -31 -29h-16zM350 802h-46v21h46v16h-46v20h46v16h-62v-88h62v15z
M453 787h16v88h-21l-26 -36l-26 36h-21v-88h17v66l30 -39l31 40v-67zM539 880q-19 0 -32 -13.5t-13 -33.5t11.5 -33.5t33.5 -13.5q23 0 35 13.5t12 33.5q0 21 -13.5 34t-33.5 13zM509 833q0 13 8 22.5t22 9.5q15 0 23 -9.5t8 -22.5q0 -32 -31 -32q-14 0 -22 10t-8 22z" />
    <glyph glyph-name="Thorn" unicode="&#xde;" horiz-adv-x="668" 
d="M251 590h92q305 0 305 -240q0 -238 -305 -240h-92v-110h-185v700h185v-110zM251 270h101q106 0 106 80t-106 80h-101v-160z" />
    <glyph glyph-name="germandbls" unicode="&#xdf;" horiz-adv-x="588" 
d="M573 141q0 -76 -58.5 -116t-139.5 -40q-61 0 -114 24v130q42 -23 80 -23q26 0 41.5 10.5t15.5 29.5q0 17 -21 41t-47 46t-47 53.5t-21 60.5q0 38 36 85.5t36 85.5q0 57 -56 57q-26 0 -41.5 -15t-15.5 -41v-529h-170v486q0 110 58.5 169t168.5 60q107 1 161.5 -48
t54.5 -108q0 -37 -20.5 -71.5t-41 -61.5t-20.5 -45q0 -17 16.5 -36.5t40 -40t47.5 -43t40.5 -54.5t16.5 -66z" />
    <glyph glyph-name="agrave" unicode="&#xe0;" horiz-adv-x="567" 
d="M505 137q0 -30 33 -30q10 0 19 3v-105q-38 -15 -86 -15q-80 0 -114 53q-74 -58 -167 -58q-71 0 -119 40t-48 108q0 43 19 75.5t50.5 49.5t66 25t72.5 8q54 0 104 -11v17q0 27 -25.5 43.5t-74.5 16.5q-76 0 -168 -37v143q98 32 187 32q123 0 187 -51t64 -173v-134z
M198 147q0 -20 16 -33.5t42 -13.5q45 0 79 25v65q-27 9 -61 9q-76 0 -76 -52zM-24 539v165h500v-165h-500zM33 665v-88h31q47 0 47 44q0 19 -12.5 31.5t-34.5 12.5h-31zM48 592v57h16q31 0 31 -28q0 -29 -31 -29h-16zM198 592h-46v21h46v16h-46v20h46v16h-62v-88h62v15z
M301 577h16v88h-21l-26 -36l-26 36h-21v-88h17v66l30 -39l31 40v-67zM387 670q-19 0 -32 -13.5t-13 -33.5t11.5 -33.5t33.5 -13.5q23 0 35 13.5t12 33.5q0 21 -13.5 34t-33.5 13zM357 623q0 13 8 22.5t22 9.5q15 0 23 -9.5t8 -22.5q0 -32 -31 -32q-14 0 -22 10t-8 22z" />
    <glyph glyph-name="aacute" unicode="&#xe1;" horiz-adv-x="567" 
d="M505 137q0 -30 33 -30q10 0 19 3v-105q-38 -15 -86 -15q-80 0 -114 53q-74 -58 -167 -58q-71 0 -119 40t-48 108q0 43 19 75.5t50.5 49.5t66 25t72.5 8q54 0 104 -11v17q0 27 -25.5 43.5t-74.5 16.5q-76 0 -168 -37v143q98 32 187 32q123 0 187 -51t64 -173v-134z
M198 147q0 -20 16 -33.5t42 -13.5q45 0 79 25v65q-27 9 -61 9q-76 0 -76 -52zM28 539v165h500v-165h-500zM85 665v-88h31q47 0 47 44q0 19 -12.5 31.5t-34.5 12.5h-31zM100 592v57h16q31 0 31 -28q0 -29 -31 -29h-16zM250 592h-46v21h46v16h-46v20h46v16h-62v-88h62v15z
M353 577h16v88h-21l-26 -36l-26 36h-21v-88h17v66l30 -39l31 40v-67zM439 670q-19 0 -32 -13.5t-13 -33.5t11.5 -33.5t33.5 -13.5q23 0 35 13.5t12 33.5q0 21 -13.5 34t-33.5 13zM409 623q0 13 8 22.5t22 9.5q15 0 23 -9.5t8 -22.5q0 -32 -31 -32q-14 0 -22 10t-8 22z" />
    <glyph glyph-name="acircumflex" unicode="&#xe2;" horiz-adv-x="567" 
d="M505 137q0 -30 33 -30q10 0 19 3v-105q-38 -15 -86 -15q-80 0 -114 53q-74 -58 -167 -58q-71 0 -119 40t-48 108q0 43 19 75.5t50.5 49.5t66 25t72.5 8q54 0 104 -11v17q0 27 -25.5 43.5t-74.5 16.5q-76 0 -168 -37v143q98 32 187 32q123 0 187 -51t64 -173v-134z
M198 147q0 -20 16 -33.5t42 -13.5q45 0 79 25v65q-27 9 -61 9q-76 0 -76 -52zM9 539v165h500v-165h-500zM66 665v-88h31q47 0 47 44q0 19 -12.5 31.5t-34.5 12.5h-31zM81 592v57h16q31 0 31 -28q0 -29 -31 -29h-16zM231 592h-46v21h46v16h-46v20h46v16h-62v-88h62v15z
M334 577h16v88h-21l-26 -36l-26 36h-21v-88h17v66l30 -39l31 40v-67zM420 670q-19 0 -32 -13.5t-13 -33.5t11.5 -33.5t33.5 -13.5q23 0 35 13.5t12 33.5q0 21 -13.5 34t-33.5 13zM390 623q0 13 8 22.5t22 9.5q15 0 23 -9.5t8 -22.5q0 -32 -31 -32q-14 0 -22 10t-8 22z" />
    <glyph glyph-name="atilde" unicode="&#xe3;" horiz-adv-x="567" 
d="M505 137q0 -30 33 -30q10 0 19 3v-105q-38 -15 -86 -15q-80 0 -114 53q-74 -58 -167 -58q-71 0 -119 40t-48 108q0 43 19 75.5t50.5 49.5t66 25t72.5 8q54 0 104 -11v17q0 27 -25.5 43.5t-74.5 16.5q-76 0 -168 -37v143q98 32 187 32q123 0 187 -51t64 -173v-134z
M198 147q0 -20 16 -33.5t42 -13.5q45 0 79 25v65q-27 9 -61 9q-76 0 -76 -52zM6 539v165h500v-165h-500zM63 665v-88h31q47 0 47 44q0 19 -12.5 31.5t-34.5 12.5h-31zM78 592v57h16q31 0 31 -28q0 -29 -31 -29h-16zM228 592h-46v21h46v16h-46v20h46v16h-62v-88h62v15z
M331 577h16v88h-21l-26 -36l-26 36h-21v-88h17v66l30 -39l31 40v-67zM417 670q-19 0 -32 -13.5t-13 -33.5t11.5 -33.5t33.5 -13.5q23 0 35 13.5t12 33.5q0 21 -13.5 34t-33.5 13zM387 623q0 13 8 22.5t22 9.5q15 0 23 -9.5t8 -22.5q0 -32 -31 -32q-14 0 -22 10t-8 22z" />
    <glyph glyph-name="adieresis" unicode="&#xe4;" horiz-adv-x="567" 
d="M505 137q0 -30 33 -30q10 0 19 3v-105q-38 -15 -86 -15q-80 0 -114 53q-74 -58 -167 -58q-71 0 -119 40t-48 108q0 43 19 75.5t50.5 49.5t66 25t72.5 8q54 0 104 -11v17q0 27 -25.5 43.5t-74.5 16.5q-76 0 -168 -37v143q98 32 187 32q123 0 187 -51t64 -173v-134z
M198 147q0 -20 16 -33.5t42 -13.5q45 0 79 25v65q-27 9 -61 9q-76 0 -76 -52zM16 704h500v-165h-500v165zM73 665v-88h31q47 0 47 44q0 19 -12.5 31.5t-34.5 12.5h-31zM88 649h16q31 0 31 -28q0 -29 -31 -29h-16v57zM238 592h-46v21h46v16h-46v20h46v16h-62v-88h62v15z
M341 577h16v88h-21l-26 -36l-26 36h-21v-88h17v66l30 -39l31 40v-67zM427 670q-19 0 -32 -13.5t-13 -33.5t11.5 -33.5t33.5 -13.5q23 0 35 13.5t12 33.5q0 21 -13.5 34t-33.5 13zM397 623q0 13 8 22.5t22 9.5q15 0 23 -9.5t8 -22.5q0 -32 -31 -32q-14 0 -22 10t-8 22z" />
    <glyph glyph-name="aring" unicode="&#xe5;" horiz-adv-x="567" 
d="M505 137q0 -30 33 -30q10 0 19 3v-105q-38 -15 -86 -15q-80 0 -114 53q-74 -58 -167 -58q-71 0 -119 40t-48 108q0 43 19 75.5t50.5 49.5t66 25t72.5 8q54 0 104 -11v17q0 27 -25.5 43.5t-74.5 16.5q-76 0 -168 -37v143q98 32 187 32q123 0 187 -51t64 -173v-134z
M198 147q0 -20 16 -33.5t42 -13.5q45 0 79 25v65q-27 9 -61 9q-76 0 -76 -52zM26 539v165h500v-165h-500zM83 665v-88h31q47 0 47 44q0 19 -12.5 31.5t-34.5 12.5h-31zM98 592v57h16q31 0 31 -28q0 -29 -31 -29h-16zM248 592h-46v21h46v16h-46v20h46v16h-62v-88h62v15z
M351 577h16v88h-21l-26 -36l-26 36h-21v-88h17v66l30 -39l31 40v-67zM437 670q-19 0 -32 -13.5t-13 -33.5t11.5 -33.5t33.5 -13.5q23 0 35 13.5t12 33.5q0 21 -13.5 34t-33.5 13zM407 623q0 13 8 22.5t22 9.5q15 0 23 -9.5t8 -22.5q0 -32 -31 -32q-14 0 -22 10t-8 22z" />
    <glyph glyph-name="ae" unicode="&#xe6;" 
d="M303 0h-232v700h232v-700zM126 77h121v48q0 30 -18 45.5t-43 14.5q-25 0 -42.5 -15.5t-17.5 -44.5v-48zM148 99v26q-1 34 38 38q16 0 28 -9.5t12 -28.5v-26h-78zM226 310v-67h-28v65h-21v-65h-28v67h-23v-90h121v90h-21zM247 455v22h-121v-26l53 -39l-53 -37v-26h121v22
h-87l53 39v4l-53 41h87zM123 574q0 -26 18.5 -44t46.5 -18q26 0 44.5 16t18.5 46q0 29 -19 45t-45 17q-26 0 -45 -16t-19 -46zM188 534q-19 -1 -31.5 10t-11.5 30q0 20 13 30t30 10q41 -4 41 -40q0 -20 -12 -30t-29 -10z" />
    <glyph glyph-name="ccedilla" unicode="&#xe7;" horiz-adv-x="490" 
d="M27 230q0 132 81.5 199t195.5 67q79 0 148 -33v-145q-57 33 -122 33q-56 0 -92 -27t-36 -84q0 -54 36 -82t89 -28q74 0 130 32v-145q-77 -32 -165 -32q-110 0 -187.5 62.5t-77.5 182.5z" />
    <glyph glyph-name="egrave" unicode="&#xe8;" horiz-adv-x="548" 
d="M27 240q0 67 24 118.5t63 80t81 42.5t84 14q60 0 107 -18t74.5 -48t44.5 -69.5t16.5 -83t-8.5 -87.5h-314q27 -74 153 -74q77 0 138 23v-126q-76 -27 -178 -27q-123 0 -204 67.5t-81 187.5zM358 291q5 24 -12.5 52.5t-62.5 28.5q-36 0 -61 -22t-25 -59h161zM-8 529v165
h500v-165h-500zM49 655v-88h31q47 0 47 44q0 19 -12.5 31.5t-34.5 12.5h-31zM64 582v57h16q31 0 31 -28q0 -29 -31 -29h-16zM214 582h-46v21h46v16h-46v20h46v16h-62v-88h62v15zM317 567h16v88h-21l-26 -36l-26 36h-21v-88h17v66l30 -39l31 40v-67zM403 660q-19 0 -32 -13.5
t-13 -33.5t11.5 -33.5t33.5 -13.5q23 0 35 13.5t12 33.5q0 21 -13.5 34t-33.5 13zM373 613q0 13 8 22.5t22 9.5q15 0 23 -9.5t8 -22.5q0 -32 -31 -32q-14 0 -22 10t-8 22z" />
    <glyph glyph-name="eacute" unicode="&#xe9;" horiz-adv-x="548" 
d="M27 240q0 67 24 118.5t63 80t81 42.5t84 14q60 0 107 -18t74.5 -48t44.5 -69.5t16.5 -83t-8.5 -87.5h-314q27 -74 153 -74q77 0 138 23v-126q-76 -27 -178 -27q-123 0 -204 67.5t-81 187.5zM358 291q5 24 -12.5 52.5t-62.5 28.5q-36 0 -61 -22t-25 -59h161zM44 529v165
h500v-165h-500zM101 655v-88h31q47 0 47 44q0 19 -12.5 31.5t-34.5 12.5h-31zM116 582v57h16q31 0 31 -28q0 -29 -31 -29h-16zM266 582h-46v21h46v16h-46v20h46v16h-62v-88h62v15zM369 567h16v88h-21l-26 -36l-26 36h-21v-88h17v66l30 -39l31 40v-67zM455 660
q-19 0 -32 -13.5t-13 -33.5t11.5 -33.5t33.5 -13.5q23 0 35 13.5t12 33.5q0 21 -13.5 34t-33.5 13zM425 613q0 13 8 22.5t22 9.5q15 0 23 -9.5t8 -22.5q0 -32 -31 -32q-14 0 -22 10t-8 22z" />
    <glyph glyph-name="ecircumflex" unicode="&#xea;" horiz-adv-x="548" 
d="M27 240q0 67 24 118.5t63 80t81 42.5t84 14q60 0 107 -18t74.5 -48t44.5 -69.5t16.5 -83t-8.5 -87.5h-314q27 -74 153 -74q77 0 138 23v-126q-76 -27 -178 -27q-123 0 -204 67.5t-81 187.5zM358 291q5 24 -12.5 52.5t-62.5 28.5q-36 0 -61 -22t-25 -59h161zM25 529v165
h500v-165h-500zM82 655v-88h31q47 0 47 44q0 19 -12.5 31.5t-34.5 12.5h-31zM97 582v57h16q31 0 31 -28q0 -29 -31 -29h-16zM247 582h-46v21h46v16h-46v20h46v16h-62v-88h62v15zM350 567h16v88h-21l-26 -36l-26 36h-21v-88h17v66l30 -39l31 40v-67zM436 660q-19 0 -32 -13.5
t-13 -33.5t11.5 -33.5t33.5 -13.5q23 0 35 13.5t12 33.5q0 21 -13.5 34t-33.5 13zM406 613q0 13 8 22.5t22 9.5q15 0 23 -9.5t8 -22.5q0 -32 -31 -32q-14 0 -22 10t-8 22z" />
    <glyph glyph-name="edieresis" unicode="&#xeb;" horiz-adv-x="548" 
d="M27 240q0 67 24 118.5t63 80t81 42.5t84 14q60 0 107 -18t74.5 -48t44.5 -69.5t16.5 -83t-8.5 -87.5h-314q27 -74 153 -74q77 0 138 23v-126q-76 -27 -178 -27q-123 0 -204 67.5t-81 187.5zM358 291q5 24 -12.5 52.5t-62.5 28.5q-36 0 -61 -22t-25 -59h161zM32 694h500
v-165h-500v165zM89 655v-88h31q47 0 47 44q0 19 -12.5 31.5t-34.5 12.5h-31zM104 639h16q31 0 31 -28q0 -29 -31 -29h-16v57zM254 582h-46v21h46v16h-46v20h46v16h-62v-88h62v15zM357 567h16v88h-21l-26 -36l-26 36h-21v-88h17v66l30 -39l31 40v-67zM443 660
q-19 0 -32 -13.5t-13 -33.5t11.5 -33.5t33.5 -13.5q23 0 35 13.5t12 33.5q0 21 -13.5 34t-33.5 13zM413 613q0 13 8 22.5t22 9.5q15 0 23 -9.5t8 -22.5q0 -32 -31 -32q-14 0 -22 10t-8 22z" />
    <glyph glyph-name="igrave" unicode="&#xec;" horiz-adv-x="274" 
d="M222 0h-170v480h170v-480z" />
    <glyph glyph-name="iacute" unicode="&#xed;" horiz-adv-x="274" 
d="M52 480h170v-480h-170v480zM-97 529v165h500v-165h-500zM-40 655v-88h31q47 0 47 44q0 19 -12.5 31.5t-34.5 12.5h-31zM-25 582v57h16q31 0 31 -28q0 -29 -31 -29h-16zM125 582h-46v21h46v16h-46v20h46v16h-62v-88h62v15zM228 567h16v88h-21l-26 -36l-26 36h-21v-88h17
v66l30 -39l31 40v-67zM314 660q-19 0 -32 -13.5t-13 -33.5t11.5 -33.5t33.5 -13.5q23 0 35 13.5t12 33.5q0 21 -13.5 34t-33.5 13zM284 613q0 13 8 22.5t22 9.5q15 0 23 -9.5t8 -22.5q0 -32 -31 -32q-14 0 -22 10t-8 22z" />
    <glyph glyph-name="icircumflex" unicode="&#xee;" horiz-adv-x="274" 
d="M52 480h170v-480h-170v480z" />
    <glyph glyph-name="idieresis" unicode="&#xef;" horiz-adv-x="274" 
d="M52 480h170v-480h-170v480z" />
    <glyph glyph-name="eth" unicode="&#xf0;" horiz-adv-x="582" 
d="M549 280q0 -155 -71 -225t-189 -70q-114 0 -187 59.5t-73 170.5q0 102 56 161t144 59q99 0 145 -57q0 9 -2 27q-11 82 -83 134l-74 -74l-73 74l46 46q-39 10 -87 10v120q102 0 186 -31l69 69l73 -74l-45 -45q165 -118 165 -354zM204 215q0 -34 19 -62t66 -28t66 28t19 62
t-19 62t-66 28t-66 -28t-19 -62z" />
    <glyph glyph-name="ntilde" unicode="&#xf1;" horiz-adv-x="592" 
d="M201 425q65 70 153 70q94 0 143 -55.5t49 -141.5v-298h-170v275q0 37 -20 56t-53 19q-49 0 -82 -42v-308h-170v480h150v-55zM30 529v165h500v-165h-500zM87 655v-88h31q47 0 47 44q0 19 -12.5 31.5t-34.5 12.5h-31zM102 582v57h16q31 0 31 -28q0 -29 -31 -29h-16z
M252 582h-46v21h46v16h-46v20h46v16h-62v-88h62v15zM355 567h16v88h-21l-26 -36l-26 36h-21v-88h17v66l30 -39l31 40v-67zM441 660q-19 0 -32 -13.5t-13 -33.5t11.5 -33.5t33.5 -13.5q23 0 35 13.5t12 33.5q0 21 -13.5 34t-33.5 13zM411 613q0 13 8 22.5t22 9.5
q15 0 23 -9.5t8 -22.5q0 -32 -31 -32q-14 0 -22 10t-8 22z" />
    <glyph glyph-name="ograve" unicode="&#xf2;" horiz-adv-x="594" 
d="M27 240q0 122 77.5 188.5t192.5 66.5t192.5 -66.5t77.5 -188.5t-77.5 -188.5t-192.5 -66.5t-192.5 66.5t-77.5 188.5zM392 240q0 45 -23 75t-72 30t-72 -30t-23 -75t23 -75t72 -30t72 30t23 75zM12 519v165h500v-165h-500zM69 645v-88h31q47 0 47 44q0 19 -12.5 31.5
t-34.5 12.5h-31zM84 572v57h16q31 0 31 -28q0 -29 -31 -29h-16zM234 572h-46v21h46v16h-46v20h46v16h-62v-88h62v15zM337 557h16v88h-21l-26 -36l-26 36h-21v-88h17v66l30 -39l31 40v-67zM423 650q-19 0 -32 -13.5t-13 -33.5t11.5 -33.5t33.5 -13.5q23 0 35 13.5t12 33.5
q0 21 -13.5 34t-33.5 13zM393 603q0 13 8 22.5t22 9.5q15 0 23 -9.5t8 -22.5q0 -32 -31 -32q-14 0 -22 10t-8 22z" />
    <glyph glyph-name="oacute" unicode="&#xf3;" horiz-adv-x="594" 
d="M27 240q0 122 77.5 188.5t192.5 66.5t192.5 -66.5t77.5 -188.5t-77.5 -188.5t-192.5 -66.5t-192.5 66.5t-77.5 188.5zM392 240q0 45 -23 75t-72 30t-72 -30t-23 -75t23 -75t72 -30t72 30t23 75zM64 519v165h500v-165h-500zM121 645v-88h31q47 0 47 44q0 19 -12.5 31.5
t-34.5 12.5h-31zM136 572v57h16q31 0 31 -28q0 -29 -31 -29h-16zM286 572h-46v21h46v16h-46v20h46v16h-62v-88h62v15zM389 557h16v88h-21l-26 -36l-26 36h-21v-88h17v66l30 -39l31 40v-67zM475 650q-19 0 -32 -13.5t-13 -33.5t11.5 -33.5t33.5 -13.5q23 0 35 13.5t12 33.5
q0 21 -13.5 34t-33.5 13zM445 603q0 13 8 22.5t22 9.5q15 0 23 -9.5t8 -22.5q0 -32 -31 -32q-14 0 -22 10t-8 22z" />
    <glyph glyph-name="ocircumflex" unicode="&#xf4;" horiz-adv-x="594" 
d="M27 240q0 122 77.5 188.5t192.5 66.5t192.5 -66.5t77.5 -188.5t-77.5 -188.5t-192.5 -66.5t-192.5 66.5t-77.5 188.5zM392 240q0 45 -23 75t-72 30t-72 -30t-23 -75t23 -75t72 -30t72 30t23 75zM45 519v165h500v-165h-500zM102 645v-88h31q47 0 47 44q0 19 -12.5 31.5
t-34.5 12.5h-31zM117 572v57h16q31 0 31 -28q0 -29 -31 -29h-16zM267 572h-46v21h46v16h-46v20h46v16h-62v-88h62v15zM370 557h16v88h-21l-26 -36l-26 36h-21v-88h17v66l30 -39l31 40v-67zM456 650q-19 0 -32 -13.5t-13 -33.5t11.5 -33.5t33.5 -13.5q23 0 35 13.5t12 33.5
q0 21 -13.5 34t-33.5 13zM426 603q0 13 8 22.5t22 9.5q15 0 23 -9.5t8 -22.5q0 -32 -31 -32q-14 0 -22 10t-8 22z" />
    <glyph glyph-name="otilde" unicode="&#xf5;" horiz-adv-x="594" 
d="M27 240q0 122 77.5 188.5t192.5 66.5t192.5 -66.5t77.5 -188.5t-77.5 -188.5t-192.5 -66.5t-192.5 66.5t-77.5 188.5zM392 240q0 45 -23 75t-72 30t-72 -30t-23 -75t23 -75t72 -30t72 30t23 75zM42 519v165h500v-165h-500zM99 645v-88h31q47 0 47 44q0 19 -12.5 31.5
t-34.5 12.5h-31zM114 572v57h16q31 0 31 -28q0 -29 -31 -29h-16zM264 572h-46v21h46v16h-46v20h46v16h-62v-88h62v15zM367 557h16v88h-21l-26 -36l-26 36h-21v-88h17v66l30 -39l31 40v-67zM453 650q-19 0 -32 -13.5t-13 -33.5t11.5 -33.5t33.5 -13.5q23 0 35 13.5t12 33.5
q0 21 -13.5 34t-33.5 13zM423 603q0 13 8 22.5t22 9.5q15 0 23 -9.5t8 -22.5q0 -32 -31 -32q-14 0 -22 10t-8 22z" />
    <glyph glyph-name="odieresis" unicode="&#xf6;" horiz-adv-x="594" 
d="M27 240q0 122 77.5 188.5t192.5 66.5t192.5 -66.5t77.5 -188.5t-77.5 -188.5t-192.5 -66.5t-192.5 66.5t-77.5 188.5zM392 240q0 45 -23 75t-72 30t-72 -30t-23 -75t23 -75t72 -30t72 30t23 75zM52 684h500v-165h-500v165zM109 645v-88h31q47 0 47 44q0 19 -12.5 31.5
t-34.5 12.5h-31zM124 629h16q31 0 31 -28q0 -29 -31 -29h-16v57zM274 572h-46v21h46v16h-46v20h46v16h-62v-88h62v15zM377 557h16v88h-21l-26 -36l-26 36h-21v-88h17v66l30 -39l31 40v-67zM463 650q-19 0 -32 -13.5t-13 -33.5t11.5 -33.5t33.5 -13.5q23 0 35 13.5t12 33.5
q0 21 -13.5 34t-33.5 13zM433 603q0 13 8 22.5t22 9.5q15 0 23 -9.5t8 -22.5q0 -32 -31 -32q-14 0 -22 10t-8 22z" />
    <glyph glyph-name="divide" unicode="&#xf7;" horiz-adv-x="373" 
d="M303 0h-232v700h232v-700zM126 77h121v48q0 30 -18 45.5t-43 14.5q-25 0 -42.5 -15.5t-17.5 -44.5v-48zM148 99v26q-1 34 38 38q16 0 28 -9.5t12 -28.5v-26h-78zM226 310v-67h-28v65h-21v-65h-28v67h-23v-90h121v90h-21zM247 455v22h-121v-26l53 -39l-53 -37v-26h121v22
h-87l53 39v4l-53 41h87zM123 574q0 -26 18.5 -44t46.5 -18q26 0 44.5 16t18.5 46q0 29 -19 45t-45 17q-26 0 -45 -16t-19 -46zM188 534q-19 -1 -31.5 10t-11.5 30q0 20 13 30t30 10q41 -4 41 -40q0 -20 -12 -30t-29 -10z" />
    <glyph glyph-name="oslash" unicode="&#xf8;" horiz-adv-x="594" 
d="M27 240q0 122 77.5 188.5t192.5 66.5t192.5 -66.5t77.5 -188.5t-77.5 -188.5t-192.5 -66.5t-192.5 66.5t-77.5 188.5zM392 240q0 45 -23 75t-72 30t-72 -30t-23 -75t23 -75t72 -30t72 30t23 75z" />
    <glyph glyph-name="ugrave" unicode="&#xf9;" horiz-adv-x="592" 
d="M371 480h170v-480h-150v55q-65 -70 -153 -70q-94 0 -143 55.5t-49 141.5v298h170v-275q0 -37 20 -56t53 -19q49 0 82 42v308zM10 529v165h500v-165h-500zM67 655v-88h31q47 0 47 44q0 19 -12.5 31.5t-34.5 12.5h-31zM82 582v57h16q31 0 31 -28q0 -29 -31 -29h-16z
M232 582h-46v21h46v16h-46v20h46v16h-62v-88h62v15zM335 567h16v88h-21l-26 -36l-26 36h-21v-88h17v66l30 -39l31 40v-67zM421 660q-19 0 -32 -13.5t-13 -33.5t11.5 -33.5t33.5 -13.5q23 0 35 13.5t12 33.5q0 21 -13.5 34t-33.5 13zM391 613q0 13 8 22.5t22 9.5
q15 0 23 -9.5t8 -22.5q0 -32 -31 -32q-14 0 -22 10t-8 22z" />
    <glyph glyph-name="uacute" unicode="&#xfa;" horiz-adv-x="592" 
d="M371 480h170v-480h-150v55q-65 -70 -153 -70q-94 0 -143 55.5t-49 141.5v298h170v-275q0 -37 20 -56t53 -19q49 0 82 42v308zM62 529v165h500v-165h-500zM119 655v-88h31q47 0 47 44q0 19 -12.5 31.5t-34.5 12.5h-31zM134 582v57h16q31 0 31 -28q0 -29 -31 -29h-16z
M284 582h-46v21h46v16h-46v20h46v16h-62v-88h62v15zM387 567h16v88h-21l-26 -36l-26 36h-21v-88h17v66l30 -39l31 40v-67zM473 660q-19 0 -32 -13.5t-13 -33.5t11.5 -33.5t33.5 -13.5q23 0 35 13.5t12 33.5q0 21 -13.5 34t-33.5 13zM443 613q0 13 8 22.5t22 9.5
q15 0 23 -9.5t8 -22.5q0 -32 -31 -32q-14 0 -22 10t-8 22z" />
    <glyph glyph-name="ucircumflex" unicode="&#xfb;" horiz-adv-x="592" 
d="M371 480h170v-480h-150v55q-65 -70 -153 -70q-94 0 -143 55.5t-49 141.5v298h170v-275q0 -37 20 -56t53 -19q49 0 82 42v308zM43 529v165h500v-165h-500zM100 655v-88h31q47 0 47 44q0 19 -12.5 31.5t-34.5 12.5h-31zM115 582v57h16q31 0 31 -28q0 -29 -31 -29h-16z
M265 582h-46v21h46v16h-46v20h46v16h-62v-88h62v15zM368 567h16v88h-21l-26 -36l-26 36h-21v-88h17v66l30 -39l31 40v-67zM454 660q-19 0 -32 -13.5t-13 -33.5t11.5 -33.5t33.5 -13.5q23 0 35 13.5t12 33.5q0 21 -13.5 34t-33.5 13zM424 613q0 13 8 22.5t22 9.5
q15 0 23 -9.5t8 -22.5q0 -32 -31 -32q-14 0 -22 10t-8 22z" />
    <glyph glyph-name="udieresis" unicode="&#xfc;" horiz-adv-x="592" 
d="M371 480h170v-480h-150v55q-65 -70 -153 -70q-94 0 -143 55.5t-49 141.5v298h170v-275q0 -37 20 -56t53 -19q49 0 82 42v308zM50 694h500v-165h-500v165zM107 655v-88h31q47 0 47 44q0 19 -12.5 31.5t-34.5 12.5h-31zM122 639h16q31 0 31 -28q0 -29 -31 -29h-16v57z
M272 582h-46v21h46v16h-46v20h46v16h-62v-88h62v15zM375 567h16v88h-21l-26 -36l-26 36h-21v-88h17v66l30 -39l31 40v-67zM461 660q-19 0 -32 -13.5t-13 -33.5t11.5 -33.5t33.5 -13.5q23 0 35 13.5t12 33.5q0 21 -13.5 34t-33.5 13zM431 613q0 13 8 22.5t22 9.5
q15 0 23 -9.5t8 -22.5q0 -32 -31 -32q-14 0 -22 10t-8 22z" />
    <glyph glyph-name="yacute" unicode="&#xfd;" horiz-adv-x="577" 
d="M297 194l98 286h175l-201 -530q-70 -183 -220 -183q-36 0 -88 13v140q34 -8 65 -8q66 0 100 76l-226 492h180zM47 529v165h500v-165h-500zM104 655v-88h31q47 0 47 44q0 19 -12.5 31.5t-34.5 12.5h-31zM119 582v57h16q31 0 31 -28q0 -29 -31 -29h-16zM269 582h-46v21h46
v16h-46v20h46v16h-62v-88h62v15zM372 567h16v88h-21l-26 -36l-26 36h-21v-88h17v66l30 -39l31 40v-67zM458 660q-19 0 -32 -13.5t-13 -33.5t11.5 -33.5t33.5 -13.5q23 0 35 13.5t12 33.5q0 21 -13.5 34t-33.5 13zM428 613q0 13 8 22.5t22 9.5q15 0 23 -9.5t8 -22.5
q0 -32 -31 -32q-14 0 -22 10t-8 22z" />
    <glyph glyph-name="thorn" unicode="&#xfe;" horiz-adv-x="623" 
d="M51 700h170v-270q60 65 148 65q76 0 129.5 -40t75.5 -95.5t22 -119.5q0 -104 -60 -179.5t-167 -75.5q-90 0 -148 60v-265h-170v920zM421 240q0 47 -26 81t-76 34q-34 0 -60 -18.5t-38 -46.5v-100q16 -26 42 -42.5t56 -17.5q48 -1 75 32t27 78z" />
    <glyph glyph-name="ydieresis" unicode="&#xff;" horiz-adv-x="577" 
d="M297 194l98 286h175l-201 -530q-70 -183 -220 -183q-36 0 -88 13v140q34 -8 65 -8q66 0 100 76l-226 492h180zM35 694h500v-165h-500v165zM92 655v-88h31q47 0 47 44q0 19 -12.5 31.5t-34.5 12.5h-31zM107 639h16q31 0 31 -28q0 -29 -31 -29h-16v57zM257 582h-46v21h46
v16h-46v20h46v16h-62v-88h62v15zM360 567h16v88h-21l-26 -36l-26 36h-21v-88h17v66l30 -39l31 40v-67zM446 660q-19 0 -32 -13.5t-13 -33.5t11.5 -33.5t33.5 -13.5q23 0 35 13.5t12 33.5q0 21 -13.5 34t-33.5 13zM416 613q0 13 8 22.5t22 9.5q15 0 23 -9.5t8 -22.5
q0 -32 -31 -32q-14 0 -22 10t-8 22z" />
    <glyph glyph-name="Amacron" unicode="&#x100;" horiz-adv-x="752" 
d="M191 0h-190l275 700h200l275 -700h-190l-40 110h-290zM358 462l-72 -202h180l-72 202q-12 34 -18 71q-6 -37 -18 -71zM135 749v165h500v-165h-500zM192 875v-88h31q47 0 47 44q0 19 -12.5 31.5t-34.5 12.5h-31zM207 802v57h16q31 0 31 -28q0 -29 -31 -29h-16zM357 802
h-46v21h46v16h-46v20h46v16h-62v-88h62v15zM460 787h16v88h-21l-26 -36l-26 36h-21v-88h17v66l30 -39l31 40v-67zM546 880q-19 0 -32 -13.5t-13 -33.5t11.5 -33.5t33.5 -13.5q23 0 35 13.5t12 33.5q0 21 -13.5 34t-33.5 13zM516 833q0 13 8 22.5t22 9.5q15 0 23 -9.5
t8 -22.5q0 -32 -31 -32q-14 0 -22 10t-8 22z" />
    <glyph glyph-name="amacron" unicode="&#x101;" horiz-adv-x="567" 
d="M505 137q0 -30 33 -30q10 0 19 3v-105q-38 -15 -86 -15q-80 0 -114 53q-74 -58 -167 -58q-71 0 -119 40t-48 108q0 43 19 75.5t50.5 49.5t66 25t72.5 8q54 0 104 -11v17q0 27 -25.5 43.5t-74.5 16.5q-76 0 -168 -37v143q98 32 187 32q123 0 187 -51t64 -173v-134z
M198 147q0 -20 16 -33.5t42 -13.5q45 0 79 25v65q-27 9 -61 9q-76 0 -76 -52zM21 539v165h500v-165h-500zM78 665v-88h31q47 0 47 44q0 19 -12.5 31.5t-34.5 12.5h-31zM93 592v57h16q31 0 31 -28q0 -29 -31 -29h-16zM243 592h-46v21h46v16h-46v20h46v16h-62v-88h62v15z
M346 577h16v88h-21l-26 -36l-26 36h-21v-88h17v66l30 -39l31 40v-67zM432 670q-19 0 -32 -13.5t-13 -33.5t11.5 -33.5t33.5 -13.5q23 0 35 13.5t12 33.5q0 21 -13.5 34t-33.5 13zM402 623q0 13 8 22.5t22 9.5q15 0 23 -9.5t8 -22.5q0 -32 -31 -32q-14 0 -22 10t-8 22z" />
    <glyph glyph-name="Abreve" unicode="&#x102;" horiz-adv-x="752" 
d="M191 0h-190l275 700h200l275 -700h-190l-40 110h-290zM358 462l-72 -202h180l-72 202q-12 34 -18 71q-6 -37 -18 -71zM115 754v165h500v-165h-500zM172 880v-88h31q47 0 47 44q0 19 -12.5 31.5t-34.5 12.5h-31zM187 807v57h16q31 0 31 -28q0 -29 -31 -29h-16zM337 807
h-46v21h46v16h-46v20h46v16h-62v-88h62v15zM440 792h16v88h-21l-26 -36l-26 36h-21v-88h17v66l30 -39l31 40v-67zM526 885q-19 0 -32 -13.5t-13 -33.5t11.5 -33.5t33.5 -13.5q23 0 35 13.5t12 33.5q0 21 -13.5 34t-33.5 13zM496 838q0 13 8 22.5t22 9.5q15 0 23 -9.5
t8 -22.5q0 -32 -31 -32q-14 0 -22 10t-8 22z" />
    <glyph glyph-name="abreve" unicode="&#x103;" horiz-adv-x="567" 
d="M505 137q0 -30 33 -30q10 0 19 3v-105q-38 -15 -86 -15q-80 0 -114 53q-74 -58 -167 -58q-71 0 -119 40t-48 108q0 43 19 75.5t50.5 49.5t66 25t72.5 8q54 0 104 -11v17q0 27 -25.5 43.5t-74.5 16.5q-76 0 -168 -37v143q98 32 187 32q123 0 187 -51t64 -173v-134z
M198 147q0 -20 16 -33.5t42 -13.5q45 0 79 25v65q-27 9 -61 9q-76 0 -76 -52zM1 544v165h500v-165h-500zM58 670v-88h31q47 0 47 44q0 19 -12.5 31.5t-34.5 12.5h-31zM73 597v57h16q31 0 31 -28q0 -29 -31 -29h-16zM223 597h-46v21h46v16h-46v20h46v16h-62v-88h62v15z
M326 582h16v88h-21l-26 -36l-26 36h-21v-88h17v66l30 -39l31 40v-67zM412 675q-19 0 -32 -13.5t-13 -33.5t11.5 -33.5t33.5 -13.5q23 0 35 13.5t12 33.5q0 21 -13.5 34t-33.5 13zM382 628q0 13 8 22.5t22 9.5q15 0 23 -9.5t8 -22.5q0 -32 -31 -32q-14 0 -22 10t-8 22z" />
    <glyph glyph-name="Aogonek" unicode="&#x104;" horiz-adv-x="752" 
d="M191 0h-190l275 700h200l275 -700h-190l-40 110h-290zM358 462l-72 -202h180l-72 202q-12 34 -18 71q-6 -37 -18 -71z" />
    <glyph glyph-name="aogonek" unicode="&#x105;" horiz-adv-x="567" 
d="M505 137q0 -30 33 -30q10 0 19 3v-105q-38 -15 -86 -15q-80 0 -114 53q-74 -58 -167 -58q-71 0 -119 40t-48 108q0 43 19 75.5t50.5 49.5t66 25t72.5 8q54 0 104 -11v17q0 27 -25.5 43.5t-74.5 16.5q-76 0 -168 -37v143q98 32 187 32q123 0 187 -51t64 -173v-134z
M198 147q0 -20 16 -33.5t42 -13.5q45 0 79 25v65q-27 9 -61 9q-76 0 -76 -52z" />
    <glyph glyph-name="Cacute" unicode="&#x106;" horiz-adv-x="655" 
d="M32 340q0 95 32 169t87 118t121 66t139 22q110 0 203 -44v-175q-68 57 -171 57q-92 0 -156.5 -53.5t-64.5 -159.5q0 -95 64 -143.5t155 -48.5q115 0 178 61v-180q-93 -44 -204 -44q-75 0 -141.5 21t-121.5 62.5t-87.5 111.5t-32.5 160zM173 749v165h500v-165h-500z
M230 875v-88h31q47 0 47 44q0 19 -12.5 31.5t-34.5 12.5h-31zM245 802v57h16q31 0 31 -28q0 -29 -31 -29h-16zM395 802h-46v21h46v16h-46v20h46v16h-62v-88h62v15zM498 787h16v88h-21l-26 -36l-26 36h-21v-88h17v66l30 -39l31 40v-67zM584 880q-19 0 -32 -13.5t-13 -33.5
t11.5 -33.5t33.5 -13.5q23 0 35 13.5t12 33.5q0 21 -13.5 34t-33.5 13zM554 833q0 13 8 22.5t22 9.5q15 0 23 -9.5t8 -22.5q0 -32 -31 -32q-14 0 -22 10t-8 22z" />
    <glyph glyph-name="cacute" unicode="&#x107;" horiz-adv-x="490" 
d="M27 230q0 132 81.5 199t195.5 67q79 0 148 -33v-145q-57 33 -122 33q-56 0 -92 -27t-36 -84q0 -54 36 -82t89 -28q74 0 130 32v-145q-77 -32 -165 -32q-110 0 -187.5 62.5t-77.5 182.5zM54 529v165h500v-165h-500zM111 655v-88h31q47 0 47 44q0 19 -12.5 31.5t-34.5 12.5
h-31zM126 582v57h16q31 0 31 -28q0 -29 -31 -29h-16zM276 582h-46v21h46v16h-46v20h46v16h-62v-88h62v15zM379 567h16v88h-21l-26 -36l-26 36h-21v-88h17v66l30 -39l31 40v-67zM465 660q-19 0 -32 -13.5t-13 -33.5t11.5 -33.5t33.5 -13.5q23 0 35 13.5t12 33.5
q0 21 -13.5 34t-33.5 13zM435 613q0 13 8 22.5t22 9.5q15 0 23 -9.5t8 -22.5q0 -32 -31 -32q-14 0 -22 10t-8 22z" />
    <glyph glyph-name="Cdotaccent" unicode="&#x10a;" horiz-adv-x="655" 
d="M32 340q0 95 32 169t87 118t121 66t139 22q110 0 203 -44v-175q-68 57 -171 57q-92 0 -156.5 -53.5t-64.5 -159.5q0 -95 64 -143.5t155 -48.5q115 0 178 61v-180q-93 -44 -204 -44q-75 0 -141.5 21t-121.5 62.5t-87.5 111.5t-32.5 160zM153 744v165h500v-165h-500z
M210 870v-88h31q47 0 47 44q0 19 -12.5 31.5t-34.5 12.5h-31zM225 797v57h16q31 0 31 -28q0 -29 -31 -29h-16zM375 797h-46v21h46v16h-46v20h46v16h-62v-88h62v15zM478 782h16v88h-21l-26 -36l-26 36h-21v-88h17v66l30 -39l31 40v-67zM564 875q-19 0 -32 -13.5t-13 -33.5
t11.5 -33.5t33.5 -13.5q23 0 35 13.5t12 33.5q0 21 -13.5 34t-33.5 13zM534 828q0 13 8 22.5t22 9.5q15 0 23 -9.5t8 -22.5q0 -32 -31 -32q-14 0 -22 10t-8 22z" />
    <glyph glyph-name="cdotaccent" unicode="&#x10b;" horiz-adv-x="490" 
d="M27 230q0 132 81.5 199t195.5 67q79 0 148 -33v-145q-57 33 -122 33q-56 0 -92 -27t-36 -84q0 -54 36 -82t89 -28q74 0 130 32v-145q-77 -32 -165 -32q-110 0 -187.5 62.5t-77.5 182.5zM34 524v165h500v-165h-500zM91 650v-88h31q47 0 47 44q0 19 -12.5 31.5t-34.5 12.5
h-31zM106 577v57h16q31 0 31 -28q0 -29 -31 -29h-16zM256 577h-46v21h46v16h-46v20h46v16h-62v-88h62v15zM359 562h16v88h-21l-26 -36l-26 36h-21v-88h17v66l30 -39l31 40v-67zM445 655q-19 0 -32 -13.5t-13 -33.5t11.5 -33.5t33.5 -13.5q23 0 35 13.5t12 33.5
q0 21 -13.5 34t-33.5 13zM415 608q0 13 8 22.5t22 9.5q15 0 23 -9.5t8 -22.5q0 -32 -31 -32q-14 0 -22 10t-8 22z" />
    <glyph glyph-name="Ccaron" unicode="&#x10c;" horiz-adv-x="655" 
d="M32 340q0 95 32 169t87 118t121 66t139 22q110 0 203 -44v-175q-68 57 -171 57q-92 0 -156.5 -53.5t-64.5 -159.5q0 -95 64 -143.5t155 -48.5q115 0 178 61v-180q-93 -44 -204 -44q-75 0 -141.5 21t-121.5 62.5t-87.5 111.5t-32.5 160zM150 749v165h500v-165h-500z
M207 875v-88h31q47 0 47 44q0 19 -12.5 31.5t-34.5 12.5h-31zM222 802v57h16q31 0 31 -28q0 -29 -31 -29h-16zM372 802h-46v21h46v16h-46v20h46v16h-62v-88h62v15zM475 787h16v88h-21l-26 -36l-26 36h-21v-88h17v66l30 -39l31 40v-67zM561 880q-19 0 -32 -13.5t-13 -33.5
t11.5 -33.5t33.5 -13.5q23 0 35 13.5t12 33.5q0 21 -13.5 34t-33.5 13zM531 833q0 13 8 22.5t22 9.5q15 0 23 -9.5t8 -22.5q0 -32 -31 -32q-14 0 -22 10t-8 22z" />
    <glyph glyph-name="ccaron" unicode="&#x10d;" horiz-adv-x="490" 
d="M27 230q0 132 81.5 199t195.5 67q79 0 148 -33v-145q-57 33 -122 33q-56 0 -92 -27t-36 -84q0 -54 36 -82t89 -28q74 0 130 32v-145q-77 -32 -165 -32q-110 0 -187.5 62.5t-77.5 182.5zM31 529v165h500v-165h-500zM88 655v-88h31q47 0 47 44q0 19 -12.5 31.5t-34.5 12.5
h-31zM103 582v57h16q31 0 31 -28q0 -29 -31 -29h-16zM253 582h-46v21h46v16h-46v20h46v16h-62v-88h62v15zM356 567h16v88h-21l-26 -36l-26 36h-21v-88h17v66l30 -39l31 40v-67zM442 660q-19 0 -32 -13.5t-13 -33.5t11.5 -33.5t33.5 -13.5q23 0 35 13.5t12 33.5
q0 21 -13.5 34t-33.5 13zM412 613q0 13 8 22.5t22 9.5q15 0 23 -9.5t8 -22.5q0 -32 -31 -32q-14 0 -22 10t-8 22z" />
    <glyph glyph-name="Dcaron" unicode="&#x10e;" horiz-adv-x="744" 
d="M66 700h279q181 0 273.5 -95t92.5 -255t-92.5 -255t-273.5 -95h-279v700zM521 350q0 190 -176 190h-94v-380h94q176 0 176 190zM89 749v165h500v-165h-500zM146 875v-88h31q47 0 47 44q0 19 -12.5 31.5t-34.5 12.5h-31zM161 802v57h16q31 0 31 -28q0 -29 -31 -29h-16z
M311 802h-46v21h46v16h-46v20h46v16h-62v-88h62v15zM414 787h16v88h-21l-26 -36l-26 36h-21v-88h17v66l30 -39l31 40v-67zM500 880q-19 0 -32 -13.5t-13 -33.5t11.5 -33.5t33.5 -13.5q23 0 35 13.5t12 33.5q0 21 -13.5 34t-33.5 13zM470 833q0 13 8 22.5t22 9.5
q15 0 23 -9.5t8 -22.5q0 -32 -31 -32q-14 0 -22 10t-8 22z" />
    <glyph glyph-name="dcaron" unicode="&#x10f;" horiz-adv-x="623" 
d="M402 700h170v-700h-150v65q-20 -34 -61.5 -57t-101.5 -23q-58 0 -104 22t-73 59t-41 81.5t-14 92.5t14 92.5t41 81.5t73 59t104 22q91 0 143 -54v259zM402 295q-12 25 -38 42.5t-59 17.5q-50 0 -76.5 -34t-26.5 -81t26.5 -81t76.5 -34q33 0 59 17.5t38 42.5v110z" />
    <glyph glyph-name="Dcroat" unicode="&#x110;" horiz-adv-x="760" 
d="M82 700h279q181 0 273.5 -95t92.5 -255t-92.5 -255t-273.5 -95h-279v700zM267 160h94q176 0 176 190t-176 190h-94v-380z" />
    <glyph glyph-name="dcroat" unicode="&#x111;" horiz-adv-x="623" 
d="M572 638h59v-100h-59v-538h-150v65q-20 -34 -61.5 -57t-101.5 -23q-58 0 -104 22t-73 59t-41 81.5t-14 92.5t14 92.5t41 81.5t73 59t104 22q91 0 143 -54v97h-121v100h121v62h170v-62zM305 125q33 0 59 17.5t38 42.5v110q-12 25 -38 42.5t-59 17.5q-50 0 -76.5 -34
t-26.5 -81t26.5 -81t76.5 -34z" />
    <glyph glyph-name="Emacron" unicode="&#x112;" horiz-adv-x="617" 
d="M66 700h504v-160h-319v-107h289v-159h-289v-114h325v-160h-510v700zM87 749v165h500v-165h-500zM144 875v-88h31q47 0 47 44q0 19 -12.5 31.5t-34.5 12.5h-31zM159 802v57h16q31 0 31 -28q0 -29 -31 -29h-16zM309 802h-46v21h46v16h-46v20h46v16h-62v-88h62v15zM412 787
h16v88h-21l-26 -36l-26 36h-21v-88h17v66l30 -39l31 40v-67zM498 880q-19 0 -32 -13.5t-13 -33.5t11.5 -33.5t33.5 -13.5q23 0 35 13.5t12 33.5q0 21 -13.5 34t-33.5 13zM468 833q0 13 8 22.5t22 9.5q15 0 23 -9.5t8 -22.5q0 -32 -31 -32q-14 0 -22 10t-8 22z" />
    <glyph glyph-name="emacron" unicode="&#x113;" horiz-adv-x="548" 
d="M27 240q0 67 24 118.5t63 80t81 42.5t84 14q60 0 107 -18t74.5 -48t44.5 -69.5t16.5 -83t-8.5 -87.5h-314q27 -74 153 -74q77 0 138 23v-126q-76 -27 -178 -27q-123 0 -204 67.5t-81 187.5zM358 291q5 24 -12.5 52.5t-62.5 28.5q-36 0 -61 -22t-25 -59h161zM37 529v165
h500v-165h-500zM94 655v-88h31q47 0 47 44q0 19 -12.5 31.5t-34.5 12.5h-31zM109 582v57h16q31 0 31 -28q0 -29 -31 -29h-16zM259 582h-46v21h46v16h-46v20h46v16h-62v-88h62v15zM362 567h16v88h-21l-26 -36l-26 36h-21v-88h17v66l30 -39l31 40v-67zM448 660
q-19 0 -32 -13.5t-13 -33.5t11.5 -33.5t33.5 -13.5q23 0 35 13.5t12 33.5q0 21 -13.5 34t-33.5 13zM418 613q0 13 8 22.5t22 9.5q15 0 23 -9.5t8 -22.5q0 -32 -31 -32q-14 0 -22 10t-8 22z" />
    <glyph glyph-name="Edotaccent" unicode="&#x116;" horiz-adv-x="617" 
d="M66 700h504v-160h-319v-107h289v-159h-289v-114h325v-160h-510v700zM74 744v165h500v-165h-500zM131 870v-88h31q47 0 47 44q0 19 -12.5 31.5t-34.5 12.5h-31zM146 797v57h16q31 0 31 -28q0 -29 -31 -29h-16zM296 797h-46v21h46v16h-46v20h46v16h-62v-88h62v15zM399 782
h16v88h-21l-26 -36l-26 36h-21v-88h17v66l30 -39l31 40v-67zM485 875q-19 0 -32 -13.5t-13 -33.5t11.5 -33.5t33.5 -13.5q23 0 35 13.5t12 33.5q0 21 -13.5 34t-33.5 13zM455 828q0 13 8 22.5t22 9.5q15 0 23 -9.5t8 -22.5q0 -32 -31 -32q-14 0 -22 10t-8 22z" />
    <glyph glyph-name="edotaccent" unicode="&#x117;" horiz-adv-x="548" 
d="M27 240q0 67 24 118.5t63 80t81 42.5t84 14q60 0 107 -18t74.5 -48t44.5 -69.5t16.5 -83t-8.5 -87.5h-314q27 -74 153 -74q77 0 138 23v-126q-76 -27 -178 -27q-123 0 -204 67.5t-81 187.5zM358 291q5 24 -12.5 52.5t-62.5 28.5q-36 0 -61 -22t-25 -59h161zM24 524v165
h500v-165h-500zM81 650v-88h31q47 0 47 44q0 19 -12.5 31.5t-34.5 12.5h-31zM96 577v57h16q31 0 31 -28q0 -29 -31 -29h-16zM246 577h-46v21h46v16h-46v20h46v16h-62v-88h62v15zM349 562h16v88h-21l-26 -36l-26 36h-21v-88h17v66l30 -39l31 40v-67zM435 655q-19 0 -32 -13.5
t-13 -33.5t11.5 -33.5t33.5 -13.5q23 0 35 13.5t12 33.5q0 21 -13.5 34t-33.5 13zM405 608q0 13 8 22.5t22 9.5q15 0 23 -9.5t8 -22.5q0 -32 -31 -32q-14 0 -22 10t-8 22z" />
    <glyph glyph-name="Eogonek" unicode="&#x118;" horiz-adv-x="617" 
d="M66 700h504v-160h-319v-107h289v-159h-289v-114h325v-160h-510v700z" />
    <glyph glyph-name="eogonek" unicode="&#x119;" horiz-adv-x="548" 
d="M27 240q0 67 24 118.5t63 80t81 42.5t84 14q60 0 107 -18t74.5 -48t44.5 -69.5t16.5 -83t-8.5 -87.5h-314q27 -74 153 -74q77 0 138 23v-126q-76 -27 -178 -27q-123 0 -204 67.5t-81 187.5zM358 291q5 24 -12.5 52.5t-62.5 28.5q-36 0 -61 -22t-25 -59h161z" />
    <glyph glyph-name="Ecaron" unicode="&#x11a;" horiz-adv-x="617" 
d="M66 700h504v-160h-319v-107h289v-159h-289v-114h325v-160h-510v700zM71 749v165h500v-165h-500zM128 875v-88h31q47 0 47 44q0 19 -12.5 31.5t-34.5 12.5h-31zM143 802v57h16q31 0 31 -28q0 -29 -31 -29h-16zM293 802h-46v21h46v16h-46v20h46v16h-62v-88h62v15zM396 787
h16v88h-21l-26 -36l-26 36h-21v-88h17v66l30 -39l31 40v-67zM482 880q-19 0 -32 -13.5t-13 -33.5t11.5 -33.5t33.5 -13.5q23 0 35 13.5t12 33.5q0 21 -13.5 34t-33.5 13zM452 833q0 13 8 22.5t22 9.5q15 0 23 -9.5t8 -22.5q0 -32 -31 -32q-14 0 -22 10t-8 22z" />
    <glyph glyph-name="ecaron" unicode="&#x11b;" horiz-adv-x="548" 
d="M27 240q0 67 24 118.5t63 80t81 42.5t84 14q60 0 107 -18t74.5 -48t44.5 -69.5t16.5 -83t-8.5 -87.5h-314q27 -74 153 -74q77 0 138 23v-126q-76 -27 -178 -27q-123 0 -204 67.5t-81 187.5zM358 291q5 24 -12.5 52.5t-62.5 28.5q-36 0 -61 -22t-25 -59h161zM21 529v165
h500v-165h-500zM78 655v-88h31q47 0 47 44q0 19 -12.5 31.5t-34.5 12.5h-31zM93 582v57h16q31 0 31 -28q0 -29 -31 -29h-16zM243 582h-46v21h46v16h-46v20h46v16h-62v-88h62v15zM346 567h16v88h-21l-26 -36l-26 36h-21v-88h17v66l30 -39l31 40v-67zM432 660q-19 0 -32 -13.5
t-13 -33.5t11.5 -33.5t33.5 -13.5q23 0 35 13.5t12 33.5q0 21 -13.5 34t-33.5 13zM402 613q0 13 8 22.5t22 9.5q15 0 23 -9.5t8 -22.5q0 -32 -31 -32q-14 0 -22 10t-8 22z" />
    <glyph glyph-name="Gbreve" unicode="&#x11e;" horiz-adv-x="699" 
d="M32 350q0 94 32.5 166.5t88 114.5t122.5 63t143 21q113 0 217 -44v-175q-81 56 -193 56q-93 0 -156.5 -50.5t-63.5 -151.5q0 -61 20.5 -104.5t54 -64t65.5 -29t67 -8.5q28 0 48 5v236h175v-353q-113 -47 -232 -47q-77 0 -145 22t-123 65t-87.5 114.5t-32.5 163.5z
M133 754v165h500v-165h-500zM190 880v-88h31q47 0 47 44q0 19 -12.5 31.5t-34.5 12.5h-31zM205 807v57h16q31 0 31 -28q0 -29 -31 -29h-16zM355 807h-46v21h46v16h-46v20h46v16h-62v-88h62v15zM458 792h16v88h-21l-26 -36l-26 36h-21v-88h17v66l30 -39l31 40v-67zM544 885
q-19 0 -32 -13.5t-13 -33.5t11.5 -33.5t33.5 -13.5q23 0 35 13.5t12 33.5q0 21 -13.5 34t-33.5 13zM514 838q0 13 8 22.5t22 9.5q15 0 23 -9.5t8 -22.5q0 -32 -31 -32q-14 0 -22 10t-8 22z" />
    <glyph glyph-name="gbreve" unicode="&#x11f;" horiz-adv-x="623" 
d="M27 240q0 48 14 92.5t41 81.5t73 59t104 22q60 0 101.5 -23t61.5 -57v65h150v-460q0 -69 -23.5 -120.5t-64.5 -79.5t-90 -41.5t-106 -13.5q-114 0 -207 45v145q81 -50 184 -50q137 0 137 105v29q-52 -54 -143 -54q-58 0 -104 22t-73 59t-41 81.5t-14 92.5zM402 295
q-12 25 -38 42.5t-59 17.5q-50 0 -76.5 -34t-26.5 -81t26.5 -81t76.5 -34q33 0 59 17.5t38 42.5v110zM17 534v165h500v-165h-500zM74 660v-88h31q47 0 47 44q0 19 -12.5 31.5t-34.5 12.5h-31zM89 587v57h16q31 0 31 -28q0 -29 -31 -29h-16zM239 587h-46v21h46v16h-46v20h46
v16h-62v-88h62v15zM342 572h16v88h-21l-26 -36l-26 36h-21v-88h17v66l30 -39l31 40v-67zM428 665q-19 0 -32 -13.5t-13 -33.5t11.5 -33.5t33.5 -13.5q23 0 35 13.5t12 33.5q0 21 -13.5 34t-33.5 13zM398 618q0 13 8 22.5t22 9.5q15 0 23 -9.5t8 -22.5q0 -32 -31 -32
q-14 0 -22 10t-8 22z" />
    <glyph glyph-name="Gdotaccent" unicode="&#x120;" horiz-adv-x="699" 
d="M32 350q0 94 32.5 166.5t88 114.5t122.5 63t143 21q113 0 217 -44v-175q-81 56 -193 56q-93 0 -156.5 -50.5t-63.5 -151.5q0 -61 20.5 -104.5t54 -64t65.5 -29t67 -8.5q28 0 48 5v236h175v-353q-113 -47 -232 -47q-77 0 -145 22t-123 65t-87.5 114.5t-32.5 163.5z
M140 744v165h500v-165h-500zM197 870v-88h31q47 0 47 44q0 19 -12.5 31.5t-34.5 12.5h-31zM212 797v57h16q31 0 31 -28q0 -29 -31 -29h-16zM362 797h-46v21h46v16h-46v20h46v16h-62v-88h62v15zM465 782h16v88h-21l-26 -36l-26 36h-21v-88h17v66l30 -39l31 40v-67zM551 875
q-19 0 -32 -13.5t-13 -33.5t11.5 -33.5t33.5 -13.5q23 0 35 13.5t12 33.5q0 21 -13.5 34t-33.5 13zM521 828q0 13 8 22.5t22 9.5q15 0 23 -9.5t8 -22.5q0 -32 -31 -32q-14 0 -22 10t-8 22z" />
    <glyph glyph-name="gdotaccent" unicode="&#x121;" horiz-adv-x="623" 
d="M27 240q0 48 14 92.5t41 81.5t73 59t104 22q60 0 101.5 -23t61.5 -57v65h150v-460q0 -69 -23.5 -120.5t-64.5 -79.5t-90 -41.5t-106 -13.5q-114 0 -207 45v145q81 -50 184 -50q137 0 137 105v29q-52 -54 -143 -54q-58 0 -104 22t-73 59t-41 81.5t-14 92.5zM402 295
q-12 25 -38 42.5t-59 17.5q-50 0 -76.5 -34t-26.5 -81t26.5 -81t76.5 -34q33 0 59 17.5t38 42.5v110zM24 524v165h500v-165h-500zM81 650v-88h31q47 0 47 44q0 19 -12.5 31.5t-34.5 12.5h-31zM96 577v57h16q31 0 31 -28q0 -29 -31 -29h-16zM246 577h-46v21h46v16h-46v20h46
v16h-62v-88h62v15zM349 562h16v88h-21l-26 -36l-26 36h-21v-88h17v66l30 -39l31 40v-67zM435 655q-19 0 -32 -13.5t-13 -33.5t11.5 -33.5t33.5 -13.5q23 0 35 13.5t12 33.5q0 21 -13.5 34t-33.5 13zM405 608q0 13 8 22.5t22 9.5q15 0 23 -9.5t8 -22.5q0 -32 -31 -32
q-14 0 -22 10t-8 22z" />
    <glyph glyph-name="Gcommaaccent" unicode="&#x122;" horiz-adv-x="699" 
d="M32 350q0 94 32.5 166.5t88 114.5t122.5 63t143 21q113 0 217 -44v-175q-81 56 -193 56q-93 0 -156.5 -50.5t-63.5 -151.5q0 -61 20.5 -104.5t54 -64t65.5 -29t67 -8.5q28 0 48 5v236h175v-353q-113 -47 -232 -47q-77 0 -145 22t-123 65t-87.5 114.5t-32.5 163.5z
M184 -46v-165h500v165h-500zM241 -173v88h31q22 0 34.5 -12.5t12.5 -31.5q0 -44 -47 -44h-31zM256 -101v-57h16q31 0 31 29q0 28 -31 28h-16zM360 -158h46v-15h-62v88h62v-16h-46v-20h46v-16h-46v-21zM525 -173h-16v67l-31 -40l-30 39v-66h-17v88h21l26 -36l26 36h21v-88z
M595 -80q20 0 33.5 -13t13.5 -34q0 -20 -12 -33.5t-35 -13.5q-22 0 -33.5 13.5t-11.5 33.5t13 33.5t32 13.5zM565 -127q0 -12 8 -22t22 -10q31 0 31 32q0 13 -8 22.5t-23 9.5q-14 0 -22 -9.5t-8 -22.5z" />
    <glyph glyph-name="gcommaaccent" unicode="&#x123;" horiz-adv-x="623" 
d="M27 240q0 48 14 92.5t41 81.5t73 59t104 22q60 0 101.5 -23t61.5 -57v65h150v-460q0 -69 -23.5 -120.5t-64.5 -79.5t-90 -41.5t-106 -13.5q-114 0 -207 45v145q81 -50 184 -50q137 0 137 105v29q-52 -54 -143 -54q-58 0 -104 22t-73 59t-41 81.5t-14 92.5zM402 295
q-12 25 -38 42.5t-59 17.5q-50 0 -76.5 -34t-26.5 -81t26.5 -81t76.5 -34q33 0 59 17.5t38 42.5v110z" />
    <glyph glyph-name="Hbar" unicode="&#x126;" horiz-adv-x="762" 
d="M511 700h185v-700h-185v267h-260v-267h-185v700h185v-268h260v268z" />
    <glyph glyph-name="hbar" unicode="&#x127;" horiz-adv-x="592" 
d="M221 444q57 51 133 51q94 0 143 -55.5t49 -141.5v-298h-170v275q0 37 -20 56t-53 19q-49 0 -82 -42v-308h-170v700h170v-256z" />
    <glyph glyph-name="Imacron" unicode="&#x12a;" horiz-adv-x="317" 
d="M66 700h185v-700h-185v700zM-82 749v165h500v-165h-500zM-25 875v-88h31q47 0 47 44q0 19 -12.5 31.5t-34.5 12.5h-31zM-10 802v57h16q31 0 31 -28q0 -29 -31 -29h-16zM140 802h-46v21h46v16h-46v20h46v16h-62v-88h62v15zM243 787h16v88h-21l-26 -36l-26 36h-21v-88h17
v66l30 -39l31 40v-67zM329 880q-19 0 -32 -13.5t-13 -33.5t11.5 -33.5t33.5 -13.5q23 0 35 13.5t12 33.5q0 21 -13.5 34t-33.5 13zM299 833q0 13 8 22.5t22 9.5q15 0 23 -9.5t8 -22.5q0 -32 -31 -32q-14 0 -22 10t-8 22z" />
    <glyph glyph-name="imacron" unicode="&#x12b;" horiz-adv-x="274" 
d="M7 668h260v-110h-260v110zM52 480h170v-480h-170v480z" />
    <glyph glyph-name="Iogonek" unicode="&#x12e;" horiz-adv-x="317" 
d="M66 700h185v-700h-185v700z" />
    <glyph glyph-name="iogonek" unicode="&#x12f;" horiz-adv-x="274" 
d="M222 0h-170v480h170v-480zM234 642q0 -47 -27.5 -70.5t-69.5 -23.5t-69.5 23.5t-27.5 70.5q0 46 28 69.5t69 23.5q42 0 69.5 -23.5t27.5 -69.5z" />
    <glyph glyph-name="Idotaccent" unicode="&#x130;" horiz-adv-x="317" 
d="M66 700h185v-700h-185v700zM-95 744v165h500v-165h-500zM-38 870v-88h31q47 0 47 44q0 19 -12.5 31.5t-34.5 12.5h-31zM-23 797v57h16q31 0 31 -28q0 -29 -31 -29h-16zM127 797h-46v21h46v16h-46v20h46v16h-62v-88h62v15zM230 782h16v88h-21l-26 -36l-26 36h-21v-88h17
v66l30 -39l31 40v-67zM316 875q-19 0 -32 -13.5t-13 -33.5t11.5 -33.5t33.5 -13.5q23 0 35 13.5t12 33.5q0 21 -13.5 34t-33.5 13zM286 828q0 13 8 22.5t22 9.5q15 0 23 -9.5t8 -22.5q0 -32 -31 -32q-14 0 -22 10t-8 22z" />
    <glyph glyph-name="dotlessi" unicode="&#x131;" horiz-adv-x="274" 
d="M52 480h170v-480h-170v480z" />
    <glyph glyph-name="IJ" unicode="&#x132;" horiz-adv-x="835" 
d="M66 700h185v-700h-185v700zM414 700h360v-482q0 -63 -21 -109.5t-58 -72.5t-82.5 -38.5t-99.5 -12.5q-90 0 -181 33v170q61 -33 134 -33q123 0 123 88v292h-175v165z" />
    <glyph glyph-name="ij" unicode="&#x133;" horiz-adv-x="548" 
d="M222 0h-170v480h170v-480zM234 642q0 -47 -27.5 -70.5t-69.5 -23.5t-69.5 23.5t-27.5 70.5q0 46 28 69.5t69 23.5q42 0 69.5 -23.5t27.5 -69.5zM496 -57q0 -92 -51.5 -135t-133.5 -43q-57 0 -92 15v142q24 -8 49 -8q26 0 42 15.5t16 45.5v505h170v-537zM508 642
q0 -47 -27.5 -70.5t-69.5 -23.5t-69.5 23.5t-27.5 70.5q0 46 28 69.5t69 23.5q42 0 69.5 -23.5t27.5 -69.5z" />
    <glyph glyph-name="Kcommaaccent" unicode="&#x136;" horiz-adv-x="706" 
d="M251 0h-185v700h185v-265h88l159 265h205l-220 -341l230 -359h-205l-170 270h-87v-270zM139 -36v-165h500v165h-500zM196 -163v88h31q22 0 34.5 -12.5t12.5 -31.5q0 -44 -47 -44h-31zM211 -91v-57h16q31 0 31 29q0 28 -31 28h-16zM315 -148h46v-15h-62v88h62v-16h-46v-20
h46v-16h-46v-21zM480 -163h-16v67l-31 -40l-30 39v-66h-17v88h21l26 -36l26 36h21v-88zM550 -70q20 0 33.5 -13t13.5 -34q0 -20 -12 -33.5t-35 -13.5q-22 0 -33.5 13.5t-11.5 33.5t13 33.5t32 13.5zM520 -117q0 -12 8 -22t22 -10q31 0 31 32q0 13 -8 22.5t-23 9.5
q-14 0 -22 -9.5t-8 -22.5z" />
    <glyph glyph-name="kcommaaccent" unicode="&#x137;" horiz-adv-x="561" 
d="M564 0h-189l-118 182h-36v-182h-170v700h170v-388h38l105 168h190l-156 -236zM69 -36v-165h500v165h-500zM126 -163v88h31q22 0 34.5 -12.5t12.5 -31.5q0 -44 -47 -44h-31zM141 -91v-57h16q31 0 31 29q0 28 -31 28h-16zM245 -148h46v-15h-62v88h62v-16h-46v-20h46v-16
h-46v-21zM410 -163h-16v67l-31 -40l-30 39v-66h-17v88h21l26 -36l26 36h21v-88zM480 -70q20 0 33.5 -13t13.5 -34q0 -20 -12 -33.5t-35 -13.5q-22 0 -33.5 13.5t-11.5 33.5t13 33.5t32 13.5zM450 -117q0 -12 8 -22t22 -10q31 0 31 32q0 13 -8 22.5t-23 9.5q-14 0 -22 -9.5
t-8 -22.5z" />
    <glyph glyph-name="Lacute" unicode="&#x139;" horiz-adv-x="584" 
d="M66 700h185v-535h320v-165h-505v700zM-80 749v165h500v-165h-500zM-23 875v-88h31q47 0 47 44q0 19 -12.5 31.5t-34.5 12.5h-31zM-8 802v57h16q31 0 31 -28q0 -29 -31 -29h-16zM142 802h-46v21h46v16h-46v20h46v16h-62v-88h62v15zM245 787h16v88h-21l-26 -36l-26 36h-21
v-88h17v66l30 -39l31 40v-67zM331 880q-19 0 -32 -13.5t-13 -33.5t11.5 -33.5t33.5 -13.5q23 0 35 13.5t12 33.5q0 21 -13.5 34t-33.5 13zM301 833q0 13 8 22.5t22 9.5q15 0 23 -9.5t8 -22.5q0 -32 -31 -32q-14 0 -22 10t-8 22z" />
    <glyph glyph-name="lacute" unicode="&#x13a;" horiz-adv-x="274" 
d="M52 730h170v-730h-170v730zM-95 769v165h500v-165h-500zM-38 895v-88h31q47 0 47 44q0 19 -12.5 31.5t-34.5 12.5h-31zM-23 822v57h16q31 0 31 -28q0 -29 -31 -29h-16zM127 822h-46v21h46v16h-46v20h46v16h-62v-88h62v15zM230 807h16v88h-21l-26 -36l-26 36h-21v-88h17
v66l30 -39l31 40v-67zM316 900q-19 0 -32 -13.5t-13 -33.5t11.5 -33.5t33.5 -13.5q23 0 35 13.5t12 33.5q0 21 -13.5 34t-33.5 13zM286 853q0 13 8 22.5t22 9.5q15 0 23 -9.5t8 -22.5q0 -32 -31 -32q-14 0 -22 10t-8 22z" />
    <glyph glyph-name="Lcommaaccent" unicode="&#x13b;" horiz-adv-x="584" 
d="M66 700h185v-535h320v-165h-505v700zM91 -36v-165h500v165h-500zM148 -163v88h31q22 0 34.5 -12.5t12.5 -31.5q0 -44 -47 -44h-31zM163 -91v-57h16q31 0 31 29q0 28 -31 28h-16zM267 -148h46v-15h-62v88h62v-16h-46v-20h46v-16h-46v-21zM432 -163h-16v67l-31 -40l-30 39
v-66h-17v88h21l26 -36l26 36h21v-88zM502 -70q20 0 33.5 -13t13.5 -34q0 -20 -12 -33.5t-35 -13.5q-22 0 -33.5 13.5t-11.5 33.5t13 33.5t32 13.5zM472 -117q0 -12 8 -22t22 -10q31 0 31 32q0 13 -8 22.5t-23 9.5q-14 0 -22 -9.5t-8 -22.5z" />
    <glyph glyph-name="lcommaaccent" unicode="&#x13c;" horiz-adv-x="274" 
d="M52 730h170v-730h-170v730zM-88 -36v-165h500v165h-500zM-31 -163v88h31q22 0 34.5 -12.5t12.5 -31.5q0 -44 -47 -44h-31zM-16 -91v-57h16q31 0 31 29q0 28 -31 28h-16zM88 -148h46v-15h-62v88h62v-16h-46v-20h46v-16h-46v-21zM253 -163h-16v67l-31 -40l-30 39v-66h-17
v88h21l26 -36l26 36h21v-88zM323 -70q20 0 33.5 -13t13.5 -34q0 -20 -12 -33.5t-35 -13.5q-22 0 -33.5 13.5t-11.5 33.5t13 33.5t32 13.5zM293 -117q0 -12 8 -22t22 -10q31 0 31 32q0 13 -8 22.5t-23 9.5q-14 0 -22 -9.5t-8 -22.5z" />
    <glyph glyph-name="Lcaron" unicode="&#x13d;" horiz-adv-x="585" 
d="M66 700h185v-535h320v-165h-505v700z" />
    <glyph glyph-name="lcaron" unicode="&#x13e;" horiz-adv-x="274" 
d="M52 730h170v-730h-170v730z" />
    <glyph glyph-name="Ldot" unicode="&#x13f;" horiz-adv-x="593" 
d="M505 408q0 -45 -26.5 -67.5t-66.5 -22.5t-66.5 22.5t-26.5 67.5q0 44 26.5 67t66.5 23t66.5 -23t26.5 -67zM66 700h185v-535h320v-165h-505v700z" />
    <glyph glyph-name="ldot" unicode="&#x140;" horiz-adv-x="268" 
d="M52 730h170v-730h-170v730z" />
    <glyph glyph-name="Lslash" unicode="&#x141;" horiz-adv-x="620" 
d="M607 0h-505v700h185v-535h320v-165z" />
    <glyph glyph-name="lslash" unicode="&#x142;" horiz-adv-x="378" 
d="M102 730h170v-730h-170v730z" />
    <glyph glyph-name="Nacute" unicode="&#x143;" horiz-adv-x="762" 
d="M251 0h-185v700h175l274 -402q-4 44 -4 116v286h185v-700h-175l-274 401q4 -44 4 -115v-286zM147 749v165h500v-165h-500zM204 875v-88h31q47 0 47 44q0 19 -12.5 31.5t-34.5 12.5h-31zM219 802v57h16q31 0 31 -28q0 -29 -31 -29h-16zM369 802h-46v21h46v16h-46v20h46v16
h-62v-88h62v15zM472 787h16v88h-21l-26 -36l-26 36h-21v-88h17v66l30 -39l31 40v-67zM558 880q-19 0 -32 -13.5t-13 -33.5t11.5 -33.5t33.5 -13.5q23 0 35 13.5t12 33.5q0 21 -13.5 34t-33.5 13zM528 833q0 13 8 22.5t22 9.5q15 0 23 -9.5t8 -22.5q0 -32 -31 -32
q-14 0 -22 10t-8 22z" />
    <glyph glyph-name="nacute" unicode="&#x144;" horiz-adv-x="592" 
d="M201 425q65 70 153 70q94 0 143 -55.5t49 -141.5v-298h-170v275q0 37 -20 56t-53 19q-49 0 -82 -42v-308h-170v480h150v-55zM52 529v165h500v-165h-500zM109 655v-88h31q47 0 47 44q0 19 -12.5 31.5t-34.5 12.5h-31zM124 582v57h16q31 0 31 -28q0 -29 -31 -29h-16z
M274 582h-46v21h46v16h-46v20h46v16h-62v-88h62v15zM377 567h16v88h-21l-26 -36l-26 36h-21v-88h17v66l30 -39l31 40v-67zM463 660q-19 0 -32 -13.5t-13 -33.5t11.5 -33.5t33.5 -13.5q23 0 35 13.5t12 33.5q0 21 -13.5 34t-33.5 13zM433 613q0 13 8 22.5t22 9.5
q15 0 23 -9.5t8 -22.5q0 -32 -31 -32q-14 0 -22 10t-8 22z" />
    <glyph glyph-name="Ncommaaccent" unicode="&#x145;" horiz-adv-x="762" 
d="M251 0h-185v700h175l274 -402q-4 44 -4 116v286h185v-700h-175l-274 401q4 -44 4 -115v-286zM171 -36v-165h500v165h-500zM228 -163v88h31q22 0 34.5 -12.5t12.5 -31.5q0 -44 -47 -44h-31zM243 -91v-57h16q31 0 31 29q0 28 -31 28h-16zM347 -148h46v-15h-62v88h62v-16
h-46v-20h46v-16h-46v-21zM512 -163h-16v67l-31 -40l-30 39v-66h-17v88h21l26 -36l26 36h21v-88zM582 -70q20 0 33.5 -13t13.5 -34q0 -20 -12 -33.5t-35 -13.5q-22 0 -33.5 13.5t-11.5 33.5t13 33.5t32 13.5zM552 -117q0 -12 8 -22t22 -10q31 0 31 32q0 13 -8 22.5t-23 9.5
q-14 0 -22 -9.5t-8 -22.5z" />
    <glyph glyph-name="ncommaaccent" unicode="&#x146;" horiz-adv-x="592" 
d="M201 425q65 70 153 70q94 0 143 -55.5t49 -141.5v-298h-170v275q0 37 -20 56t-53 19q-49 0 -82 -42v-308h-170v480h150v-55zM74 -36v-165h500v165h-500zM131 -163v88h31q22 0 34.5 -12.5t12.5 -31.5q0 -44 -47 -44h-31zM146 -91v-57h16q31 0 31 29q0 28 -31 28h-16z
M250 -148h46v-15h-62v88h62v-16h-46v-20h46v-16h-46v-21zM415 -163h-16v67l-31 -40l-30 39v-66h-17v88h21l26 -36l26 36h21v-88zM485 -70q20 0 33.5 -13t13.5 -34q0 -20 -12 -33.5t-35 -13.5q-22 0 -33.5 13.5t-11.5 33.5t13 33.5t32 13.5zM455 -117q0 -12 8 -22t22 -10
q31 0 31 32q0 13 -8 22.5t-23 9.5q-14 0 -22 -9.5t-8 -22.5z" />
    <glyph glyph-name="Ncaron" unicode="&#x147;" horiz-adv-x="762" 
d="M251 0h-185v700h175l274 -402q-4 44 -4 116v286h185v-700h-175l-274 401q4 -44 4 -115v-286zM124 749v165h500v-165h-500zM181 875v-88h31q47 0 47 44q0 19 -12.5 31.5t-34.5 12.5h-31zM196 802v57h16q31 0 31 -28q0 -29 -31 -29h-16zM346 802h-46v21h46v16h-46v20h46v16
h-62v-88h62v15zM449 787h16v88h-21l-26 -36l-26 36h-21v-88h17v66l30 -39l31 40v-67zM535 880q-19 0 -32 -13.5t-13 -33.5t11.5 -33.5t33.5 -13.5q23 0 35 13.5t12 33.5q0 21 -13.5 34t-33.5 13zM505 833q0 13 8 22.5t22 9.5q15 0 23 -9.5t8 -22.5q0 -32 -31 -32
q-14 0 -22 10t-8 22z" />
    <glyph glyph-name="ncaron" unicode="&#x148;" horiz-adv-x="592" 
d="M201 425q65 70 153 70q94 0 143 -55.5t49 -141.5v-298h-170v275q0 37 -20 56t-53 19q-49 0 -82 -42v-308h-170v480h150v-55zM29 529v165h500v-165h-500zM86 655v-88h31q47 0 47 44q0 19 -12.5 31.5t-34.5 12.5h-31zM101 582v57h16q31 0 31 -28q0 -29 -31 -29h-16z
M251 582h-46v21h46v16h-46v20h46v16h-62v-88h62v15zM354 567h16v88h-21l-26 -36l-26 36h-21v-88h17v66l30 -39l31 40v-67zM440 660q-19 0 -32 -13.5t-13 -33.5t11.5 -33.5t33.5 -13.5q23 0 35 13.5t12 33.5q0 21 -13.5 34t-33.5 13zM410 613q0 13 8 22.5t22 9.5
q15 0 23 -9.5t8 -22.5q0 -32 -31 -32q-14 0 -22 10t-8 22z" />
    <glyph glyph-name="Eng" unicode="&#x14a;" horiz-adv-x="762" 
d="M251 0h-185v700h175l274 -402q-4 44 -4 116v286h185v-700h-175l-274 401q4 -44 4 -115v-286z" />
    <glyph glyph-name="eng" unicode="&#x14b;" horiz-adv-x="592" 
d="M201 425q65 70 153 70q94 0 143 -55.5t49 -141.5v-298h-170v275q0 37 -20 56t-53 19q-49 0 -82 -42v-308h-170v480h150v-55z" />
    <glyph glyph-name="Omacron" unicode="&#x14c;" horiz-adv-x="812" 
d="M31 350q0 155 98 260t277 105t277 -105t98 -260t-98 -260t-277 -105t-277 105t-98 260zM591 350q0 87 -48.5 141t-136.5 54t-136.5 -54t-48.5 -141t48.5 -141t136.5 -54t136.5 54t48.5 141zM165 749v165h500v-165h-500zM222 875v-88h31q47 0 47 44q0 19 -12.5 31.5
t-34.5 12.5h-31zM237 802v57h16q31 0 31 -28q0 -29 -31 -29h-16zM387 802h-46v21h46v16h-46v20h46v16h-62v-88h62v15zM490 787h16v88h-21l-26 -36l-26 36h-21v-88h17v66l30 -39l31 40v-67zM576 880q-19 0 -32 -13.5t-13 -33.5t11.5 -33.5t33.5 -13.5q23 0 35 13.5t12 33.5
q0 21 -13.5 34t-33.5 13zM546 833q0 13 8 22.5t22 9.5q15 0 23 -9.5t8 -22.5q0 -32 -31 -32q-14 0 -22 10t-8 22z" />
    <glyph glyph-name="omacron" unicode="&#x14d;" horiz-adv-x="594" 
d="M27 240q0 122 77.5 188.5t192.5 66.5t192.5 -66.5t77.5 -188.5t-77.5 -188.5t-192.5 -66.5t-192.5 66.5t-77.5 188.5zM392 240q0 45 -23 75t-72 30t-72 -30t-23 -75t23 -75t72 -30t72 30t23 75zM57 519v165h500v-165h-500zM114 645v-88h31q47 0 47 44q0 19 -12.5 31.5
t-34.5 12.5h-31zM129 572v57h16q31 0 31 -28q0 -29 -31 -29h-16zM279 572h-46v21h46v16h-46v20h46v16h-62v-88h62v15zM382 557h16v88h-21l-26 -36l-26 36h-21v-88h17v66l30 -39l31 40v-67zM468 650q-19 0 -32 -13.5t-13 -33.5t11.5 -33.5t33.5 -13.5q23 0 35 13.5t12 33.5
q0 21 -13.5 34t-33.5 13zM438 603q0 13 8 22.5t22 9.5q15 0 23 -9.5t8 -22.5q0 -32 -31 -32q-14 0 -22 10t-8 22z" />
    <glyph glyph-name="Ohungarumlaut" unicode="&#x150;" horiz-adv-x="812" 
d="M31 350q0 155 98 260t277 105t277 -105t98 -260t-98 -260t-277 -105t-277 105t-98 260zM591 350q0 87 -48.5 141t-136.5 54t-136.5 -54t-48.5 -141t48.5 -141t136.5 -54t136.5 54t48.5 141zM160 749v165h500v-165h-500zM217 875v-88h31q47 0 47 44q0 19 -12.5 31.5
t-34.5 12.5h-31zM232 802v57h16q31 0 31 -28q0 -29 -31 -29h-16zM382 802h-46v21h46v16h-46v20h46v16h-62v-88h62v15zM485 787h16v88h-21l-26 -36l-26 36h-21v-88h17v66l30 -39l31 40v-67zM571 880q-19 0 -32 -13.5t-13 -33.5t11.5 -33.5t33.5 -13.5q23 0 35 13.5t12 33.5
q0 21 -13.5 34t-33.5 13zM541 833q0 13 8 22.5t22 9.5q15 0 23 -9.5t8 -22.5q0 -32 -31 -32q-14 0 -22 10t-8 22z" />
    <glyph glyph-name="ohungarumlaut" unicode="&#x151;" horiz-adv-x="594" 
d="M27 240q0 122 77.5 188.5t192.5 66.5t192.5 -66.5t77.5 -188.5t-77.5 -188.5t-192.5 -66.5t-192.5 66.5t-77.5 188.5zM392 240q0 45 -23 75t-72 30t-72 -30t-23 -75t23 -75t72 -30t72 30t23 75zM52 519v165h500v-165h-500zM109 645v-88h31q47 0 47 44q0 19 -12.5 31.5
t-34.5 12.5h-31zM124 572v57h16q31 0 31 -28q0 -29 -31 -29h-16zM274 572h-46v21h46v16h-46v20h46v16h-62v-88h62v15zM377 557h16v88h-21l-26 -36l-26 36h-21v-88h17v66l30 -39l31 40v-67zM463 650q-19 0 -32 -13.5t-13 -33.5t11.5 -33.5t33.5 -13.5q23 0 35 13.5t12 33.5
q0 21 -13.5 34t-33.5 13zM433 603q0 13 8 22.5t22 9.5q15 0 23 -9.5t8 -22.5q0 -32 -31 -32q-14 0 -22 10t-8 22z" />
    <glyph glyph-name="OE" unicode="&#x152;" horiz-adv-x="373" 
d="M303 0h-232v700h232v-700zM126 77h121v48q0 30 -18 45.5t-43 14.5q-25 0 -42.5 -15.5t-17.5 -44.5v-48zM148 99v26q-1 34 38 38q16 0 28 -9.5t12 -28.5v-26h-78zM226 310v-67h-28v65h-21v-65h-28v67h-23v-90h121v90h-21zM247 455v22h-121v-26l53 -39l-53 -37v-26h121v22
h-87l53 39v4l-53 41h87zM123 574q0 -26 18.5 -44t46.5 -18q26 0 44.5 16t18.5 46q0 29 -19 45t-45 17q-26 0 -45 -16t-19 -46zM188 534q-19 -1 -31.5 10t-11.5 30q0 20 13 30t30 10q41 -4 41 -40q0 -20 -12 -30t-29 -10z" />
    <glyph glyph-name="oe" unicode="&#x153;" horiz-adv-x="373" 
d="M303 0h-232v700h232v-700zM126 77h121v48q0 30 -18 45.5t-43 14.5q-25 0 -42.5 -15.5t-17.5 -44.5v-48zM148 99v26q-1 34 38 38q16 0 28 -9.5t12 -28.5v-26h-78zM226 310v-67h-28v65h-21v-65h-28v67h-23v-90h121v90h-21zM247 455v22h-121v-26l53 -39l-53 -37v-26h121v22
h-87l53 39v4l-53 41h87zM123 574q0 -26 18.5 -44t46.5 -18q26 0 44.5 16t18.5 46q0 29 -19 45t-45 17q-26 0 -45 -16t-19 -46zM188 534q-19 -1 -31.5 10t-11.5 30q0 20 13 30t30 10q41 -4 41 -40q0 -20 -12 -30t-29 -10z" />
    <glyph glyph-name="Racute" unicode="&#x154;" horiz-adv-x="711" 
d="M251 0h-185v700h295q57 0 105.5 -11.5t91 -37t66.5 -73.5t24 -114q0 -156 -134 -210l193 -254h-209l-167 228h-80v-228zM251 540v-162h118q41 0 65 21t24 60t-24 60t-65 21h-118zM107 749v165h500v-165h-500zM164 875v-88h31q47 0 47 44q0 19 -12.5 31.5t-34.5 12.5h-31z
M179 802v57h16q31 0 31 -28q0 -29 -31 -29h-16zM329 802h-46v21h46v16h-46v20h46v16h-62v-88h62v15zM432 787h16v88h-21l-26 -36l-26 36h-21v-88h17v66l30 -39l31 40v-67zM518 880q-19 0 -32 -13.5t-13 -33.5t11.5 -33.5t33.5 -13.5q23 0 35 13.5t12 33.5q0 21 -13.5 34
t-33.5 13zM488 833q0 13 8 22.5t22 9.5q15 0 23 -9.5t8 -22.5q0 -32 -31 -32q-14 0 -22 10t-8 22z" />
    <glyph glyph-name="racute" unicode="&#x155;" horiz-adv-x="404" 
d="M201 415q61 89 188 75v-165q-51 11 -98.5 -3.5t-69.5 -48.5v-273h-170v480h150v-65zM-18 529v165h500v-165h-500zM39 655v-88h31q47 0 47 44q0 19 -12.5 31.5t-34.5 12.5h-31zM54 582v57h16q31 0 31 -28q0 -29 -31 -29h-16zM204 582h-46v21h46v16h-46v20h46v16h-62v-88
h62v15zM307 567h16v88h-21l-26 -36l-26 36h-21v-88h17v66l30 -39l31 40v-67zM393 660q-19 0 -32 -13.5t-13 -33.5t11.5 -33.5t33.5 -13.5q23 0 35 13.5t12 33.5q0 21 -13.5 34t-33.5 13zM363 613q0 13 8 22.5t22 9.5q15 0 23 -9.5t8 -22.5q0 -32 -31 -32q-14 0 -22 10t-8 22
z" />
    <glyph glyph-name="Rcommaaccent" unicode="&#x156;" horiz-adv-x="711" 
d="M251 0h-185v700h295q57 0 105.5 -11.5t91 -37t66.5 -73.5t24 -114q0 -156 -134 -210l193 -254h-209l-167 228h-80v-228zM251 540v-162h118q41 0 65 21t24 60t-24 60t-65 21h-118zM137 -36v-165h500v165h-500zM194 -163v88h31q22 0 34.5 -12.5t12.5 -31.5q0 -44 -47 -44
h-31zM209 -91v-57h16q31 0 31 29q0 28 -31 28h-16zM313 -148h46v-15h-62v88h62v-16h-46v-20h46v-16h-46v-21zM478 -163h-16v67l-31 -40l-30 39v-66h-17v88h21l26 -36l26 36h21v-88zM548 -70q20 0 33.5 -13t13.5 -34q0 -20 -12 -33.5t-35 -13.5q-22 0 -33.5 13.5t-11.5 33.5
t13 33.5t32 13.5zM518 -117q0 -12 8 -22t22 -10q31 0 31 32q0 13 -8 22.5t-23 9.5q-14 0 -22 -9.5t-8 -22.5z" />
    <glyph glyph-name="rcommaaccent" unicode="&#x157;" horiz-adv-x="404" 
d="M201 415q61 89 188 75v-165q-51 11 -98.5 -3.5t-69.5 -48.5v-273h-170v480h150v-65zM-91 -36v-165h500v165h-500zM-34 -163v88h31q22 0 34.5 -12.5t12.5 -31.5q0 -44 -47 -44h-31zM-19 -91v-57h16q31 0 31 29q0 28 -31 28h-16zM85 -148h46v-15h-62v88h62v-16h-46v-20h46
v-16h-46v-21zM250 -163h-16v67l-31 -40l-30 39v-66h-17v88h21l26 -36l26 36h21v-88zM320 -70q20 0 33.5 -13t13.5 -34q0 -20 -12 -33.5t-35 -13.5q-22 0 -33.5 13.5t-11.5 33.5t13 33.5t32 13.5zM290 -117q0 -12 8 -22t22 -10q31 0 31 32q0 13 -8 22.5t-23 9.5
q-14 0 -22 -9.5t-8 -22.5z" />
    <glyph glyph-name="Rcaron" unicode="&#x158;" horiz-adv-x="711" 
d="M251 0h-185v700h295q57 0 105.5 -11.5t91 -37t66.5 -73.5t24 -114q0 -156 -134 -210l193 -254h-209l-167 228h-80v-228zM251 540v-162h118q41 0 65 21t24 60t-24 60t-65 21h-118zM84 749v165h500v-165h-500zM141 875v-88h31q47 0 47 44q0 19 -12.5 31.5t-34.5 12.5h-31z
M156 802v57h16q31 0 31 -28q0 -29 -31 -29h-16zM306 802h-46v21h46v16h-46v20h46v16h-62v-88h62v15zM409 787h16v88h-21l-26 -36l-26 36h-21v-88h17v66l30 -39l31 40v-67zM495 880q-19 0 -32 -13.5t-13 -33.5t11.5 -33.5t33.5 -13.5q23 0 35 13.5t12 33.5q0 21 -13.5 34
t-33.5 13zM465 833q0 13 8 22.5t22 9.5q15 0 23 -9.5t8 -22.5q0 -32 -31 -32q-14 0 -22 10t-8 22z" />
    <glyph glyph-name="rcaron" unicode="&#x159;" horiz-adv-x="404" 
d="M201 415q61 89 188 75v-165q-51 11 -98.5 -3.5t-69.5 -48.5v-273h-170v480h150v-65zM-41 529v165h500v-165h-500zM16 655v-88h31q47 0 47 44q0 19 -12.5 31.5t-34.5 12.5h-31zM31 582v57h16q31 0 31 -28q0 -29 -31 -29h-16zM181 582h-46v21h46v16h-46v20h46v16h-62v-88
h62v15zM284 567h16v88h-21l-26 -36l-26 36h-21v-88h17v66l30 -39l31 40v-67zM370 660q-19 0 -32 -13.5t-13 -33.5t11.5 -33.5t33.5 -13.5q23 0 35 13.5t12 33.5q0 21 -13.5 34t-33.5 13zM340 613q0 13 8 22.5t22 9.5q15 0 23 -9.5t8 -22.5q0 -32 -31 -32q-14 0 -22 10t-8 22
z" />
    <glyph glyph-name="Sacute" unicode="&#x15a;" horiz-adv-x="621" 
d="M41 509q0 100 74.5 153t189.5 53q137 0 235 -56v-170q-90 68 -220 66q-89 -1 -89 -45q0 -21 27 -37.5t67.5 -28t87.5 -31t87.5 -43.5t67.5 -68.5t27 -102.5q0 -214 -280 -214q-153 0 -269 64v175q115 -79 255 -79q56 0 80 10.5t24 36.5q0 27 -37.5 47t-91 37.5t-107 41.5
t-91 73t-37.5 118zM67 749v165h500v-165h-500zM124 875v-88h31q47 0 47 44q0 19 -12.5 31.5t-34.5 12.5h-31zM139 802v57h16q31 0 31 -28q0 -29 -31 -29h-16zM289 802h-46v21h46v16h-46v20h46v16h-62v-88h62v15zM392 787h16v88h-21l-26 -36l-26 36h-21v-88h17v66l30 -39
l31 40v-67zM478 880q-19 0 -32 -13.5t-13 -33.5t11.5 -33.5t33.5 -13.5q23 0 35 13.5t12 33.5q0 21 -13.5 34t-33.5 13zM448 833q0 13 8 22.5t22 9.5q15 0 23 -9.5t8 -22.5q0 -32 -31 -32q-14 0 -22 10t-8 22z" />
    <glyph glyph-name="sacute" unicode="&#x15b;" horiz-adv-x="486" 
d="M34 342q0 81 59 117t150 36q94 0 181 -41v-135q-32 22 -79.5 36.5t-89.5 14.5q-46 0 -46 -24q0 -18 26 -29.5t63 -21.5t74 -24.5t63 -47.5t26 -83q0 -155 -229 -155q-116 0 -193 44v135q77 -51 184 -51q63 0 63 24q0 17 -26 28.5t-63 21.5t-74 25.5t-63 48.5t-26 81z
M9 529v165h500v-165h-500zM66 655v-88h31q47 0 47 44q0 19 -12.5 31.5t-34.5 12.5h-31zM81 582v57h16q31 0 31 -28q0 -29 -31 -29h-16zM231 582h-46v21h46v16h-46v20h46v16h-62v-88h62v15zM334 567h16v88h-21l-26 -36l-26 36h-21v-88h17v66l30 -39l31 40v-67zM420 660
q-19 0 -32 -13.5t-13 -33.5t11.5 -33.5t33.5 -13.5q23 0 35 13.5t12 33.5q0 21 -13.5 34t-33.5 13zM390 613q0 13 8 22.5t22 9.5q15 0 23 -9.5t8 -22.5q0 -32 -31 -32q-14 0 -22 10t-8 22z" />
    <glyph glyph-name="Scedilla" unicode="&#x15e;" horiz-adv-x="621" 
d="M41 509q0 100 74.5 153t189.5 53q137 0 235 -56v-170q-90 68 -220 66q-89 -1 -89 -45q0 -21 27 -37.5t67.5 -28t87.5 -31t87.5 -43.5t67.5 -68.5t27 -102.5q0 -214 -280 -214q-153 0 -269 64v175q115 -79 255 -79q56 0 80 10.5t24 36.5q0 27 -37.5 47t-91 37.5t-107 41.5
t-91 73t-37.5 118z" />
    <glyph glyph-name="scedilla" unicode="&#x15f;" horiz-adv-x="486" 
d="M34 342q0 81 59 117t150 36q94 0 181 -41v-135q-32 22 -79.5 36.5t-89.5 14.5q-46 0 -46 -24q0 -18 26 -29.5t63 -21.5t74 -24.5t63 -47.5t26 -83q0 -155 -229 -155q-116 0 -193 44v135q77 -51 184 -51q63 0 63 24q0 17 -26 28.5t-63 21.5t-74 25.5t-63 48.5t-26 81z" />
    <glyph glyph-name="Scaron" unicode="&#x160;" horiz-adv-x="621" 
d="M41 509q0 100 74.5 153t189.5 53q137 0 235 -56v-170q-90 68 -220 66q-89 -1 -89 -45q0 -21 27 -37.5t67.5 -28t87.5 -31t87.5 -43.5t67.5 -68.5t27 -102.5q0 -214 -280 -214q-153 0 -269 64v175q115 -79 255 -79q56 0 80 10.5t24 36.5q0 27 -37.5 47t-91 37.5t-107 41.5
t-91 73t-37.5 118zM44 749v165h500v-165h-500zM101 875v-88h31q47 0 47 44q0 19 -12.5 31.5t-34.5 12.5h-31zM116 802v57h16q31 0 31 -28q0 -29 -31 -29h-16zM266 802h-46v21h46v16h-46v20h46v16h-62v-88h62v15zM369 787h16v88h-21l-26 -36l-26 36h-21v-88h17v66l30 -39
l31 40v-67zM455 880q-19 0 -32 -13.5t-13 -33.5t11.5 -33.5t33.5 -13.5q23 0 35 13.5t12 33.5q0 21 -13.5 34t-33.5 13zM425 833q0 13 8 22.5t22 9.5q15 0 23 -9.5t8 -22.5q0 -32 -31 -32q-14 0 -22 10t-8 22z" />
    <glyph glyph-name="scaron" unicode="&#x161;" horiz-adv-x="486" 
d="M34 342q0 81 59 117t150 36q94 0 181 -41v-135q-32 22 -79.5 36.5t-89.5 14.5q-46 0 -46 -24q0 -18 26 -29.5t63 -21.5t74 -24.5t63 -47.5t26 -83q0 -155 -229 -155q-116 0 -193 44v135q77 -51 184 -51q63 0 63 24q0 17 -26 28.5t-63 21.5t-74 25.5t-63 48.5t-26 81z
M-14 529v165h500v-165h-500zM43 655v-88h31q47 0 47 44q0 19 -12.5 31.5t-34.5 12.5h-31zM58 582v57h16q31 0 31 -28q0 -29 -31 -29h-16zM208 582h-46v21h46v16h-46v20h46v16h-62v-88h62v15zM311 567h16v88h-21l-26 -36l-26 36h-21v-88h17v66l30 -39l31 40v-67zM397 660
q-19 0 -32 -13.5t-13 -33.5t11.5 -33.5t33.5 -13.5q23 0 35 13.5t12 33.5q0 21 -13.5 34t-33.5 13zM367 613q0 13 8 22.5t22 9.5q15 0 23 -9.5t8 -22.5q0 -32 -31 -32q-14 0 -22 10t-8 22z" />
    <glyph glyph-name="Tcommaaccent" unicode="&#x162;" horiz-adv-x="606" 
d="M13 700h580v-165h-197v-535h-185v535h-198v165zM80 -36v-165h500v165h-500zM137 -163v88h31q22 0 34.5 -12.5t12.5 -31.5q0 -44 -47 -44h-31zM152 -91v-57h16q31 0 31 29q0 28 -31 28h-16zM256 -148h46v-15h-62v88h62v-16h-46v-20h46v-16h-46v-21zM421 -163h-16v67
l-31 -40l-30 39v-66h-17v88h21l26 -36l26 36h21v-88zM491 -70q20 0 33.5 -13t13.5 -34q0 -20 -12 -33.5t-35 -13.5q-22 0 -33.5 13.5t-11.5 33.5t13 33.5t32 13.5zM461 -117q0 -12 8 -22t22 -10q31 0 31 32q0 13 -8 22.5t-23 9.5q-14 0 -22 -9.5t-8 -22.5z" />
    <glyph glyph-name="tcommaaccent" unicode="&#x163;" horiz-adv-x="422" 
d="M89 615l170 40v-175h130v-140h-130v-156q0 -59 63 -59q42 0 77 12v-132q-58 -20 -130 -20q-79 0 -129.5 38.5t-50.5 126.5v190h-76v140h76v135zM26 -36v-165h500v165h-500zM83 -163v88h31q22 0 34.5 -12.5t12.5 -31.5q0 -44 -47 -44h-31zM98 -91v-57h16q31 0 31 29
q0 28 -31 28h-16zM202 -148h46v-15h-62v88h62v-16h-46v-20h46v-16h-46v-21zM367 -163h-16v67l-31 -40l-30 39v-66h-17v88h21l26 -36l26 36h21v-88zM437 -70q20 0 33.5 -13t13.5 -34q0 -20 -12 -33.5t-35 -13.5q-22 0 -33.5 13.5t-11.5 33.5t13 33.5t32 13.5zM407 -117
q0 -12 8 -22t22 -10q31 0 31 32q0 13 -8 22.5t-23 9.5q-14 0 -22 -9.5t-8 -22.5z" />
    <glyph glyph-name="Tcaron" unicode="&#x164;" horiz-adv-x="606" 
d="M13 700h580v-165h-197v-535h-185v535h-198v165zM46 749v165h500v-165h-500zM103 875v-88h31q47 0 47 44q0 19 -12.5 31.5t-34.5 12.5h-31zM118 802v57h16q31 0 31 -28q0 -29 -31 -29h-16zM268 802h-46v21h46v16h-46v20h46v16h-62v-88h62v15zM371 787h16v88h-21l-26 -36
l-26 36h-21v-88h17v66l30 -39l31 40v-67zM457 880q-19 0 -32 -13.5t-13 -33.5t11.5 -33.5t33.5 -13.5q23 0 35 13.5t12 33.5q0 21 -13.5 34t-33.5 13zM427 833q0 13 8 22.5t22 9.5q15 0 23 -9.5t8 -22.5q0 -32 -31 -32q-14 0 -22 10t-8 22z" />
    <glyph glyph-name="tcaron" unicode="&#x165;" horiz-adv-x="422" 
d="M89 615l170 40v-175h130v-140h-130v-156q0 -59 63 -59q42 0 77 12v-132q-58 -20 -130 -20q-79 0 -129.5 38.5t-50.5 126.5v190h-76v140h76v135z" />
    <glyph glyph-name="Tbar" unicode="&#x166;" horiz-adv-x="620" 
d="M403 0h-185v535h-198v165h580v-165h-197v-535z" />
    <glyph glyph-name="tbar" unicode="&#x167;" horiz-adv-x="423" 
d="M260 182q0 -59 63 -59q42 0 77 12v-130q-71 -20 -130 -20q-79 0 -129.5 38.5t-50.5 126.5v200h-76v130h76v135l170 40v-175h130v-130h-130v-168z" />
    <glyph glyph-name="Umacron" unicode="&#x16a;" horiz-adv-x="748" 
d="M504 700h185v-433q0 -76 -27 -132.5t-73 -88t-100 -46.5t-115 -15t-115 15t-100 46.5t-73 88t-27 132.5v433h185v-423q0 -127 130 -127t130 127v423zM133 749v165h500v-165h-500zM190 875v-88h31q47 0 47 44q0 19 -12.5 31.5t-34.5 12.5h-31zM205 802v57h16q31 0 31 -28
q0 -29 -31 -29h-16zM355 802h-46v21h46v16h-46v20h46v16h-62v-88h62v15zM458 787h16v88h-21l-26 -36l-26 36h-21v-88h17v66l30 -39l31 40v-67zM544 880q-19 0 -32 -13.5t-13 -33.5t11.5 -33.5t33.5 -13.5q23 0 35 13.5t12 33.5q0 21 -13.5 34t-33.5 13zM514 833q0 13 8 22.5
t22 9.5q15 0 23 -9.5t8 -22.5q0 -32 -31 -32q-14 0 -22 10t-8 22z" />
    <glyph glyph-name="umacron" unicode="&#x16b;" horiz-adv-x="592" 
d="M371 480h170v-480h-150v55q-65 -70 -153 -70q-94 0 -143 55.5t-49 141.5v298h170v-275q0 -37 20 -56t53 -19q49 0 82 42v308zM55 529v165h500v-165h-500zM112 655v-88h31q47 0 47 44q0 19 -12.5 31.5t-34.5 12.5h-31zM127 582v57h16q31 0 31 -28q0 -29 -31 -29h-16z
M277 582h-46v21h46v16h-46v20h46v16h-62v-88h62v15zM380 567h16v88h-21l-26 -36l-26 36h-21v-88h17v66l30 -39l31 40v-67zM466 660q-19 0 -32 -13.5t-13 -33.5t11.5 -33.5t33.5 -13.5q23 0 35 13.5t12 33.5q0 21 -13.5 34t-33.5 13zM436 613q0 13 8 22.5t22 9.5
q15 0 23 -9.5t8 -22.5q0 -32 -31 -32q-14 0 -22 10t-8 22z" />
    <glyph glyph-name="Uring" unicode="&#x16e;" horiz-adv-x="748" 
d="M504 700h185v-433q0 -76 -27 -132.5t-73 -88t-100 -46.5t-115 -15t-115 15t-100 46.5t-73 88t-27 132.5v433h185v-423q0 -127 130 -127t130 127v423zM138 749v165h500v-165h-500zM195 875v-88h31q47 0 47 44q0 19 -12.5 31.5t-34.5 12.5h-31zM210 802v57h16q31 0 31 -28
q0 -29 -31 -29h-16zM360 802h-46v21h46v16h-46v20h46v16h-62v-88h62v15zM463 787h16v88h-21l-26 -36l-26 36h-21v-88h17v66l30 -39l31 40v-67zM549 880q-19 0 -32 -13.5t-13 -33.5t11.5 -33.5t33.5 -13.5q23 0 35 13.5t12 33.5q0 21 -13.5 34t-33.5 13zM519 833q0 13 8 22.5
t22 9.5q15 0 23 -9.5t8 -22.5q0 -32 -31 -32q-14 0 -22 10t-8 22z" />
    <glyph glyph-name="uring" unicode="&#x16f;" horiz-adv-x="592" 
d="M371 480h170v-480h-150v55q-65 -70 -153 -70q-94 0 -143 55.5t-49 141.5v298h170v-275q0 -37 20 -56t53 -19q49 0 82 42v308zM60 529v165h500v-165h-500zM117 655v-88h31q47 0 47 44q0 19 -12.5 31.5t-34.5 12.5h-31zM132 582v57h16q31 0 31 -28q0 -29 -31 -29h-16z
M282 582h-46v21h46v16h-46v20h46v16h-62v-88h62v15zM385 567h16v88h-21l-26 -36l-26 36h-21v-88h17v66l30 -39l31 40v-67zM471 660q-19 0 -32 -13.5t-13 -33.5t11.5 -33.5t33.5 -13.5q23 0 35 13.5t12 33.5q0 21 -13.5 34t-33.5 13zM441 613q0 13 8 22.5t22 9.5
q15 0 23 -9.5t8 -22.5q0 -32 -31 -32q-14 0 -22 10t-8 22z" />
    <glyph glyph-name="Uhungarumlaut" unicode="&#x170;" horiz-adv-x="748" 
d="M504 700h185v-433q0 -76 -27 -132.5t-73 -88t-100 -46.5t-115 -15t-115 15t-100 46.5t-73 88t-27 132.5v433h185v-423q0 -127 130 -127t130 127v423zM128 749v165h500v-165h-500zM185 875v-88h31q47 0 47 44q0 19 -12.5 31.5t-34.5 12.5h-31zM200 802v57h16q31 0 31 -28
q0 -29 -31 -29h-16zM350 802h-46v21h46v16h-46v20h46v16h-62v-88h62v15zM453 787h16v88h-21l-26 -36l-26 36h-21v-88h17v66l30 -39l31 40v-67zM539 880q-19 0 -32 -13.5t-13 -33.5t11.5 -33.5t33.5 -13.5q23 0 35 13.5t12 33.5q0 21 -13.5 34t-33.5 13zM509 833q0 13 8 22.5
t22 9.5q15 0 23 -9.5t8 -22.5q0 -32 -31 -32q-14 0 -22 10t-8 22z" />
    <glyph glyph-name="uhungarumlaut" unicode="&#x171;" horiz-adv-x="592" 
d="M371 480h170v-480h-150v55q-65 -70 -153 -70q-94 0 -143 55.5t-49 141.5v298h170v-275q0 -37 20 -56t53 -19q49 0 82 42v308zM50 529v165h500v-165h-500zM107 655v-88h31q47 0 47 44q0 19 -12.5 31.5t-34.5 12.5h-31zM122 582v57h16q31 0 31 -28q0 -29 -31 -29h-16z
M272 582h-46v21h46v16h-46v20h46v16h-62v-88h62v15zM375 567h16v88h-21l-26 -36l-26 36h-21v-88h17v66l30 -39l31 40v-67zM461 660q-19 0 -32 -13.5t-13 -33.5t11.5 -33.5t33.5 -13.5q23 0 35 13.5t12 33.5q0 21 -13.5 34t-33.5 13zM431 613q0 13 8 22.5t22 9.5
q15 0 23 -9.5t8 -22.5q0 -32 -31 -32q-14 0 -22 10t-8 22z" />
    <glyph glyph-name="Uogonek" unicode="&#x172;" horiz-adv-x="748" 
d="M504 700h185v-433q0 -76 -27 -132.5t-73 -88t-100 -46.5t-115 -15t-115 15t-100 46.5t-73 88t-27 132.5v433h185v-423q0 -127 130 -127t130 127v423z" />
    <glyph glyph-name="uogonek" unicode="&#x173;" horiz-adv-x="592" 
d="M371 480h170v-480h-150v55q-65 -70 -153 -70q-94 0 -143 55.5t-49 141.5v298h170v-275q0 -37 20 -56t53 -19q49 0 82 42v308z" />
    <glyph glyph-name="Wcircumflex" unicode="&#x174;" horiz-adv-x="1078" 
d="M872 700h200l-214 -700h-200l-119 433l-119 -433h-200l-214 700h200l119 -492l133 492h162l133 -492zM286 749v165h500v-165h-500zM343 875v-88h31q47 0 47 44q0 19 -12.5 31.5t-34.5 12.5h-31zM358 802v57h16q31 0 31 -28q0 -29 -31 -29h-16zM508 802h-46v21h46v16h-46
v20h46v16h-62v-88h62v15zM611 787h16v88h-21l-26 -36l-26 36h-21v-88h17v66l30 -39l31 40v-67zM697 880q-19 0 -32 -13.5t-13 -33.5t11.5 -33.5t33.5 -13.5q23 0 35 13.5t12 33.5q0 21 -13.5 34t-33.5 13zM667 833q0 13 8 22.5t22 9.5q15 0 23 -9.5t8 -22.5q0 -32 -31 -32
q-14 0 -22 10t-8 22z" />
    <glyph glyph-name="wcircumflex" unicode="&#x175;" horiz-adv-x="828" 
d="M637 480h182l-149 -480h-180l-76 281l-76 -281h-180l-149 480h182l68 -295l73 295h164l73 -295zM159 529v165h500v-165h-500zM216 655v-88h31q47 0 47 44q0 19 -12.5 31.5t-34.5 12.5h-31zM231 582v57h16q31 0 31 -28q0 -29 -31 -29h-16zM381 582h-46v21h46v16h-46v20h46
v16h-62v-88h62v15zM484 567h16v88h-21l-26 -36l-26 36h-21v-88h17v66l30 -39l31 40v-67zM570 660q-19 0 -32 -13.5t-13 -33.5t11.5 -33.5t33.5 -13.5q23 0 35 13.5t12 33.5q0 21 -13.5 34t-33.5 13zM540 613q0 13 8 22.5t22 9.5q15 0 23 -9.5t8 -22.5q0 -32 -31 -32
q-14 0 -22 10t-8 22z" />
    <glyph glyph-name="Ycircumflex" unicode="&#x176;" horiz-adv-x="728" 
d="M456 0h-184v239l-273 461h210l155 -289l155 289h210l-273 -461v-239zM109 749v165h500v-165h-500zM166 875v-88h31q47 0 47 44q0 19 -12.5 31.5t-34.5 12.5h-31zM181 802v57h16q31 0 31 -28q0 -29 -31 -29h-16zM331 802h-46v21h46v16h-46v20h46v16h-62v-88h62v15z
M434 787h16v88h-21l-26 -36l-26 36h-21v-88h17v66l30 -39l31 40v-67zM520 880q-19 0 -32 -13.5t-13 -33.5t11.5 -33.5t33.5 -13.5q23 0 35 13.5t12 33.5q0 21 -13.5 34t-33.5 13zM490 833q0 13 8 22.5t22 9.5q15 0 23 -9.5t8 -22.5q0 -32 -31 -32q-14 0 -22 10t-8 22z" />
    <glyph glyph-name="ycircumflex" unicode="&#x177;" horiz-adv-x="577" 
d="M297 194l98 286h175l-201 -530q-70 -183 -220 -183q-36 0 -88 13v140q34 -8 65 -8q66 0 100 76l-226 492h180zM28 529v165h500v-165h-500zM85 655v-88h31q47 0 47 44q0 19 -12.5 31.5t-34.5 12.5h-31zM100 582v57h16q31 0 31 -28q0 -29 -31 -29h-16zM250 582h-46v21h46
v16h-46v20h46v16h-62v-88h62v15zM353 567h16v88h-21l-26 -36l-26 36h-21v-88h17v66l30 -39l31 40v-67zM439 660q-19 0 -32 -13.5t-13 -33.5t11.5 -33.5t33.5 -13.5q23 0 35 13.5t12 33.5q0 21 -13.5 34t-33.5 13zM409 613q0 13 8 22.5t22 9.5q15 0 23 -9.5t8 -22.5
q0 -32 -31 -32q-14 0 -22 10t-8 22z" />
    <glyph glyph-name="Ydieresis" unicode="&#x178;" horiz-adv-x="728" 
d="M456 0h-184v239l-273 461h210l155 -289l155 289h210l-273 -461v-239zM116 914h500v-165h-500v165zM173 875v-88h31q47 0 47 44q0 19 -12.5 31.5t-34.5 12.5h-31zM188 859h16q31 0 31 -28q0 -29 -31 -29h-16v57zM338 802h-46v21h46v16h-46v20h46v16h-62v-88h62v15z
M441 787h16v88h-21l-26 -36l-26 36h-21v-88h17v66l30 -39l31 40v-67zM527 880q-19 0 -32 -13.5t-13 -33.5t11.5 -33.5t33.5 -13.5q23 0 35 13.5t12 33.5q0 21 -13.5 34t-33.5 13zM497 833q0 13 8 22.5t22 9.5q15 0 23 -9.5t8 -22.5q0 -32 -31 -32q-14 0 -22 10t-8 22z" />
    <glyph glyph-name="Zacute" unicode="&#x179;" horiz-adv-x="627" 
d="M593 0h-563v125l304 410h-286v165h536v-125l-305 -410h314v-165zM84 749v165h500v-165h-500zM141 875v-88h31q47 0 47 44q0 19 -12.5 31.5t-34.5 12.5h-31zM156 802v57h16q31 0 31 -28q0 -29 -31 -29h-16zM306 802h-46v21h46v16h-46v20h46v16h-62v-88h62v15zM409 787h16
v88h-21l-26 -36l-26 36h-21v-88h17v66l30 -39l31 40v-67zM495 880q-19 0 -32 -13.5t-13 -33.5t11.5 -33.5t33.5 -13.5q23 0 35 13.5t12 33.5q0 21 -13.5 34t-33.5 13zM465 833q0 13 8 22.5t22 9.5q15 0 23 -9.5t8 -22.5q0 -32 -31 -32q-14 0 -22 10t-8 22z" />
    <glyph glyph-name="zacute" unicode="&#x17a;" horiz-adv-x="492" 
d="M43 480h405v-100l-194 -240h208v-140h-433v100l195 240h-181v140zM20 529v165h500v-165h-500zM77 655v-88h31q47 0 47 44q0 19 -12.5 31.5t-34.5 12.5h-31zM92 582v57h16q31 0 31 -28q0 -29 -31 -29h-16zM242 582h-46v21h46v16h-46v20h46v16h-62v-88h62v15zM345 567h16
v88h-21l-26 -36l-26 36h-21v-88h17v66l30 -39l31 40v-67zM431 660q-19 0 -32 -13.5t-13 -33.5t11.5 -33.5t33.5 -13.5q23 0 35 13.5t12 33.5q0 21 -13.5 34t-33.5 13zM401 613q0 13 8 22.5t22 9.5q15 0 23 -9.5t8 -22.5q0 -32 -31 -32q-14 0 -22 10t-8 22z" />
    <glyph glyph-name="Zdotaccent" unicode="&#x17b;" horiz-adv-x="627" 
d="M593 0h-563v125l304 410h-286v165h536v-125l-305 -410h314v-165zM64 744v165h500v-165h-500zM121 870v-88h31q47 0 47 44q0 19 -12.5 31.5t-34.5 12.5h-31zM136 797v57h16q31 0 31 -28q0 -29 -31 -29h-16zM286 797h-46v21h46v16h-46v20h46v16h-62v-88h62v15zM389 782h16
v88h-21l-26 -36l-26 36h-21v-88h17v66l30 -39l31 40v-67zM475 875q-19 0 -32 -13.5t-13 -33.5t11.5 -33.5t33.5 -13.5q23 0 35 13.5t12 33.5q0 21 -13.5 34t-33.5 13zM445 828q0 13 8 22.5t22 9.5q15 0 23 -9.5t8 -22.5q0 -32 -31 -32q-14 0 -22 10t-8 22z" />
    <glyph glyph-name="zdotaccent" unicode="&#x17c;" horiz-adv-x="492" 
d="M43 480h405v-100l-194 -240h208v-140h-433v100l195 240h-181v140zM0 524v165h500v-165h-500zM57 650v-88h31q47 0 47 44q0 19 -12.5 31.5t-34.5 12.5h-31zM72 577v57h16q31 0 31 -28q0 -29 -31 -29h-16zM222 577h-46v21h46v16h-46v20h46v16h-62v-88h62v15zM325 562h16v88
h-21l-26 -36l-26 36h-21v-88h17v66l30 -39l31 40v-67zM411 655q-19 0 -32 -13.5t-13 -33.5t11.5 -33.5t33.5 -13.5q23 0 35 13.5t12 33.5q0 21 -13.5 34t-33.5 13zM381 608q0 13 8 22.5t22 9.5q15 0 23 -9.5t8 -22.5q0 -32 -31 -32q-14 0 -22 10t-8 22z" />
    <glyph glyph-name="Zcaron" unicode="&#x17d;" horiz-adv-x="627" 
d="M593 0h-563v125l304 410h-286v165h536v-125l-305 -410h314v-165zM61 749v165h500v-165h-500zM118 875v-88h31q47 0 47 44q0 19 -12.5 31.5t-34.5 12.5h-31zM133 802v57h16q31 0 31 -28q0 -29 -31 -29h-16zM283 802h-46v21h46v16h-46v20h46v16h-62v-88h62v15zM386 787h16
v88h-21l-26 -36l-26 36h-21v-88h17v66l30 -39l31 40v-67zM472 880q-19 0 -32 -13.5t-13 -33.5t11.5 -33.5t33.5 -13.5q23 0 35 13.5t12 33.5q0 21 -13.5 34t-33.5 13zM442 833q0 13 8 22.5t22 9.5q15 0 23 -9.5t8 -22.5q0 -32 -31 -32q-14 0 -22 10t-8 22z" />
    <glyph glyph-name="zcaron" unicode="&#x17e;" horiz-adv-x="492" 
d="M43 480h405v-100l-194 -240h208v-140h-433v100l195 240h-181v140zM-3 529v165h500v-165h-500zM54 655v-88h31q47 0 47 44q0 19 -12.5 31.5t-34.5 12.5h-31zM69 582v57h16q31 0 31 -28q0 -29 -31 -29h-16zM219 582h-46v21h46v16h-46v20h46v16h-62v-88h62v15zM322 567h16
v88h-21l-26 -36l-26 36h-21v-88h17v66l30 -39l31 40v-67zM408 660q-19 0 -32 -13.5t-13 -33.5t11.5 -33.5t33.5 -13.5q23 0 35 13.5t12 33.5q0 21 -13.5 34t-33.5 13zM378 613q0 13 8 22.5t22 9.5q15 0 23 -9.5t8 -22.5q0 -32 -31 -32q-14 0 -22 10t-8 22z" />
    <glyph glyph-name="Scommaaccent" unicode="&#x218;" horiz-adv-x="621" 
d="M41 509q0 100 74.5 153t189.5 53q137 0 235 -56v-170q-90 68 -220 66q-89 -1 -89 -45q0 -21 27 -37.5t67.5 -28t87.5 -31t87.5 -43.5t67.5 -68.5t27 -102.5q0 -214 -280 -214q-153 0 -269 64v175q115 -79 255 -79q56 0 80 10.5t24 36.5q0 27 -37.5 47t-91 37.5t-107 41.5
t-91 73t-37.5 118zM91 -36v-165h500v165h-500zM148 -163v88h31q22 0 34.5 -12.5t12.5 -31.5q0 -44 -47 -44h-31zM163 -91v-57h16q31 0 31 29q0 28 -31 28h-16zM267 -148h46v-15h-62v88h62v-16h-46v-20h46v-16h-46v-21zM432 -163h-16v67l-31 -40l-30 39v-66h-17v88h21l26 -36
l26 36h21v-88zM502 -70q20 0 33.5 -13t13.5 -34q0 -20 -12 -33.5t-35 -13.5q-22 0 -33.5 13.5t-11.5 33.5t13 33.5t32 13.5zM472 -117q0 -12 8 -22t22 -10q31 0 31 32q0 13 -8 22.5t-23 9.5q-14 0 -22 -9.5t-8 -22.5z" />
    <glyph glyph-name="scommaaccent" unicode="&#x219;" horiz-adv-x="486" 
d="M34 342q0 81 59 117t150 36q94 0 181 -41v-135q-32 22 -79.5 36.5t-89.5 14.5q-46 0 -46 -24q0 -18 26 -29.5t63 -21.5t74 -24.5t63 -47.5t26 -83q0 -155 -229 -155q-116 0 -193 44v135q77 -51 184 -51q63 0 63 24q0 17 -26 28.5t-63 21.5t-74 25.5t-63 48.5t-26 81z
M27 -36v-165h500v165h-500zM84 -163v88h31q22 0 34.5 -12.5t12.5 -31.5q0 -44 -47 -44h-31zM99 -91v-57h16q31 0 31 29q0 28 -31 28h-16zM203 -148h46v-15h-62v88h62v-16h-46v-20h46v-16h-46v-21zM368 -163h-16v67l-31 -40l-30 39v-66h-17v88h21l26 -36l26 36h21v-88z
M438 -70q20 0 33.5 -13t13.5 -34q0 -20 -12 -33.5t-35 -13.5q-22 0 -33.5 13.5t-11.5 33.5t13 33.5t32 13.5zM408 -117q0 -12 8 -22t22 -10q31 0 31 32q0 13 -8 22.5t-23 9.5q-14 0 -22 -9.5t-8 -22.5z" />
    <glyph glyph-name="uni021A" unicode="&#x21a;" horiz-adv-x="606" 
d="M13 700h580v-165h-197v-535h-185v535h-198v165zM80 -36v-165h500v165h-500zM137 -163v88h31q22 0 34.5 -12.5t12.5 -31.5q0 -44 -47 -44h-31zM152 -91v-57h16q31 0 31 29q0 28 -31 28h-16zM256 -148h46v-15h-62v88h62v-16h-46v-20h46v-16h-46v-21zM421 -163h-16v67
l-31 -40l-30 39v-66h-17v88h21l26 -36l26 36h21v-88zM491 -70q20 0 33.5 -13t13.5 -34q0 -20 -12 -33.5t-35 -13.5q-22 0 -33.5 13.5t-11.5 33.5t13 33.5t32 13.5zM461 -117q0 -12 8 -22t22 -10q31 0 31 32q0 13 -8 22.5t-23 9.5q-14 0 -22 -9.5t-8 -22.5z" />
    <glyph glyph-name="uni021B" unicode="&#x21b;" horiz-adv-x="422" 
d="M89 615l170 40v-175h130v-140h-130v-156q0 -59 63 -59q42 0 77 12v-132q-58 -20 -130 -20q-79 0 -129.5 38.5t-50.5 126.5v190h-76v140h76v135zM26 -36v-165h500v165h-500zM83 -163v88h31q22 0 34.5 -12.5t12.5 -31.5q0 -44 -47 -44h-31zM98 -91v-57h16q31 0 31 29
q0 28 -31 28h-16zM202 -148h46v-15h-62v88h62v-16h-46v-20h46v-16h-46v-21zM367 -163h-16v67l-31 -40l-30 39v-66h-17v88h21l26 -36l26 36h21v-88zM437 -70q20 0 33.5 -13t13.5 -34q0 -20 -12 -33.5t-35 -13.5q-22 0 -33.5 13.5t-11.5 33.5t13 33.5t32 13.5zM407 -117
q0 -12 8 -22t22 -10q31 0 31 32q0 13 -8 22.5t-23 9.5q-14 0 -22 -9.5t-8 -22.5z" />
    <glyph glyph-name="circumflex" unicode="&#x2c6;" horiz-adv-x="390" 
d="M-58 749v165h500v-165h-500zM-1 875v-88h31q47 0 47 44q0 19 -12.5 31.5t-34.5 12.5h-31zM14 802v57h16q31 0 31 -28q0 -29 -31 -29h-16zM164 802h-46v21h46v16h-46v20h46v16h-62v-88h62v15zM267 787h16v88h-21l-26 -36l-26 36h-21v-88h17v66l30 -39l31 40v-67zM353 880
q-19 0 -32 -13.5t-13 -33.5t11.5 -33.5t33.5 -13.5q23 0 35 13.5t12 33.5q0 21 -13.5 34t-33.5 13zM323 833q0 13 8 22.5t22 9.5q15 0 23 -9.5t8 -22.5q0 -32 -31 -32q-14 0 -22 10t-8 22z" />
    <glyph glyph-name="caron" unicode="&#x2c7;" horiz-adv-x="390" 
d="M-62 749v165h500v-165h-500zM-5 875v-88h31q47 0 47 44q0 19 -12.5 31.5t-34.5 12.5h-31zM10 802v57h16q31 0 31 -28q0 -29 -31 -29h-16zM160 802h-46v21h46v16h-46v20h46v16h-62v-88h62v15zM263 787h16v88h-21l-26 -36l-26 36h-21v-88h17v66l30 -39l31 40v-67zM349 880
q-19 0 -32 -13.5t-13 -33.5t11.5 -33.5t33.5 -13.5q23 0 35 13.5t12 33.5q0 21 -13.5 34t-33.5 13zM319 833q0 13 8 22.5t22 9.5q15 0 23 -9.5t8 -22.5q0 -32 -31 -32q-14 0 -22 10t-8 22z" />
    <glyph glyph-name="breve" unicode="&#x2d8;" horiz-adv-x="370" 
d="M-76 749v165h500v-165h-500zM-19 875v-88h31q47 0 47 44q0 19 -12.5 31.5t-34.5 12.5h-31zM-4 802v57h16q31 0 31 -28q0 -29 -31 -29h-16zM146 802h-46v21h46v16h-46v20h46v16h-62v-88h62v15zM249 787h16v88h-21l-26 -36l-26 36h-21v-88h17v66l30 -39l31 40v-67zM335 880
q-19 0 -32 -13.5t-13 -33.5t11.5 -33.5t33.5 -13.5q23 0 35 13.5t12 33.5q0 21 -13.5 34t-33.5 13zM305 833q0 13 8 22.5t22 9.5q15 0 23 -9.5t8 -22.5q0 -32 -31 -32q-14 0 -22 10t-8 22z" />
    <glyph glyph-name="dotaccent" unicode="&#x2d9;" horiz-adv-x="180" 
d="M-164 749v165h500v-165h-500zM-107 875v-88h31q47 0 47 44q0 19 -12.5 31.5t-34.5 12.5h-31zM-92 802v57h16q31 0 31 -28q0 -29 -31 -29h-16zM58 802h-46v21h46v16h-46v20h46v16h-62v-88h62v15zM161 787h16v88h-21l-26 -36l-26 36h-21v-88h17v66l30 -39l31 40v-67z
M247 880q-19 0 -32 -13.5t-13 -33.5t11.5 -33.5t33.5 -13.5q23 0 35 13.5t12 33.5q0 21 -13.5 34t-33.5 13zM217 833q0 13 8 22.5t22 9.5q15 0 23 -9.5t8 -22.5q0 -32 -31 -32q-14 0 -22 10t-8 22z" />
    <glyph glyph-name="ring" unicode="&#x2da;" horiz-adv-x="260" 
d="M-106 749v165h500v-165h-500zM-49 875v-88h31q47 0 47 44q0 19 -12.5 31.5t-34.5 12.5h-31zM-34 802v57h16q31 0 31 -28q0 -29 -31 -29h-16zM116 802h-46v21h46v16h-46v20h46v16h-62v-88h62v15zM219 787h16v88h-21l-26 -36l-26 36h-21v-88h17v66l30 -39l31 40v-67z
M305 880q-19 0 -32 -13.5t-13 -33.5t11.5 -33.5t33.5 -13.5q23 0 35 13.5t12 33.5q0 21 -13.5 34t-33.5 13zM275 833q0 13 8 22.5t22 9.5q15 0 23 -9.5t8 -22.5q0 -32 -31 -32q-14 0 -22 10t-8 22z" />
    <glyph glyph-name="ogonek" unicode="&#x2db;" horiz-adv-x="230" 
d="M-131 -188v165h500v-165h-500zM-74 -62v-88h31q47 0 47 44q0 19 -12.5 31.5t-34.5 12.5h-31zM-59 -135v57h16q31 0 31 -28q0 -29 -31 -29h-16zM91 -135h-46v21h46v16h-46v20h46v16h-62v-88h62v15zM194 -150h16v88h-21l-26 -36l-26 36h-21v-88h17v66l30 -39l31 40v-67z
M280 -57q-19 0 -32 -13.5t-13 -33.5t11.5 -33.5t33.5 -13.5q23 0 35 13.5t12 33.5q0 21 -13.5 34t-33.5 13zM250 -104q0 13 8 22.5t22 9.5q15 0 23 -9.5t8 -22.5q0 -32 -31 -32q-14 0 -22 10t-8 22z" />
    <glyph glyph-name="tilde" unicode="&#x2dc;" horiz-adv-x="427" 
d="M-40 749v165h500v-165h-500zM17 875v-88h31q47 0 47 44q0 19 -12.5 31.5t-34.5 12.5h-31zM32 802v57h16q31 0 31 -28q0 -29 -31 -29h-16zM182 802h-46v21h46v16h-46v20h46v16h-62v-88h62v15zM285 787h16v88h-21l-26 -36l-26 36h-21v-88h17v66l30 -39l31 40v-67zM371 880
q-19 0 -32 -13.5t-13 -33.5t11.5 -33.5t33.5 -13.5q23 0 35 13.5t12 33.5q0 21 -13.5 34t-33.5 13zM341 833q0 13 8 22.5t22 9.5q15 0 23 -9.5t8 -22.5q0 -32 -31 -32q-14 0 -22 10t-8 22z" />
    <glyph glyph-name="hungarumlaut" unicode="&#x2dd;" horiz-adv-x="460" 
d="M-21 749v165h500v-165h-500zM36 875v-88h31q47 0 47 44q0 19 -12.5 31.5t-34.5 12.5h-31zM51 802v57h16q31 0 31 -28q0 -29 -31 -29h-16zM201 802h-46v21h46v16h-46v20h46v16h-62v-88h62v15zM304 787h16v88h-21l-26 -36l-26 36h-21v-88h17v66l30 -39l31 40v-67zM390 880
q-19 0 -32 -13.5t-13 -33.5t11.5 -33.5t33.5 -13.5q23 0 35 13.5t12 33.5q0 21 -13.5 34t-33.5 13zM360 833q0 13 8 22.5t22 9.5q15 0 23 -9.5t8 -22.5q0 -32 -31 -32q-14 0 -22 10t-8 22z" />
    <glyph glyph-name="uni0326" unicode="&#x326;" horiz-adv-x="168" 
d="M-98 -201v165h500v-165h-500zM-41 -75v-88h31q47 0 47 44q0 19 -12.5 31.5t-34.5 12.5h-31zM-26 -148v57h16q31 0 31 -28q0 -29 -31 -29h-16zM124 -148h-46v21h46v16h-46v20h46v16h-62v-88h62v15zM227 -163h16v88h-21l-26 -36l-26 36h-21v-88h17v66l30 -39l31 40v-67z
M313 -70q-19 0 -32 -13.5t-13 -33.5t11.5 -33.5t33.5 -13.5q23 0 35 13.5t12 33.5q0 21 -13.5 34t-33.5 13zM283 -117q0 13 8 22.5t22 9.5q15 0 23 -9.5t8 -22.5q0 -32 -31 -32q-14 0 -22 10t-8 22z" />
    <glyph glyph-name="uni0401" unicode="&#x401;" horiz-adv-x="617" 
d="M82 914h500v-165h-500v165zM139 875v-88h31q47 0 47 44q0 19 -12.5 31.5t-34.5 12.5h-31zM154 859h16q31 0 31 -28q0 -29 -31 -29h-16v57zM304 802h-46v21h46v16h-46v20h46v16h-62v-88h62v15zM407 787h16v88h-21l-26 -36l-26 36h-21v-88h17v66l30 -39l31 40v-67zM493 880
q-19 0 -32 -13.5t-13 -33.5t11.5 -33.5t33.5 -13.5q23 0 35 13.5t12 33.5q0 21 -13.5 34t-33.5 13zM463 833q0 13 8 22.5t22 9.5q15 0 23 -9.5t8 -22.5q0 -32 -31 -32q-14 0 -22 10t-8 22zM66 700h504v-160h-319v-107h289v-159h-289v-114h325v-160h-510v700z" />
    <glyph glyph-name="uni0410" unicode="&#x410;" horiz-adv-x="752" 
d="M191 0h-190l275 700h200l275 -700h-190l-40 110h-290zM358 462l-72 -202h180l-72 202q-12 34 -18 71q-6 -37 -18 -71z" />
    <glyph glyph-name="uni0411" unicode="&#x411;" horiz-adv-x="680" 
d="M251 452h138q56 0 102 -11t84.5 -36t59.5 -70.5t21 -108.5t-21 -108.5t-59.5 -70.5t-84.5 -36t-102 -11h-323v700h531v-165h-346v-83zM251 160h136q79 0 79 66t-79 66h-136v-132z" />
    <glyph glyph-name="uni0412" unicode="&#x412;" horiz-adv-x="684" 
d="M66 700h316q118 0 181.5 -44t63.5 -133q0 -115 -104 -152q132 -39 132 -173q0 -57 -25 -97.5t-68.5 -61.5t-90 -30t-101.5 -9h-304v700zM469 218q0 73 -93 73h-126v-146h126q93 0 93 73zM442 490q0 30 -20.5 47.5t-56.5 17.5h-114v-129l114 -1q36 0 56.5 17.5t20.5 47.5z
" />
    <glyph glyph-name="uni0413" unicode="&#x413;" horiz-adv-x="582" 
d="M251 0h-185v700h505v-165h-320v-535z" />
    <glyph glyph-name="uni0414" unicode="&#x414;" horiz-adv-x="829" 
d="M181 -145h-160v305h80q110 196 110 540h500v-540h90v-305h-160v145h-460v-145zM381 535q-18 -251 -85 -375h230v375h-145z" />
    <glyph glyph-name="uni0415" unicode="&#x415;" horiz-adv-x="617" 
d="M66 700h504v-160h-319v-107h289v-159h-289v-114h325v-160h-510v700z" />
    <glyph glyph-name="uni0416" unicode="&#x416;" horiz-adv-x="1013" 
d="M207 0h-205l200 359l-190 341h205l136 -265h61v265h185v-265h61l136 265h205l-190 -341l200 -359h-205l-147 270h-60v-270h-185v270h-60z" />
    <glyph glyph-name="uni0417" unicode="&#x417;" horiz-adv-x="629" 
d="M597 191q0 -57 -25.5 -99t-69 -64t-93.5 -32.5t-107 -10.5q-132 0 -265 46v175q118 -58 250 -56q124 0 124 70q0 59 -93 59h-166l1 160l154 -1q77 0 77 51q0 61 -115 61q-102 2 -220 -56v175q113 46 235 46q133 0 209 -49t76 -145q0 -111 -110 -149q63 -19 100.5 -64.5
t37.5 -116.5z" />
    <glyph glyph-name="uni0418" unicode="&#x418;" horiz-adv-x="762" 
d="M696 0h-185v286q0 71 4 115l-274 -401h-175v700h185v-286q0 -72 -4 -116l274 402h175v-700z" />
    <glyph glyph-name="uni0419" unicode="&#x419;" horiz-adv-x="762" 
d="M696 0h-185v286q0 71 4 115l-274 -401h-175v700h185v-286q0 -72 -4 -116l274 402h175v-700zM120 754v165h500v-165h-500zM177 880v-88h31q47 0 47 44q0 19 -12.5 31.5t-34.5 12.5h-31zM192 807v57h16q31 0 31 -28q0 -29 -31 -29h-16zM342 807h-46v21h46v16h-46v20h46v16
h-62v-88h62v15zM445 792h16v88h-21l-26 -36l-26 36h-21v-88h17v66l30 -39l31 40v-67zM531 885q-19 0 -32 -13.5t-13 -33.5t11.5 -33.5t33.5 -13.5q23 0 35 13.5t12 33.5q0 21 -13.5 34t-33.5 13zM501 838q0 13 8 22.5t22 9.5q15 0 23 -9.5t8 -22.5q0 -32 -31 -32
q-14 0 -22 10t-8 22z" />
    <glyph glyph-name="uni041A" unicode="&#x41a;" horiz-adv-x="706" 
d="M251 0h-185v700h185v-265h88l159 265h205l-220 -341l230 -359h-205l-170 270h-87v-270z" />
    <glyph glyph-name="uni041B" unicode="&#x41b;" horiz-adv-x="754" 
d="M183 700h505v-700h-185v535h-151q-6 -83 -13 -141t-19 -126.5t-30 -113t-44.5 -84.5t-64.5 -59.5t-87 -19.5q-43 0 -86 14v161q22 -7 48 -4q23 2 41.5 21t30.5 55t20.5 73t14 93t8 97.5t6.5 104t6 94.5z" />
    <glyph glyph-name="uni041C" unicode="&#x41c;" horiz-adv-x="908" 
d="M667 700h175v-700h-185v372l-150 -230h-106l-150 231v-373h-185v700h175l213 -328z" />
    <glyph glyph-name="uni041D" unicode="&#x41d;" horiz-adv-x="762" 
d="M511 700h185v-700h-185v267h-260v-267h-185v700h185v-268h260v268z" />
    <glyph glyph-name="uni041E" unicode="&#x41e;" horiz-adv-x="812" 
d="M31 350q0 155 98 260t277 105t277 -105t98 -260t-98 -260t-277 -105t-277 105t-98 260zM591 350q0 87 -48.5 141t-136.5 54t-136.5 -54t-48.5 -141t48.5 -141t136.5 -54t136.5 54t48.5 141z" />
    <glyph glyph-name="uni041F" unicode="&#x41f;" horiz-adv-x="762" 
d="M251 0h-185v700h630v-700h-185v535h-260v-535z" />
    <glyph glyph-name="uni0420" unicode="&#x420;" horiz-adv-x="670" 
d="M66 700h277q305 0 305 -240q0 -238 -305 -240h-92v-220h-185v700zM458 460q0 80 -106 80h-101v-160h101q106 0 106 80z" />
    <glyph glyph-name="uni0421" unicode="&#x421;" horiz-adv-x="655" 
d="M32 340q0 95 32 169t87 118t121 66t139 22q110 0 203 -44v-175q-68 57 -171 57q-92 0 -156.5 -53.5t-64.5 -159.5q0 -95 64 -143.5t155 -48.5q115 0 178 61v-180q-93 -44 -204 -44q-75 0 -141.5 21t-121.5 62.5t-87.5 111.5t-32.5 160z" />
    <glyph glyph-name="uni0422" unicode="&#x422;" horiz-adv-x="606" 
d="M13 700h580v-165h-197v-535h-185v535h-198v165z" />
    <glyph glyph-name="uni0423" unicode="&#x423;" horiz-adv-x="685" 
d="M435 160q-45 -96 -102 -135.5t-133 -39.5q-46 0 -112 19v153q37 -14 81 -14q70 0 91 48l11 24l-273 485h205l154 -319l126 319h205z" />
    <glyph glyph-name="uni0424" unicode="&#x424;" horiz-adv-x="884" 
d="M532 -40h-175v86q-157 8 -248.5 88t-91.5 216t91.5 216t248.5 88v86h175v-86q155 -10 245 -89.5t90 -214.5t-90 -214.5t-245 -89.5v-86zM202 350q0 -59 35 -102t120 -51v306q-85 -8 -120 -51t-35 -102zM532 503v-306q82 10 116 52.5t34 100.5t-34 100.5t-116 52.5z" />
    <glyph glyph-name="uni0425" unicode="&#x425;" horiz-adv-x="694" 
d="M205 0h-216l240 364l-225 336h216l127 -206l127 206h216l-225 -336l240 -364h-216l-142 235z" />
    <glyph glyph-name="uni0426" unicode="&#x426;" horiz-adv-x="814" 
d="M786 -145h-160v145h-560v700h185v-535h260v535h185v-535h90v-310z" />
    <glyph glyph-name="uni0427" unicode="&#x427;" horiz-adv-x="703" 
d="M637 0h-185v238q-87 -26 -162 -26q-118 0 -186.5 61.5t-68.5 180.5v246h185v-236q0 -41 32.5 -63t84.5 -22q57 0 115 24v297h185v-700z" />
    <glyph glyph-name="uni0428" unicode="&#x428;" horiz-adv-x="1047" 
d="M981 0h-915v700h185v-535h180v535h185v-535h180v535h185v-700z" />
    <glyph glyph-name="uni0429" unicode="&#x429;" horiz-adv-x="1099" 
d="M1071 -145h-160v145h-845v700h185v-535h180v535h185v-535h180v535h185v-535h90v-310z" />
    <glyph glyph-name="uni042A" unicode="&#x42a;" horiz-adv-x="778" 
d="M452 0h-277v535h-160v165h345v-220h92q305 -2 305 -240q0 -240 -305 -240zM360 320v-160h101q106 0 106 80t-106 80h-101z" />
    <glyph glyph-name="uni042B" unicode="&#x42b;" horiz-adv-x="944" 
d="M343 0h-277v700h185v-220h92q305 -2 305 -240q0 -240 -305 -240zM251 320v-160h101q106 0 106 80t-106 80h-101zM878 0h-185v700h185v-700z" />
    <glyph glyph-name="uni042C" unicode="&#x42c;" horiz-adv-x="669" 
d="M343 0h-277v700h185v-220h92q305 -2 305 -240q0 -240 -305 -240zM251 320v-160h101q106 0 106 80t-106 80h-101z" />
    <glyph glyph-name="uni042D" unicode="&#x42d;" horiz-adv-x="657" 
d="M43 671q93 44 203 44q73 0 139 -22t121 -66t87 -118t32 -169q0 -90 -32.5 -160t-87.5 -111.5t-121.5 -62.5t-141.5 -21q-106 0 -199 44v180q62 -59 171 -59q57 0 99 9t77.5 37.5t47.5 76.5h-290v155h287q-20 69 -75 95t-142 27q-110 0 -175 -54v175z" />
    <glyph glyph-name="uni042E" unicode="&#x42e;" horiz-adv-x="1112" 
d="M1081 350q0 -155 -98 -260t-277 -105q-151 0 -244 80t-115 203h-96v-268h-185v700h185v-267h96q22 122 115 202t244 80q179 0 277 -105t98 -260zM521 350q0 -87 48.5 -141t136.5 -54t136.5 54t48.5 141t-48.5 141t-136.5 54t-136.5 -54t-48.5 -141z" />
    <glyph glyph-name="uni042F" unicode="&#x42f;" horiz-adv-x="701" 
d="M220 0h-211l189 253q-145 54 -145 206q0 123 81 182t206 59h295v-700h-185v228h-65zM243 459q0 -81 99 -81h108v162h-108q-99 0 -99 -81z" />
    <glyph glyph-name="uni0430" unicode="&#x430;" horiz-adv-x="576" 
d="M505 137q0 -30 33 -30q10 0 19 3v-105q-38 -15 -86 -15q-80 0 -114 53q-74 -58 -167 -58q-71 0 -119 40t-48 108q0 43 19 75.5t50.5 49.5t66 25t72.5 8q54 0 104 -11v17q0 27 -25.5 43.5t-74.5 16.5q-76 0 -168 -37v143q98 32 187 32q123 0 187 -51t64 -173v-134z
M198 147q0 -20 16 -33.5t42 -13.5q45 0 79 25v65q-27 9 -61 9q-76 0 -76 -52z" />
    <glyph glyph-name="uni0431" unicode="&#x431;" horiz-adv-x="583" 
d="M554 215q0 -111 -73 -170.5t-187 -59.5q-115 0 -187.5 70.5t-72.5 224.5q0 232 147 324q58 36 128.5 51t123 24.5t79.5 35.5v-150q-34 -31 -113.5 -40.5t-115.5 -27.5q-34 -17 -54 -52t-20 -67q54 67 145 67q89 0 144.5 -60.5t55.5 -169.5zM209 215q0 -16 3 -30.5
t11 -31.5t26.5 -27.5t44.5 -10.5t44.5 10.5t26.5 27.5t11 31.5t3 30.5t-3 30.5t-11 31.5t-26.5 27.5t-44.5 10.5t-44.5 -10.5t-26.5 -27.5t-11 -31.5t-3 -30.5z" />
    <glyph glyph-name="uni0432" unicode="&#x432;" horiz-adv-x="551" 
d="M357 0h-306v480h298q88 0 125.5 -37.5t37.5 -87.5q0 -83 -78 -113q88 -28 88 -114q0 -55 -38 -91.5t-127 -36.5zM222 194v-86h78q52 0 52 42q0 44 -53 44h-77zM221 372v-86h69q52 0 52 42q0 44 -53 44h-68z" />
    <glyph glyph-name="uni0433" unicode="&#x433;" horiz-adv-x="439" 
d="M221 0h-170v480h374v-140h-204v-340z" />
    <glyph glyph-name="uni0434" unicode="&#x434;" horiz-adv-x="661" 
d="M173 -125h-155v250h69q70 121 63 355h415v-355h73v-250h-155v125h-310v-125zM305 355q-4 -142 -44 -230h134v230h-90z" />
    <glyph glyph-name="uni0435" unicode="&#x435;" horiz-adv-x="547" 
d="M27 240q0 67 24 118.5t63 80t81 42.5t84 14q60 0 107 -18t74.5 -48t44.5 -69.5t16.5 -83t-8.5 -87.5h-314q27 -74 153 -74q77 0 138 23v-126q-76 -27 -178 -27q-123 0 -204 67.5t-81 187.5zM358 291q5 24 -12.5 52.5t-62.5 28.5q-36 0 -61 -22t-25 -59h161z" />
    <glyph glyph-name="uni0436" unicode="&#x436;" horiz-adv-x="806" 
d="M806 0h-180l-96 167h-42v-167h-170v167h-42l-96 -167h-180l152 241l-142 239h180l97 -183h31v183h170v-183h31l97 183h180l-142 -239z" />
    <glyph glyph-name="uni0437" unicode="&#x437;" horiz-adv-x="493" 
d="M464 135q0 -59 -60.5 -104t-186.5 -45q-113 0 -186 41v130q28 -16 75 -29t89 -13q94 0 94 42q0 22 -21.5 28.5t-63.5 6.5h-80v102h80q75 0 75 35q0 38 -74 38q-39 0 -88 -13t-76 -29v130q73 41 186 41q65 0 112 -13.5t70.5 -36t34 -46t10.5 -49.5q0 -40 -22 -66.5
t-55 -37.5q87 -27 87 -112z" />
    <glyph glyph-name="uni0438" unicode="&#x438;" horiz-adv-x="592" 
d="M200 0h-149v480h170v-227l171 227h149v-480h-170v227z" />
    <glyph glyph-name="uni0439" unicode="&#x439;" horiz-adv-x="592" 
d="M456 568q-70 -39 -160 -39t-160 39v122q67 -35 160 -35q92 0 160 35v-122zM200 0h-149v480h170v-227l171 227h149v-480h-170v227z" />
    <glyph glyph-name="uni043A" unicode="&#x43a;" horiz-adv-x="562" 
d="M221 0h-170v480h170v-168h38l105 168h190l-156 -236l166 -244h-189l-118 182h-36v-182z" />
    <glyph glyph-name="uni043B" unicode="&#x43b;" horiz-adv-x="590" 
d="M284 350q-5 -81 -15.5 -141.5t-31 -113t-56 -79.5t-84.5 -27q-39 0 -86 16v135q15 -6 27 -6q18 0 31 11.5t22.5 36.5t15.5 51.5t10.5 72t6.5 81t5 93.5h410v-480h-170v350h-85z" />
    <glyph glyph-name="uni043C" unicode="&#x43c;" horiz-adv-x="688" 
d="M217 0h-166v480h157l136 -223l136 223h157v-480h-166v240l-90 -147h-74l-90 147v-240z" />
    <glyph glyph-name="uni043D" unicode="&#x43d;" horiz-adv-x="592" 
d="M221 0h-170v480h170v-170h150v170h170v-480h-170v170h-150v-170z" />
    <glyph glyph-name="uni043E" unicode="&#x43e;" horiz-adv-x="594" 
d="M27 240q0 122 77.5 188.5t192.5 66.5t192.5 -66.5t77.5 -188.5t-77.5 -188.5t-192.5 -66.5t-192.5 66.5t-77.5 188.5zM392 240q0 45 -23 75t-72 30t-72 -30t-23 -75t23 -75t72 -30t72 30t23 75z" />
    <glyph glyph-name="uni043F" unicode="&#x43f;" horiz-adv-x="592" 
d="M221 0h-170v480h490v-480h-170v340h-150v-340z" />
    <glyph glyph-name="uni0440" unicode="&#x440;" horiz-adv-x="624" 
d="M201 415q20 34 61.5 57t101.5 23q58 0 104 -22t73 -59t41 -81.5t14 -92.5t-14 -92.5t-41 -81.5t-73 -59t-104 -22q-91 0 -143 54v-259h-170v700h150v-65zM421 240q0 47 -26.5 81t-76.5 34q-33 0 -59 -17.5t-38 -42.5v-110q12 -25 38 -42.5t59 -17.5q50 0 76.5 34t26.5 81
z" />
    <glyph glyph-name="uni0441" unicode="&#x441;" horiz-adv-x="492" 
d="M27 230q0 132 81.5 199t195.5 67q79 0 148 -33v-145q-57 33 -122 33q-56 0 -92 -27t-36 -84q0 -54 36 -82t89 -28q74 0 130 32v-145q-77 -32 -165 -32q-110 0 -187.5 62.5t-77.5 182.5z" />
    <glyph glyph-name="uni0442" unicode="&#x442;" horiz-adv-x="480" 
d="M325 0h-170v340h-140v140h450v-140h-140v-340z" />
    <glyph glyph-name="uni0443" unicode="&#x443;" horiz-adv-x="577" 
d="M297 194l98 286h175l-201 -530q-70 -183 -220 -183q-36 0 -88 13v140q34 -8 65 -8q66 0 100 76l-226 492h180z" />
    <glyph glyph-name="uni0444" unicode="&#x444;" horiz-adv-x="762" 
d="M461 -220h-160v205q-122 5 -198.5 73.5t-76.5 181.5t76.5 181.5t198.5 73.5v205h160v-205q122 -5 198.5 -73.5t76.5 -181.5t-76.5 -181.5t-198.5 -73.5v-205zM196 240q0 -44 25.5 -77.5t79.5 -37.5v230q-54 -4 -79.5 -37.5t-25.5 -77.5zM461 355v-230q54 4 79.5 37.5
t25.5 77.5t-25.5 77.5t-79.5 37.5z" />
    <glyph glyph-name="uni0445" unicode="&#x445;" horiz-adv-x="552" 
d="M355 480h192l-172 -241l181 -239h-192l-88 124l-88 -124h-192l181 239l-172 241h192l79 -126z" />
    <glyph glyph-name="uni0446" unicode="&#x446;" horiz-adv-x="639" 
d="M614 -125h-155v125h-408v480h170v-340h150v340h170v-345h73v-260z" />
    <glyph glyph-name="uni0447" unicode="&#x447;" horiz-adv-x="550" 
d="M499 0h-170v141q-51 -18 -112 -18q-80 0 -134 46.5t-54 137.5v173h170v-157q0 -60 64 -60q36 0 66 12v205h170v-480z" />
    <glyph glyph-name="uni0448" unicode="&#x448;" horiz-adv-x="812" 
d="M761 0h-710v480h170v-340h100v340h170v-340h100v340h170v-480z" />
    <glyph glyph-name="uni0449" unicode="&#x449;" horiz-adv-x="859" 
d="M834 -125h-155v125h-628v480h170v-340h100v340h170v-340h100v340h170v-345h73v-260z" />
    <glyph glyph-name="uni044A" unicode="&#x44a;" horiz-adv-x="613" 
d="M305 340h92q94 0 146 -48t52 -122t-52 -122t-146 -48h-262v350h-120v130h290v-140zM305 115h46q33 0 51 15t18 40t-18 40t-51 15h-46v-110z" />
    <glyph glyph-name="uni044B" unicode="&#x44b;" horiz-adv-x="802" 
d="M313 0h-262v480h170v-140h92q94 0 146 -48t52 -122t-52 -122t-146 -48zM221 225v-110h46q33 0 51 15t18 40t-18 40t-51 15h-46zM751 0h-170v480h170v-480z" />
    <glyph glyph-name="uni044C" unicode="&#x44c;" horiz-adv-x="529" 
d="M313 0h-262v480h170v-140h92q94 0 146 -48t52 -122t-52 -122t-146 -48zM221 225v-110h46q33 0 51 15t18 40t-18 40t-51 15h-46z" />
    <glyph glyph-name="uni044D" unicode="&#x44d;" horiz-adv-x="506" 
d="M479 230q0 -50 -16 -91.5t-42 -69.5t-60.5 -47.5t-71 -28t-73.5 -8.5q-59 0 -98 9.5t-84 32.5v135q62 -42 145 -42q106 0 130 60h-185v120h185q-27 60 -130 60q-78 0 -140 -42v135q71 42 162 42q74 0 135 -26t102 -87.5t41 -151.5z" />
    <glyph glyph-name="uni044E" unicode="&#x44e;" horiz-adv-x="843" 
d="M816 240q0 -122 -77.5 -188.5t-192.5 -66.5q-92 0 -162.5 49.5t-90.5 140.5h-72v-175h-170v480h170v-175h72q20 91 90.5 140.5t162.5 49.5q115 0 192.5 -66.5t77.5 -188.5zM451 240q0 -48 22 -81.5t73 -33.5t73 33.5t22 81.5t-22 81.5t-73 33.5t-73 -33.5t-22 -81.5z" />
    <glyph glyph-name="uni044F" unicode="&#x44f;" horiz-adv-x="563" 
d="M201 0h-189l119 154q-43 23 -66.5 63t-23.5 88q0 74 52.5 124.5t145.5 50.5h273v-480h-170v130h-47zM216 300q0 -50 64 -50h62v100h-62q-64 0 -64 -50z" />
    <glyph glyph-name="uni0451" unicode="&#x451;" horiz-adv-x="547" 
d="M32 694h500v-165h-500v165zM89 655v-88h31q47 0 47 44q0 19 -12.5 31.5t-34.5 12.5h-31zM104 639h16q31 0 31 -28q0 -29 -31 -29h-16v57zM254 582h-46v21h46v16h-46v20h46v16h-62v-88h62v15zM357 567h16v88h-21l-26 -36l-26 36h-21v-88h17v66l30 -39l31 40v-67zM443 660
q-19 0 -32 -13.5t-13 -33.5t11.5 -33.5t33.5 -13.5q23 0 35 13.5t12 33.5q0 21 -13.5 34t-33.5 13zM413 613q0 13 8 22.5t22 9.5q15 0 23 -9.5t8 -22.5q0 -32 -31 -32q-14 0 -22 10t-8 22zM27 240q0 67 24 118.5t63 80t81 42.5t84 14q60 0 107 -18t74.5 -48t44.5 -69.5
t16.5 -83t-8.5 -87.5h-314q27 -74 153 -74q77 0 138 23v-126q-76 -27 -178 -27q-123 0 -204 67.5t-81 187.5zM358 291q5 24 -12.5 52.5t-62.5 28.5q-36 0 -61 -22t-25 -59h161z" />
    <glyph glyph-name="Wgrave" unicode="&#x1e80;" horiz-adv-x="1078" 
d="M872 700h200l-214 -700h-200l-119 433l-119 -433h-200l-214 700h200l119 -492l133 492h162l133 -492zM253 749v165h500v-165h-500zM310 875v-88h31q47 0 47 44q0 19 -12.5 31.5t-34.5 12.5h-31zM325 802v57h16q31 0 31 -28q0 -29 -31 -29h-16zM475 802h-46v21h46v16h-46
v20h46v16h-62v-88h62v15zM578 787h16v88h-21l-26 -36l-26 36h-21v-88h17v66l30 -39l31 40v-67zM664 880q-19 0 -32 -13.5t-13 -33.5t11.5 -33.5t33.5 -13.5q23 0 35 13.5t12 33.5q0 21 -13.5 34t-33.5 13zM634 833q0 13 8 22.5t22 9.5q15 0 23 -9.5t8 -22.5q0 -32 -31 -32
q-14 0 -22 10t-8 22z" />
    <glyph glyph-name="wgrave" unicode="&#x1e81;" horiz-adv-x="828" 
d="M637 480h182l-149 -480h-180l-76 281l-76 -281h-180l-149 480h182l68 -295l73 295h164l73 -295zM126 529v165h500v-165h-500zM183 655v-88h31q47 0 47 44q0 19 -12.5 31.5t-34.5 12.5h-31zM198 582v57h16q31 0 31 -28q0 -29 -31 -29h-16zM348 582h-46v21h46v16h-46v20h46
v16h-62v-88h62v15zM451 567h16v88h-21l-26 -36l-26 36h-21v-88h17v66l30 -39l31 40v-67zM537 660q-19 0 -32 -13.5t-13 -33.5t11.5 -33.5t33.5 -13.5q23 0 35 13.5t12 33.5q0 21 -13.5 34t-33.5 13zM507 613q0 13 8 22.5t22 9.5q15 0 23 -9.5t8 -22.5q0 -32 -31 -32
q-14 0 -22 10t-8 22z" />
    <glyph glyph-name="Wacute" unicode="&#x1e82;" horiz-adv-x="1078" 
d="M872 700h200l-214 -700h-200l-119 433l-119 -433h-200l-214 700h200l119 -492l133 492h162l133 -492zM305 749v165h500v-165h-500zM362 875v-88h31q47 0 47 44q0 19 -12.5 31.5t-34.5 12.5h-31zM377 802v57h16q31 0 31 -28q0 -29 -31 -29h-16zM527 802h-46v21h46v16h-46
v20h46v16h-62v-88h62v15zM630 787h16v88h-21l-26 -36l-26 36h-21v-88h17v66l30 -39l31 40v-67zM716 880q-19 0 -32 -13.5t-13 -33.5t11.5 -33.5t33.5 -13.5q23 0 35 13.5t12 33.5q0 21 -13.5 34t-33.5 13zM686 833q0 13 8 22.5t22 9.5q15 0 23 -9.5t8 -22.5q0 -32 -31 -32
q-14 0 -22 10t-8 22z" />
    <glyph glyph-name="wacute" unicode="&#x1e83;" horiz-adv-x="828" 
d="M637 480h182l-149 -480h-180l-76 281l-76 -281h-180l-149 480h182l68 -295l73 295h164l73 -295zM178 529v165h500v-165h-500zM235 655v-88h31q47 0 47 44q0 19 -12.5 31.5t-34.5 12.5h-31zM250 582v57h16q31 0 31 -28q0 -29 -31 -29h-16zM400 582h-46v21h46v16h-46v20h46
v16h-62v-88h62v15zM503 567h16v88h-21l-26 -36l-26 36h-21v-88h17v66l30 -39l31 40v-67zM589 660q-19 0 -32 -13.5t-13 -33.5t11.5 -33.5t33.5 -13.5q23 0 35 13.5t12 33.5q0 21 -13.5 34t-33.5 13zM559 613q0 13 8 22.5t22 9.5q15 0 23 -9.5t8 -22.5q0 -32 -31 -32
q-14 0 -22 10t-8 22z" />
    <glyph glyph-name="Wdieresis" unicode="&#x1e84;" horiz-adv-x="1078" 
d="M872 700h200l-214 -700h-200l-119 433l-119 -433h-200l-214 700h200l119 -492l133 492h162l133 -492zM293 914h500v-165h-500v165zM350 875v-88h31q47 0 47 44q0 19 -12.5 31.5t-34.5 12.5h-31zM365 859h16q31 0 31 -28q0 -29 -31 -29h-16v57zM515 802h-46v21h46v16h-46
v20h46v16h-62v-88h62v15zM618 787h16v88h-21l-26 -36l-26 36h-21v-88h17v66l30 -39l31 40v-67zM704 880q-19 0 -32 -13.5t-13 -33.5t11.5 -33.5t33.5 -13.5q23 0 35 13.5t12 33.5q0 21 -13.5 34t-33.5 13zM674 833q0 13 8 22.5t22 9.5q15 0 23 -9.5t8 -22.5q0 -32 -31 -32
q-14 0 -22 10t-8 22z" />
    <glyph glyph-name="wdieresis" unicode="&#x1e85;" horiz-adv-x="828" 
d="M637 480h182l-149 -480h-180l-76 281l-76 -281h-180l-149 480h182l68 -295l73 295h164l73 -295zM166 694h500v-165h-500v165zM223 655v-88h31q47 0 47 44q0 19 -12.5 31.5t-34.5 12.5h-31zM238 639h16q31 0 31 -28q0 -29 -31 -29h-16v57zM388 582h-46v21h46v16h-46v20h46
v16h-62v-88h62v15zM491 567h16v88h-21l-26 -36l-26 36h-21v-88h17v66l30 -39l31 40v-67zM577 660q-19 0 -32 -13.5t-13 -33.5t11.5 -33.5t33.5 -13.5q23 0 35 13.5t12 33.5q0 21 -13.5 34t-33.5 13zM547 613q0 13 8 22.5t22 9.5q15 0 23 -9.5t8 -22.5q0 -32 -31 -32
q-14 0 -22 10t-8 22z" />
    <glyph glyph-name="Ygrave" unicode="&#x1ef2;" horiz-adv-x="728" 
d="M456 0h-184v239l-273 461h210l155 -289l155 289h210l-273 -461v-239zM76 749v165h500v-165h-500zM133 875v-88h31q47 0 47 44q0 19 -12.5 31.5t-34.5 12.5h-31zM148 802v57h16q31 0 31 -28q0 -29 -31 -29h-16zM298 802h-46v21h46v16h-46v20h46v16h-62v-88h62v15zM401 787
h16v88h-21l-26 -36l-26 36h-21v-88h17v66l30 -39l31 40v-67zM487 880q-19 0 -32 -13.5t-13 -33.5t11.5 -33.5t33.5 -13.5q23 0 35 13.5t12 33.5q0 21 -13.5 34t-33.5 13zM457 833q0 13 8 22.5t22 9.5q15 0 23 -9.5t8 -22.5q0 -32 -31 -32q-14 0 -22 10t-8 22z" />
    <glyph glyph-name="ygrave" unicode="&#x1ef3;" horiz-adv-x="577" 
d="M297 194l98 286h175l-201 -530q-70 -183 -220 -183q-36 0 -88 13v140q34 -8 65 -8q66 0 100 76l-226 492h180zM-5 529v165h500v-165h-500zM52 655v-88h31q47 0 47 44q0 19 -12.5 31.5t-34.5 12.5h-31zM67 582v57h16q31 0 31 -28q0 -29 -31 -29h-16zM217 582h-46v21h46v16
h-46v20h46v16h-62v-88h62v15zM320 567h16v88h-21l-26 -36l-26 36h-21v-88h17v66l30 -39l31 40v-67zM406 660q-19 0 -32 -13.5t-13 -33.5t11.5 -33.5t33.5 -13.5q23 0 35 13.5t12 33.5q0 21 -13.5 34t-33.5 13zM376 613q0 13 8 22.5t22 9.5q15 0 23 -9.5t8 -22.5
q0 -32 -31 -32q-14 0 -22 10t-8 22z" />
    <glyph glyph-name="endash" unicode="&#x2013;" horiz-adv-x="373" 
d="M303 0h-232v700h232v-700zM126 77h121v48q0 30 -18 45.5t-43 14.5q-25 0 -42.5 -15.5t-17.5 -44.5v-48zM148 99v26q-1 34 38 38q16 0 28 -9.5t12 -28.5v-26h-78zM226 310v-67h-28v65h-21v-65h-28v67h-23v-90h121v90h-21zM247 455v22h-121v-26l53 -39l-53 -37v-26h121v22
h-87l53 39v4l-53 41h87zM123 574q0 -26 18.5 -44t46.5 -18q26 0 44.5 16t18.5 46q0 29 -19 45t-45 17q-26 0 -45 -16t-19 -46zM188 534q-19 -1 -31.5 10t-11.5 30q0 20 13 30t30 10q41 -4 41 -40q0 -20 -12 -30t-29 -10z" />
    <glyph glyph-name="emdash" unicode="&#x2014;" horiz-adv-x="373" 
d="M303 0h-232v700h232v-700zM126 77h121v48q0 30 -18 45.5t-43 14.5q-25 0 -42.5 -15.5t-17.5 -44.5v-48zM148 99v26q-1 34 38 38q16 0 28 -9.5t12 -28.5v-26h-78zM226 310v-67h-28v65h-21v-65h-28v67h-23v-90h121v90h-21zM247 455v22h-121v-26l53 -39l-53 -37v-26h121v22
h-87l53 39v4l-53 41h87zM123 574q0 -26 18.5 -44t46.5 -18q26 0 44.5 16t18.5 46q0 29 -19 45t-45 17q-26 0 -45 -16t-19 -46zM188 534q-19 -1 -31.5 10t-11.5 30q0 20 13 30t30 10q41 -4 41 -40q0 -20 -12 -30t-29 -10z" />
    <glyph glyph-name="quoteleft" unicode="&#x2018;" horiz-adv-x="373" 
d="M303 0h-232v700h232v-700zM126 77h121v48q0 30 -18 45.5t-43 14.5q-25 0 -42.5 -15.5t-17.5 -44.5v-48zM148 99v26q-1 34 38 38q16 0 28 -9.5t12 -28.5v-26h-78zM226 310v-67h-28v65h-21v-65h-28v67h-23v-90h121v90h-21zM247 455v22h-121v-26l53 -39l-53 -37v-26h121v22
h-87l53 39v4l-53 41h87zM123 574q0 -26 18.5 -44t46.5 -18q26 0 44.5 16t18.5 46q0 29 -19 45t-45 17q-26 0 -45 -16t-19 -46zM188 534q-19 -1 -31.5 10t-11.5 30q0 20 13 30t30 10q41 -4 41 -40q0 -20 -12 -30t-29 -10z" />
    <glyph glyph-name="quoteright" unicode="&#x2019;" horiz-adv-x="373" 
d="M303 0h-232v700h232v-700zM126 77h121v48q0 30 -18 45.5t-43 14.5q-25 0 -42.5 -15.5t-17.5 -44.5v-48zM148 99v26q-1 34 38 38q16 0 28 -9.5t12 -28.5v-26h-78zM226 310v-67h-28v65h-21v-65h-28v67h-23v-90h121v90h-21zM247 455v22h-121v-26l53 -39l-53 -37v-26h121v22
h-87l53 39v4l-53 41h87zM123 574q0 -26 18.5 -44t46.5 -18q26 0 44.5 16t18.5 46q0 29 -19 45t-45 17q-26 0 -45 -16t-19 -46zM188 534q-19 -1 -31.5 10t-11.5 30q0 20 13 30t30 10q41 -4 41 -40q0 -20 -12 -30t-29 -10z" />
    <glyph glyph-name="quotesinglbase" unicode="&#x201a;" horiz-adv-x="373" 
d="M303 0h-232v700h232v-700zM126 77h121v48q0 30 -18 45.5t-43 14.5q-25 0 -42.5 -15.5t-17.5 -44.5v-48zM148 99v26q-1 34 38 38q16 0 28 -9.5t12 -28.5v-26h-78zM226 310v-67h-28v65h-21v-65h-28v67h-23v-90h121v90h-21zM247 455v22h-121v-26l53 -39l-53 -37v-26h121v22
h-87l53 39v4l-53 41h87zM123 574q0 -26 18.5 -44t46.5 -18q26 0 44.5 16t18.5 46q0 29 -19 45t-45 17q-26 0 -45 -16t-19 -46zM188 534q-19 -1 -31.5 10t-11.5 30q0 20 13 30t30 10q41 -4 41 -40q0 -20 -12 -30t-29 -10z" />
    <glyph glyph-name="quotedblleft" unicode="&#x201c;" horiz-adv-x="373" 
d="M303 0h-232v700h232v-700zM126 77h121v48q0 30 -18 45.5t-43 14.5q-25 0 -42.5 -15.5t-17.5 -44.5v-48zM148 99v26q-1 34 38 38q16 0 28 -9.5t12 -28.5v-26h-78zM226 310v-67h-28v65h-21v-65h-28v67h-23v-90h121v90h-21zM247 455v22h-121v-26l53 -39l-53 -37v-26h121v22
h-87l53 39v4l-53 41h87zM123 574q0 -26 18.5 -44t46.5 -18q26 0 44.5 16t18.5 46q0 29 -19 45t-45 17q-26 0 -45 -16t-19 -46zM188 534q-19 -1 -31.5 10t-11.5 30q0 20 13 30t30 10q41 -4 41 -40q0 -20 -12 -30t-29 -10z" />
    <glyph glyph-name="quotedblright" unicode="&#x201d;" horiz-adv-x="373" 
d="M303 0h-232v700h232v-700zM126 77h121v48q0 30 -18 45.5t-43 14.5q-25 0 -42.5 -15.5t-17.5 -44.5v-48zM148 99v26q-1 34 38 38q16 0 28 -9.5t12 -28.5v-26h-78zM226 310v-67h-28v65h-21v-65h-28v67h-23v-90h121v90h-21zM247 455v22h-121v-26l53 -39l-53 -37v-26h121v22
h-87l53 39v4l-53 41h87zM123 574q0 -26 18.5 -44t46.5 -18q26 0 44.5 16t18.5 46q0 29 -19 45t-45 17q-26 0 -45 -16t-19 -46zM188 534q-19 -1 -31.5 10t-11.5 30q0 20 13 30t30 10q41 -4 41 -40q0 -20 -12 -30t-29 -10z" />
    <glyph glyph-name="quotedblbase" unicode="&#x201e;" horiz-adv-x="373" 
d="M303 0h-232v700h232v-700zM126 77h121v48q0 30 -18 45.5t-43 14.5q-25 0 -42.5 -15.5t-17.5 -44.5v-48zM148 99v26q-1 34 38 38q16 0 28 -9.5t12 -28.5v-26h-78zM226 310v-67h-28v65h-21v-65h-28v67h-23v-90h121v90h-21zM247 455v22h-121v-26l53 -39l-53 -37v-26h121v22
h-87l53 39v4l-53 41h87zM123 574q0 -26 18.5 -44t46.5 -18q26 0 44.5 16t18.5 46q0 29 -19 45t-45 17q-26 0 -45 -16t-19 -46zM188 534q-19 -1 -31.5 10t-11.5 30q0 20 13 30t30 10q41 -4 41 -40q0 -20 -12 -30t-29 -10z" />
    <glyph glyph-name="dagger" unicode="&#x2020;" horiz-adv-x="373" 
d="M303 0h-232v700h232v-700zM126 77h121v48q0 30 -18 45.5t-43 14.5q-25 0 -42.5 -15.5t-17.5 -44.5v-48zM148 99v26q-1 34 38 38q16 0 28 -9.5t12 -28.5v-26h-78zM226 310v-67h-28v65h-21v-65h-28v67h-23v-90h121v90h-21zM247 455v22h-121v-26l53 -39l-53 -37v-26h121v22
h-87l53 39v4l-53 41h87zM123 574q0 -26 18.5 -44t46.5 -18q26 0 44.5 16t18.5 46q0 29 -19 45t-45 17q-26 0 -45 -16t-19 -46zM188 534q-19 -1 -31.5 10t-11.5 30q0 20 13 30t30 10q41 -4 41 -40q0 -20 -12 -30t-29 -10z" />
    <glyph glyph-name="daggerdbl" unicode="&#x2021;" horiz-adv-x="373" 
d="M303 0h-232v700h232v-700zM126 77h121v48q0 30 -18 45.5t-43 14.5q-25 0 -42.5 -15.5t-17.5 -44.5v-48zM148 99v26q-1 34 38 38q16 0 28 -9.5t12 -28.5v-26h-78zM226 310v-67h-28v65h-21v-65h-28v67h-23v-90h121v90h-21zM247 455v22h-121v-26l53 -39l-53 -37v-26h121v22
h-87l53 39v4l-53 41h87zM123 574q0 -26 18.5 -44t46.5 -18q26 0 44.5 16t18.5 46q0 29 -19 45t-45 17q-26 0 -45 -16t-19 -46zM188 534q-19 -1 -31.5 10t-11.5 30q0 20 13 30t30 10q41 -4 41 -40q0 -20 -12 -30t-29 -10z" />
    <glyph glyph-name="bullet" unicode="&#x2022;" horiz-adv-x="373" 
d="M303 0h-232v700h232v-700zM126 77h121v48q0 30 -18 45.5t-43 14.5q-25 0 -42.5 -15.5t-17.5 -44.5v-48zM148 99v26q-1 34 38 38q16 0 28 -9.5t12 -28.5v-26h-78zM226 310v-67h-28v65h-21v-65h-28v67h-23v-90h121v90h-21zM247 455v22h-121v-26l53 -39l-53 -37v-26h121v22
h-87l53 39v4l-53 41h87zM123 574q0 -26 18.5 -44t46.5 -18q26 0 44.5 16t18.5 46q0 29 -19 45t-45 17q-26 0 -45 -16t-19 -46zM188 534q-19 -1 -31.5 10t-11.5 30q0 20 13 30t30 10q41 -4 41 -40q0 -20 -12 -30t-29 -10z" />
    <glyph glyph-name="ellipsis" unicode="&#x2026;" horiz-adv-x="373" 
d="M303 0h-232v700h232v-700zM126 77h121v48q0 30 -18 45.5t-43 14.5q-25 0 -42.5 -15.5t-17.5 -44.5v-48zM148 99v26q-1 34 38 38q16 0 28 -9.5t12 -28.5v-26h-78zM226 310v-67h-28v65h-21v-65h-28v67h-23v-90h121v90h-21zM247 455v22h-121v-26l53 -39l-53 -37v-26h121v22
h-87l53 39v4l-53 41h87zM123 574q0 -26 18.5 -44t46.5 -18q26 0 44.5 16t18.5 46q0 29 -19 45t-45 17q-26 0 -45 -16t-19 -46zM188 534q-19 -1 -31.5 10t-11.5 30q0 20 13 30t30 10q41 -4 41 -40q0 -20 -12 -30t-29 -10z" />
    <glyph glyph-name="perthousand" unicode="&#x2030;" horiz-adv-x="373" 
d="M303 0h-232v700h232v-700zM126 77h121v48q0 30 -18 45.5t-43 14.5q-25 0 -42.5 -15.5t-17.5 -44.5v-48zM148 99v26q-1 34 38 38q16 0 28 -9.5t12 -28.5v-26h-78zM226 310v-67h-28v65h-21v-65h-28v67h-23v-90h121v90h-21zM247 455v22h-121v-26l53 -39l-53 -37v-26h121v22
h-87l53 39v4l-53 41h87zM123 574q0 -26 18.5 -44t46.5 -18q26 0 44.5 16t18.5 46q0 29 -19 45t-45 17q-26 0 -45 -16t-19 -46zM188 534q-19 -1 -31.5 10t-11.5 30q0 20 13 30t30 10q41 -4 41 -40q0 -20 -12 -30t-29 -10z" />
    <glyph glyph-name="guilsinglleft" unicode="&#x2039;" horiz-adv-x="373" 
d="M303 0h-232v700h232v-700zM126 77h121v48q0 30 -18 45.5t-43 14.5q-25 0 -42.5 -15.5t-17.5 -44.5v-48zM148 99v26q-1 34 38 38q16 0 28 -9.5t12 -28.5v-26h-78zM226 310v-67h-28v65h-21v-65h-28v67h-23v-90h121v90h-21zM247 455v22h-121v-26l53 -39l-53 -37v-26h121v22
h-87l53 39v4l-53 41h87zM123 574q0 -26 18.5 -44t46.5 -18q26 0 44.5 16t18.5 46q0 29 -19 45t-45 17q-26 0 -45 -16t-19 -46zM188 534q-19 -1 -31.5 10t-11.5 30q0 20 13 30t30 10q41 -4 41 -40q0 -20 -12 -30t-29 -10z" />
    <glyph glyph-name="guilsinglright" unicode="&#x203a;" horiz-adv-x="373" 
d="M303 0h-232v700h232v-700zM126 77h121v48q0 30 -18 45.5t-43 14.5q-25 0 -42.5 -15.5t-17.5 -44.5v-48zM148 99v26q-1 34 38 38q16 0 28 -9.5t12 -28.5v-26h-78zM226 310v-67h-28v65h-21v-65h-28v67h-23v-90h121v90h-21zM247 455v22h-121v-26l53 -39l-53 -37v-26h121v22
h-87l53 39v4l-53 41h87zM123 574q0 -26 18.5 -44t46.5 -18q26 0 44.5 16t18.5 46q0 29 -19 45t-45 17q-26 0 -45 -16t-19 -46zM188 534q-19 -1 -31.5 10t-11.5 30q0 20 13 30t30 10q41 -4 41 -40q0 -20 -12 -30t-29 -10z" />
    <glyph glyph-name="fraction" unicode="&#x2044;" horiz-adv-x="187" 
d="M-109 -15h-50l458 730h50z" />
    <glyph glyph-name="zero.sups" unicode="&#x2070;" 
d="M303 0h-232v700h232v-700zM126 77h121v48q0 30 -18 45.5t-43 14.5q-25 0 -42.5 -15.5t-17.5 -44.5v-48zM148 99v26q-1 34 38 38q16 0 28 -9.5t12 -28.5v-26h-78zM226 310v-67h-28v65h-21v-65h-28v67h-23v-90h121v90h-21zM247 455v22h-121v-26l53 -39l-53 -37v-26h121v22
h-87l53 39v4l-53 41h87zM123 574q0 -26 18.5 -44t46.5 -18q26 0 44.5 16t18.5 46q0 29 -19 45t-45 17q-26 0 -45 -16t-19 -46zM188 534q-19 -1 -31.5 10t-11.5 30q0 20 13 30t30 10q41 -4 41 -40q0 -20 -12 -30t-29 -10z" />
    <glyph glyph-name="four.sups" unicode="&#x2074;" 
d="M303 0h-232v700h232v-700zM126 77h121v48q0 30 -18 45.5t-43 14.5q-25 0 -42.5 -15.5t-17.5 -44.5v-48zM148 99v26q-1 34 38 38q16 0 28 -9.5t12 -28.5v-26h-78zM226 310v-67h-28v65h-21v-65h-28v67h-23v-90h121v90h-21zM247 455v22h-121v-26l53 -39l-53 -37v-26h121v22
h-87l53 39v4l-53 41h87zM123 574q0 -26 18.5 -44t46.5 -18q26 0 44.5 16t18.5 46q0 29 -19 45t-45 17q-26 0 -45 -16t-19 -46zM188 534q-19 -1 -31.5 10t-11.5 30q0 20 13 30t30 10q41 -4 41 -40q0 -20 -12 -30t-29 -10z" />
    <glyph glyph-name="five.sups" unicode="&#x2075;" 
d="M303 0h-232v700h232v-700zM126 77h121v48q0 30 -18 45.5t-43 14.5q-25 0 -42.5 -15.5t-17.5 -44.5v-48zM148 99v26q-1 34 38 38q16 0 28 -9.5t12 -28.5v-26h-78zM226 310v-67h-28v65h-21v-65h-28v67h-23v-90h121v90h-21zM247 455v22h-121v-26l53 -39l-53 -37v-26h121v22
h-87l53 39v4l-53 41h87zM123 574q0 -26 18.5 -44t46.5 -18q26 0 44.5 16t18.5 46q0 29 -19 45t-45 17q-26 0 -45 -16t-19 -46zM188 534q-19 -1 -31.5 10t-11.5 30q0 20 13 30t30 10q41 -4 41 -40q0 -20 -12 -30t-29 -10z" />
    <glyph glyph-name="six.sups" unicode="&#x2076;" 
d="M303 0h-232v700h232v-700zM126 77h121v48q0 30 -18 45.5t-43 14.5q-25 0 -42.5 -15.5t-17.5 -44.5v-48zM148 99v26q-1 34 38 38q16 0 28 -9.5t12 -28.5v-26h-78zM226 310v-67h-28v65h-21v-65h-28v67h-23v-90h121v90h-21zM247 455v22h-121v-26l53 -39l-53 -37v-26h121v22
h-87l53 39v4l-53 41h87zM123 574q0 -26 18.5 -44t46.5 -18q26 0 44.5 16t18.5 46q0 29 -19 45t-45 17q-26 0 -45 -16t-19 -46zM188 534q-19 -1 -31.5 10t-11.5 30q0 20 13 30t30 10q41 -4 41 -40q0 -20 -12 -30t-29 -10z" />
    <glyph glyph-name="seven.sups" unicode="&#x2077;" 
d="M303 0h-232v700h232v-700zM126 77h121v48q0 30 -18 45.5t-43 14.5q-25 0 -42.5 -15.5t-17.5 -44.5v-48zM148 99v26q-1 34 38 38q16 0 28 -9.5t12 -28.5v-26h-78zM226 310v-67h-28v65h-21v-65h-28v67h-23v-90h121v90h-21zM247 455v22h-121v-26l53 -39l-53 -37v-26h121v22
h-87l53 39v4l-53 41h87zM123 574q0 -26 18.5 -44t46.5 -18q26 0 44.5 16t18.5 46q0 29 -19 45t-45 17q-26 0 -45 -16t-19 -46zM188 534q-19 -1 -31.5 10t-11.5 30q0 20 13 30t30 10q41 -4 41 -40q0 -20 -12 -30t-29 -10z" />
    <glyph glyph-name="eight.sups" unicode="&#x2078;" 
d="M303 0h-232v700h232v-700zM126 77h121v48q0 30 -18 45.5t-43 14.5q-25 0 -42.5 -15.5t-17.5 -44.5v-48zM148 99v26q-1 34 38 38q16 0 28 -9.5t12 -28.5v-26h-78zM226 310v-67h-28v65h-21v-65h-28v67h-23v-90h121v90h-21zM247 455v22h-121v-26l53 -39l-53 -37v-26h121v22
h-87l53 39v4l-53 41h87zM123 574q0 -26 18.5 -44t46.5 -18q26 0 44.5 16t18.5 46q0 29 -19 45t-45 17q-26 0 -45 -16t-19 -46zM188 534q-19 -1 -31.5 10t-11.5 30q0 20 13 30t30 10q41 -4 41 -40q0 -20 -12 -30t-29 -10z" />
    <glyph glyph-name="nine.sups" unicode="&#x2079;" 
d="M303 0h-232v700h232v-700zM126 77h121v48q0 30 -18 45.5t-43 14.5q-25 0 -42.5 -15.5t-17.5 -44.5v-48zM148 99v26q-1 34 38 38q16 0 28 -9.5t12 -28.5v-26h-78zM226 310v-67h-28v65h-21v-65h-28v67h-23v-90h121v90h-21zM247 455v22h-121v-26l53 -39l-53 -37v-26h121v22
h-87l53 39v4l-53 41h87zM123 574q0 -26 18.5 -44t46.5 -18q26 0 44.5 16t18.5 46q0 29 -19 45t-45 17q-26 0 -45 -16t-19 -46zM188 534q-19 -1 -31.5 10t-11.5 30q0 20 13 30t30 10q41 -4 41 -40q0 -20 -12 -30t-29 -10z" />
    <glyph glyph-name="zero.sinf" unicode="&#x2080;" 
d="M303 0h-232v700h232v-700zM126 77h121v48q0 30 -18 45.5t-43 14.5q-25 0 -42.5 -15.5t-17.5 -44.5v-48zM148 99v26q-1 34 38 38q16 0 28 -9.5t12 -28.5v-26h-78zM226 310v-67h-28v65h-21v-65h-28v67h-23v-90h121v90h-21zM247 455v22h-121v-26l53 -39l-53 -37v-26h121v22
h-87l53 39v4l-53 41h87zM123 574q0 -26 18.5 -44t46.5 -18q26 0 44.5 16t18.5 46q0 29 -19 45t-45 17q-26 0 -45 -16t-19 -46zM188 534q-19 -1 -31.5 10t-11.5 30q0 20 13 30t30 10q41 -4 41 -40q0 -20 -12 -30t-29 -10z" />
    <glyph glyph-name="one.sinf" unicode="&#x2081;" 
d="M303 0h-232v700h232v-700zM126 77h121v48q0 30 -18 45.5t-43 14.5q-25 0 -42.5 -15.5t-17.5 -44.5v-48zM148 99v26q-1 34 38 38q16 0 28 -9.5t12 -28.5v-26h-78zM226 310v-67h-28v65h-21v-65h-28v67h-23v-90h121v90h-21zM247 455v22h-121v-26l53 -39l-53 -37v-26h121v22
h-87l53 39v4l-53 41h87zM123 574q0 -26 18.5 -44t46.5 -18q26 0 44.5 16t18.5 46q0 29 -19 45t-45 17q-26 0 -45 -16t-19 -46zM188 534q-19 -1 -31.5 10t-11.5 30q0 20 13 30t30 10q41 -4 41 -40q0 -20 -12 -30t-29 -10z" />
    <glyph glyph-name="two.sinf" unicode="&#x2082;" 
d="M303 0h-232v700h232v-700zM126 77h121v48q0 30 -18 45.5t-43 14.5q-25 0 -42.5 -15.5t-17.5 -44.5v-48zM148 99v26q-1 34 38 38q16 0 28 -9.5t12 -28.5v-26h-78zM226 310v-67h-28v65h-21v-65h-28v67h-23v-90h121v90h-21zM247 455v22h-121v-26l53 -39l-53 -37v-26h121v22
h-87l53 39v4l-53 41h87zM123 574q0 -26 18.5 -44t46.5 -18q26 0 44.5 16t18.5 46q0 29 -19 45t-45 17q-26 0 -45 -16t-19 -46zM188 534q-19 -1 -31.5 10t-11.5 30q0 20 13 30t30 10q41 -4 41 -40q0 -20 -12 -30t-29 -10z" />
    <glyph glyph-name="three.sinf" unicode="&#x2083;" 
d="M303 0h-232v700h232v-700zM126 77h121v48q0 30 -18 45.5t-43 14.5q-25 0 -42.5 -15.5t-17.5 -44.5v-48zM148 99v26q-1 34 38 38q16 0 28 -9.5t12 -28.5v-26h-78zM226 310v-67h-28v65h-21v-65h-28v67h-23v-90h121v90h-21zM247 455v22h-121v-26l53 -39l-53 -37v-26h121v22
h-87l53 39v4l-53 41h87zM123 574q0 -26 18.5 -44t46.5 -18q26 0 44.5 16t18.5 46q0 29 -19 45t-45 17q-26 0 -45 -16t-19 -46zM188 534q-19 -1 -31.5 10t-11.5 30q0 20 13 30t30 10q41 -4 41 -40q0 -20 -12 -30t-29 -10z" />
    <glyph glyph-name="four.sinf" unicode="&#x2084;" 
d="M303 0h-232v700h232v-700zM126 77h121v48q0 30 -18 45.5t-43 14.5q-25 0 -42.5 -15.5t-17.5 -44.5v-48zM148 99v26q-1 34 38 38q16 0 28 -9.5t12 -28.5v-26h-78zM226 310v-67h-28v65h-21v-65h-28v67h-23v-90h121v90h-21zM247 455v22h-121v-26l53 -39l-53 -37v-26h121v22
h-87l53 39v4l-53 41h87zM123 574q0 -26 18.5 -44t46.5 -18q26 0 44.5 16t18.5 46q0 29 -19 45t-45 17q-26 0 -45 -16t-19 -46zM188 534q-19 -1 -31.5 10t-11.5 30q0 20 13 30t30 10q41 -4 41 -40q0 -20 -12 -30t-29 -10z" />
    <glyph glyph-name="five.sinf" unicode="&#x2085;" 
d="M303 0h-232v700h232v-700zM126 77h121v48q0 30 -18 45.5t-43 14.5q-25 0 -42.5 -15.5t-17.5 -44.5v-48zM148 99v26q-1 34 38 38q16 0 28 -9.5t12 -28.5v-26h-78zM226 310v-67h-28v65h-21v-65h-28v67h-23v-90h121v90h-21zM247 455v22h-121v-26l53 -39l-53 -37v-26h121v22
h-87l53 39v4l-53 41h87zM123 574q0 -26 18.5 -44t46.5 -18q26 0 44.5 16t18.5 46q0 29 -19 45t-45 17q-26 0 -45 -16t-19 -46zM188 534q-19 -1 -31.5 10t-11.5 30q0 20 13 30t30 10q41 -4 41 -40q0 -20 -12 -30t-29 -10z" />
    <glyph glyph-name="six.sinf" unicode="&#x2086;" 
d="M303 0h-232v700h232v-700zM126 77h121v48q0 30 -18 45.5t-43 14.5q-25 0 -42.5 -15.5t-17.5 -44.5v-48zM148 99v26q-1 34 38 38q16 0 28 -9.5t12 -28.5v-26h-78zM226 310v-67h-28v65h-21v-65h-28v67h-23v-90h121v90h-21zM247 455v22h-121v-26l53 -39l-53 -37v-26h121v22
h-87l53 39v4l-53 41h87zM123 574q0 -26 18.5 -44t46.5 -18q26 0 44.5 16t18.5 46q0 29 -19 45t-45 17q-26 0 -45 -16t-19 -46zM188 534q-19 -1 -31.5 10t-11.5 30q0 20 13 30t30 10q41 -4 41 -40q0 -20 -12 -30t-29 -10z" />
    <glyph glyph-name="seven.sinf" unicode="&#x2087;" 
d="M303 0h-232v700h232v-700zM126 77h121v48q0 30 -18 45.5t-43 14.5q-25 0 -42.5 -15.5t-17.5 -44.5v-48zM148 99v26q-1 34 38 38q16 0 28 -9.5t12 -28.5v-26h-78zM226 310v-67h-28v65h-21v-65h-28v67h-23v-90h121v90h-21zM247 455v22h-121v-26l53 -39l-53 -37v-26h121v22
h-87l53 39v4l-53 41h87zM123 574q0 -26 18.5 -44t46.5 -18q26 0 44.5 16t18.5 46q0 29 -19 45t-45 17q-26 0 -45 -16t-19 -46zM188 534q-19 -1 -31.5 10t-11.5 30q0 20 13 30t30 10q41 -4 41 -40q0 -20 -12 -30t-29 -10z" />
    <glyph glyph-name="eight.sinf" unicode="&#x2088;" 
d="M303 0h-232v700h232v-700zM126 77h121v48q0 30 -18 45.5t-43 14.5q-25 0 -42.5 -15.5t-17.5 -44.5v-48zM148 99v26q-1 34 38 38q16 0 28 -9.5t12 -28.5v-26h-78zM226 310v-67h-28v65h-21v-65h-28v67h-23v-90h121v90h-21zM247 455v22h-121v-26l53 -39l-53 -37v-26h121v22
h-87l53 39v4l-53 41h87zM123 574q0 -26 18.5 -44t46.5 -18q26 0 44.5 16t18.5 46q0 29 -19 45t-45 17q-26 0 -45 -16t-19 -46zM188 534q-19 -1 -31.5 10t-11.5 30q0 20 13 30t30 10q41 -4 41 -40q0 -20 -12 -30t-29 -10z" />
    <glyph glyph-name="nine.sinf" unicode="&#x2089;" 
d="M303 0h-232v700h232v-700zM126 77h121v48q0 30 -18 45.5t-43 14.5q-25 0 -42.5 -15.5t-17.5 -44.5v-48zM148 99v26q-1 34 38 38q16 0 28 -9.5t12 -28.5v-26h-78zM226 310v-67h-28v65h-21v-65h-28v67h-23v-90h121v90h-21zM247 455v22h-121v-26l53 -39l-53 -37v-26h121v22
h-87l53 39v4l-53 41h87zM123 574q0 -26 18.5 -44t46.5 -18q26 0 44.5 16t18.5 46q0 29 -19 45t-45 17q-26 0 -45 -16t-19 -46zM188 534q-19 -1 -31.5 10t-11.5 30q0 20 13 30t30 10q41 -4 41 -40q0 -20 -12 -30t-29 -10z" />
    <glyph glyph-name="Euro" unicode="&#x20ac;" horiz-adv-x="373" 
d="M303 0h-232v700h232v-700zM126 77h121v48q0 30 -18 45.5t-43 14.5q-25 0 -42.5 -15.5t-17.5 -44.5v-48zM148 99v26q-1 34 38 38q16 0 28 -9.5t12 -28.5v-26h-78zM226 310v-67h-28v65h-21v-65h-28v67h-23v-90h121v90h-21zM247 455v22h-121v-26l53 -39l-53 -37v-26h121v22
h-87l53 39v4l-53 41h87zM123 574q0 -26 18.5 -44t46.5 -18q26 0 44.5 16t18.5 46q0 29 -19 45t-45 17q-26 0 -45 -16t-19 -46zM188 534q-19 -1 -31.5 10t-11.5 30q0 20 13 30t30 10q41 -4 41 -40q0 -20 -12 -30t-29 -10z" />
    <glyph glyph-name="trademark" unicode="&#x2122;" horiz-adv-x="373" 
d="M303 0h-232v700h232v-700zM126 77h121v48q0 30 -18 45.5t-43 14.5q-25 0 -42.5 -15.5t-17.5 -44.5v-48zM148 99v26q-1 34 38 38q16 0 28 -9.5t12 -28.5v-26h-78zM226 310v-67h-28v65h-21v-65h-28v67h-23v-90h121v90h-21zM247 455v22h-121v-26l53 -39l-53 -37v-26h121v22
h-87l53 39v4l-53 41h87zM123 574q0 -26 18.5 -44t46.5 -18q26 0 44.5 16t18.5 46q0 29 -19 45t-45 17q-26 0 -45 -16t-19 -46zM188 534q-19 -1 -31.5 10t-11.5 30q0 20 13 30t30 10q41 -4 41 -40q0 -20 -12 -30t-29 -10z" />
    <glyph glyph-name="oneeighth" unicode="&#x215b;" 
d="M303 0h-232v700h232v-700zM126 77h121v48q0 30 -18 45.5t-43 14.5q-25 0 -42.5 -15.5t-17.5 -44.5v-48zM148 99v26q-1 34 38 38q16 0 28 -9.5t12 -28.5v-26h-78zM226 310v-67h-28v65h-21v-65h-28v67h-23v-90h121v90h-21zM247 455v22h-121v-26l53 -39l-53 -37v-26h121v22
h-87l53 39v4l-53 41h87zM123 574q0 -26 18.5 -44t46.5 -18q26 0 44.5 16t18.5 46q0 29 -19 45t-45 17q-26 0 -45 -16t-19 -46zM188 534q-19 -1 -31.5 10t-11.5 30q0 20 13 30t30 10q41 -4 41 -40q0 -20 -12 -30t-29 -10z" />
    <glyph glyph-name="threeeighths" unicode="&#x215c;" 
d="M303 0h-232v700h232v-700zM126 77h121v48q0 30 -18 45.5t-43 14.5q-25 0 -42.5 -15.5t-17.5 -44.5v-48zM148 99v26q-1 34 38 38q16 0 28 -9.5t12 -28.5v-26h-78zM226 310v-67h-28v65h-21v-65h-28v67h-23v-90h121v90h-21zM247 455v22h-121v-26l53 -39l-53 -37v-26h121v22
h-87l53 39v4l-53 41h87zM123 574q0 -26 18.5 -44t46.5 -18q26 0 44.5 16t18.5 46q0 29 -19 45t-45 17q-26 0 -45 -16t-19 -46zM188 534q-19 -1 -31.5 10t-11.5 30q0 20 13 30t30 10q41 -4 41 -40q0 -20 -12 -30t-29 -10z" />
    <glyph glyph-name="fiveeighths" unicode="&#x215d;" 
d="M303 0h-232v700h232v-700zM126 77h121v48q0 30 -18 45.5t-43 14.5q-25 0 -42.5 -15.5t-17.5 -44.5v-48zM148 99v26q-1 34 38 38q16 0 28 -9.5t12 -28.5v-26h-78zM226 310v-67h-28v65h-21v-65h-28v67h-23v-90h121v90h-21zM247 455v22h-121v-26l53 -39l-53 -37v-26h121v22
h-87l53 39v4l-53 41h87zM123 574q0 -26 18.5 -44t46.5 -18q26 0 44.5 16t18.5 46q0 29 -19 45t-45 17q-26 0 -45 -16t-19 -46zM188 534q-19 -1 -31.5 10t-11.5 30q0 20 13 30t30 10q41 -4 41 -40q0 -20 -12 -30t-29 -10z" />
    <glyph glyph-name="seveneighths" unicode="&#x215e;" 
d="M303 0h-232v700h232v-700zM126 77h121v48q0 30 -18 45.5t-43 14.5q-25 0 -42.5 -15.5t-17.5 -44.5v-48zM148 99v26q-1 34 38 38q16 0 28 -9.5t12 -28.5v-26h-78zM226 310v-67h-28v65h-21v-65h-28v67h-23v-90h121v90h-21zM247 455v22h-121v-26l53 -39l-53 -37v-26h121v22
h-87l53 39v4l-53 41h87zM123 574q0 -26 18.5 -44t46.5 -18q26 0 44.5 16t18.5 46q0 29 -19 45t-45 17q-26 0 -45 -16t-19 -46zM188 534q-19 -1 -31.5 10t-11.5 30q0 20 13 30t30 10q41 -4 41 -40q0 -20 -12 -30t-29 -10z" />
    <glyph glyph-name="partialdiff" unicode="&#x2202;" 
d="M303 0h-232v700h232v-700zM126 77h121v48q0 30 -18 45.5t-43 14.5q-25 0 -42.5 -15.5t-17.5 -44.5v-48zM148 99v26q-1 34 38 38q16 0 28 -9.5t12 -28.5v-26h-78zM226 310v-67h-28v65h-21v-65h-28v67h-23v-90h121v90h-21zM247 455v22h-121v-26l53 -39l-53 -37v-26h121v22
h-87l53 39v4l-53 41h87zM123 574q0 -26 18.5 -44t46.5 -18q26 0 44.5 16t18.5 46q0 29 -19 45t-45 17q-26 0 -45 -16t-19 -46zM188 534q-19 -1 -31.5 10t-11.5 30q0 20 13 30t30 10q41 -4 41 -40q0 -20 -12 -30t-29 -10z" />
    <glyph glyph-name="emptyset" unicode="&#x2205;" 
d="M303 0h-232v700h232v-700zM126 77h121v48q0 30 -18 45.5t-43 14.5q-25 0 -42.5 -15.5t-17.5 -44.5v-48zM148 99v26q-1 34 38 38q16 0 28 -9.5t12 -28.5v-26h-78zM226 310v-67h-28v65h-21v-65h-28v67h-23v-90h121v90h-21zM247 455v22h-121v-26l53 -39l-53 -37v-26h121v22
h-87l53 39v4l-53 41h87zM123 574q0 -26 18.5 -44t46.5 -18q26 0 44.5 16t18.5 46q0 29 -19 45t-45 17q-26 0 -45 -16t-19 -46zM188 534q-19 -1 -31.5 10t-11.5 30q0 20 13 30t30 10q41 -4 41 -40q0 -20 -12 -30t-29 -10z" />
    <glyph glyph-name="product" unicode="&#x220f;" 
d="M303 0h-232v700h232v-700zM126 77h121v48q0 30 -18 45.5t-43 14.5q-25 0 -42.5 -15.5t-17.5 -44.5v-48zM148 99v26q-1 34 38 38q16 0 28 -9.5t12 -28.5v-26h-78zM226 310v-67h-28v65h-21v-65h-28v67h-23v-90h121v90h-21zM247 455v22h-121v-26l53 -39l-53 -37v-26h121v22
h-87l53 39v4l-53 41h87zM123 574q0 -26 18.5 -44t46.5 -18q26 0 44.5 16t18.5 46q0 29 -19 45t-45 17q-26 0 -45 -16t-19 -46zM188 534q-19 -1 -31.5 10t-11.5 30q0 20 13 30t30 10q41 -4 41 -40q0 -20 -12 -30t-29 -10z" />
    <glyph glyph-name="summation" unicode="&#x2211;" 
d="M303 0h-232v700h232v-700zM126 77h121v48q0 30 -18 45.5t-43 14.5q-25 0 -42.5 -15.5t-17.5 -44.5v-48zM148 99v26q-1 34 38 38q16 0 28 -9.5t12 -28.5v-26h-78zM226 310v-67h-28v65h-21v-65h-28v67h-23v-90h121v90h-21zM247 455v22h-121v-26l53 -39l-53 -37v-26h121v22
h-87l53 39v4l-53 41h87zM123 574q0 -26 18.5 -44t46.5 -18q26 0 44.5 16t18.5 46q0 29 -19 45t-45 17q-26 0 -45 -16t-19 -46zM188 534q-19 -1 -31.5 10t-11.5 30q0 20 13 30t30 10q41 -4 41 -40q0 -20 -12 -30t-29 -10z" />
    <glyph glyph-name="minus" unicode="&#x2212;" horiz-adv-x="373" 
d="M303 0h-232v700h232v-700zM126 77h121v48q0 30 -18 45.5t-43 14.5q-25 0 -42.5 -15.5t-17.5 -44.5v-48zM148 99v26q-1 34 38 38q16 0 28 -9.5t12 -28.5v-26h-78zM226 310v-67h-28v65h-21v-65h-28v67h-23v-90h121v90h-21zM247 455v22h-121v-26l53 -39l-53 -37v-26h121v22
h-87l53 39v4l-53 41h87zM123 574q0 -26 18.5 -44t46.5 -18q26 0 44.5 16t18.5 46q0 29 -19 45t-45 17q-26 0 -45 -16t-19 -46zM188 534q-19 -1 -31.5 10t-11.5 30q0 20 13 30t30 10q41 -4 41 -40q0 -20 -12 -30t-29 -10z" />
    <glyph glyph-name="radical" unicode="&#x221a;" 
d="M303 0h-232v700h232v-700zM126 77h121v48q0 30 -18 45.5t-43 14.5q-25 0 -42.5 -15.5t-17.5 -44.5v-48zM148 99v26q-1 34 38 38q16 0 28 -9.5t12 -28.5v-26h-78zM226 310v-67h-28v65h-21v-65h-28v67h-23v-90h121v90h-21zM247 455v22h-121v-26l53 -39l-53 -37v-26h121v22
h-87l53 39v4l-53 41h87zM123 574q0 -26 18.5 -44t46.5 -18q26 0 44.5 16t18.5 46q0 29 -19 45t-45 17q-26 0 -45 -16t-19 -46zM188 534q-19 -1 -31.5 10t-11.5 30q0 20 13 30t30 10q41 -4 41 -40q0 -20 -12 -30t-29 -10z" />
    <glyph glyph-name="infinity" unicode="&#x221e;" 
d="M303 0h-232v700h232v-700zM126 77h121v48q0 30 -18 45.5t-43 14.5q-25 0 -42.5 -15.5t-17.5 -44.5v-48zM148 99v26q-1 34 38 38q16 0 28 -9.5t12 -28.5v-26h-78zM226 310v-67h-28v65h-21v-65h-28v67h-23v-90h121v90h-21zM247 455v22h-121v-26l53 -39l-53 -37v-26h121v22
h-87l53 39v4l-53 41h87zM123 574q0 -26 18.5 -44t46.5 -18q26 0 44.5 16t18.5 46q0 29 -19 45t-45 17q-26 0 -45 -16t-19 -46zM188 534q-19 -1 -31.5 10t-11.5 30q0 20 13 30t30 10q41 -4 41 -40q0 -20 -12 -30t-29 -10z" />
    <glyph glyph-name="integral" unicode="&#x222b;" 
d="M303 0h-232v700h232v-700zM126 77h121v48q0 30 -18 45.5t-43 14.5q-25 0 -42.5 -15.5t-17.5 -44.5v-48zM148 99v26q-1 34 38 38q16 0 28 -9.5t12 -28.5v-26h-78zM226 310v-67h-28v65h-21v-65h-28v67h-23v-90h121v90h-21zM247 455v22h-121v-26l53 -39l-53 -37v-26h121v22
h-87l53 39v4l-53 41h87zM123 574q0 -26 18.5 -44t46.5 -18q26 0 44.5 16t18.5 46q0 29 -19 45t-45 17q-26 0 -45 -16t-19 -46zM188 534q-19 -1 -31.5 10t-11.5 30q0 20 13 30t30 10q41 -4 41 -40q0 -20 -12 -30t-29 -10z" />
    <glyph glyph-name="approxequal" unicode="&#x2248;" 
d="M303 0h-232v700h232v-700zM126 77h121v48q0 30 -18 45.5t-43 14.5q-25 0 -42.5 -15.5t-17.5 -44.5v-48zM148 99v26q-1 34 38 38q16 0 28 -9.5t12 -28.5v-26h-78zM226 310v-67h-28v65h-21v-65h-28v67h-23v-90h121v90h-21zM247 455v22h-121v-26l53 -39l-53 -37v-26h121v22
h-87l53 39v4l-53 41h87zM123 574q0 -26 18.5 -44t46.5 -18q26 0 44.5 16t18.5 46q0 29 -19 45t-45 17q-26 0 -45 -16t-19 -46zM188 534q-19 -1 -31.5 10t-11.5 30q0 20 13 30t30 10q41 -4 41 -40q0 -20 -12 -30t-29 -10z" />
    <glyph glyph-name="notequal" unicode="&#x2260;" 
d="M303 0h-232v700h232v-700zM126 77h121v48q0 30 -18 45.5t-43 14.5q-25 0 -42.5 -15.5t-17.5 -44.5v-48zM148 99v26q-1 34 38 38q16 0 28 -9.5t12 -28.5v-26h-78zM226 310v-67h-28v65h-21v-65h-28v67h-23v-90h121v90h-21zM247 455v22h-121v-26l53 -39l-53 -37v-26h121v22
h-87l53 39v4l-53 41h87zM123 574q0 -26 18.5 -44t46.5 -18q26 0 44.5 16t18.5 46q0 29 -19 45t-45 17q-26 0 -45 -16t-19 -46zM188 534q-19 -1 -31.5 10t-11.5 30q0 20 13 30t30 10q41 -4 41 -40q0 -20 -12 -30t-29 -10z" />
    <glyph glyph-name="lessequal" unicode="&#x2264;" 
d="M303 0h-232v700h232v-700zM126 77h121v48q0 30 -18 45.5t-43 14.5q-25 0 -42.5 -15.5t-17.5 -44.5v-48zM148 99v26q-1 34 38 38q16 0 28 -9.5t12 -28.5v-26h-78zM226 310v-67h-28v65h-21v-65h-28v67h-23v-90h121v90h-21zM247 455v22h-121v-26l53 -39l-53 -37v-26h121v22
h-87l53 39v4l-53 41h87zM123 574q0 -26 18.5 -44t46.5 -18q26 0 44.5 16t18.5 46q0 29 -19 45t-45 17q-26 0 -45 -16t-19 -46zM188 534q-19 -1 -31.5 10t-11.5 30q0 20 13 30t30 10q41 -4 41 -40q0 -20 -12 -30t-29 -10z" />
    <glyph glyph-name="greaterequal" unicode="&#x2265;" 
d="M303 0h-232v700h232v-700zM126 77h121v48q0 30 -18 45.5t-43 14.5q-25 0 -42.5 -15.5t-17.5 -44.5v-48zM148 99v26q-1 34 38 38q16 0 28 -9.5t12 -28.5v-26h-78zM226 310v-67h-28v65h-21v-65h-28v67h-23v-90h121v90h-21zM247 455v22h-121v-26l53 -39l-53 -37v-26h121v22
h-87l53 39v4l-53 41h87zM123 574q0 -26 18.5 -44t46.5 -18q26 0 44.5 16t18.5 46q0 29 -19 45t-45 17q-26 0 -45 -16t-19 -46zM188 534q-19 -1 -31.5 10t-11.5 30q0 20 13 30t30 10q41 -4 41 -40q0 -20 -12 -30t-29 -10z" />
    <glyph glyph-name="lozenge" unicode="&#x25ca;" 
d="M303 0h-232v700h232v-700zM126 77h121v48q0 30 -18 45.5t-43 14.5q-25 0 -42.5 -15.5t-17.5 -44.5v-48zM148 99v26q-1 34 38 38q16 0 28 -9.5t12 -28.5v-26h-78zM226 310v-67h-28v65h-21v-65h-28v67h-23v-90h121v90h-21zM247 455v22h-121v-26l53 -39l-53 -37v-26h121v22
h-87l53 39v4l-53 41h87zM123 574q0 -26 18.5 -44t46.5 -18q26 0 44.5 16t18.5 46q0 29 -19 45t-45 17q-26 0 -45 -16t-19 -46zM188 534q-19 -1 -31.5 10t-11.5 30q0 20 13 30t30 10q41 -4 41 -40q0 -20 -12 -30t-29 -10z" />
    <glyph glyph-name="i.loclTRK" horiz-adv-x="274" 
d="M52 480h170v-480h-170v480zM-117 524v165h500v-165h-500zM-60 650v-88h31q47 0 47 44q0 19 -12.5 31.5t-34.5 12.5h-31zM-45 577v57h16q31 0 31 -28q0 -29 -31 -29h-16zM105 577h-46v21h46v16h-46v20h46v16h-62v-88h62v15zM208 562h16v88h-21l-26 -36l-26 36h-21v-88h17
v66l30 -39l31 40v-67zM294 655q-19 0 -32 -13.5t-13 -33.5t11.5 -33.5t33.5 -13.5q23 0 35 13.5t12 33.5q0 21 -13.5 34t-33.5 13zM264 608q0 13 8 22.5t22 9.5q15 0 23 -9.5t8 -22.5q0 -32 -31 -32q-14 0 -22 10t-8 22z" />
    <glyph glyph-name="a.ss01" horiz-adv-x="623" 
d="M422 65q-20 -34 -61.5 -57t-101.5 -23q-58 0 -104 22t-73 59t-41 81.5t-14 92.5t14 92.5t41 81.5t73 59t104 22q60 0 101.5 -23t61.5 -57v65h150v-480h-150v65zM202 240q0 -47 26.5 -81t76.5 -34q33 0 59 17.5t38 42.5v110q-12 25 -38 42.5t-59 17.5q-50 0 -76.5 -34
t-26.5 -81z" />
    <glyph glyph-name="aacute.ss01" horiz-adv-x="623" 
d="M422 65q-20 -34 -61.5 -57t-101.5 -23q-58 0 -104 22t-73 59t-41 81.5t-14 92.5t14 92.5t41 81.5t73 59t104 22q60 0 101.5 -23t61.5 -57v65h150v-480h-150v65zM202 240q0 -47 26.5 -81t76.5 -34q33 0 59 17.5t38 42.5v110q-12 25 -38 42.5t-59 17.5q-50 0 -76.5 -34
t-26.5 -81zM74 529v165h500v-165h-500zM131 655v-88h31q47 0 47 44q0 19 -12.5 31.5t-34.5 12.5h-31zM146 582v57h16q31 0 31 -28q0 -29 -31 -29h-16zM296 582h-46v21h46v16h-46v20h46v16h-62v-88h62v15zM399 567h16v88h-21l-26 -36l-26 36h-21v-88h17v66l30 -39l31 40v-67z
M485 660q-19 0 -32 -13.5t-13 -33.5t11.5 -33.5t33.5 -13.5q23 0 35 13.5t12 33.5q0 21 -13.5 34t-33.5 13zM455 613q0 13 8 22.5t22 9.5q15 0 23 -9.5t8 -22.5q0 -32 -31 -32q-14 0 -22 10t-8 22z" />
    <glyph glyph-name="abreve.ss01" horiz-adv-x="623" 
d="M422 65q-20 -34 -61.5 -57t-101.5 -23q-58 0 -104 22t-73 59t-41 81.5t-14 92.5t14 92.5t41 81.5t73 59t104 22q60 0 101.5 -23t61.5 -57v65h150v-480h-150v65zM202 240q0 -47 26.5 -81t76.5 -34q33 0 59 17.5t38 42.5v110q-12 25 -38 42.5t-59 17.5q-50 0 -76.5 -34
t-26.5 -81zM47 534v165h500v-165h-500zM104 660v-88h31q47 0 47 44q0 19 -12.5 31.5t-34.5 12.5h-31zM119 587v57h16q31 0 31 -28q0 -29 -31 -29h-16zM269 587h-46v21h46v16h-46v20h46v16h-62v-88h62v15zM372 572h16v88h-21l-26 -36l-26 36h-21v-88h17v66l30 -39l31 40v-67z
M458 665q-19 0 -32 -13.5t-13 -33.5t11.5 -33.5t33.5 -13.5q23 0 35 13.5t12 33.5q0 21 -13.5 34t-33.5 13zM428 618q0 13 8 22.5t22 9.5q15 0 23 -9.5t8 -22.5q0 -32 -31 -32q-14 0 -22 10t-8 22z" />
    <glyph glyph-name="acircumflex.ss01" horiz-adv-x="623" 
d="M422 65q-20 -34 -61.5 -57t-101.5 -23q-58 0 -104 22t-73 59t-41 81.5t-14 92.5t14 92.5t41 81.5t73 59t104 22q60 0 101.5 -23t61.5 -57v65h150v-480h-150v65zM202 240q0 -47 26.5 -81t76.5 -34q33 0 59 17.5t38 42.5v110q-12 25 -38 42.5t-59 17.5q-50 0 -76.5 -34
t-26.5 -81zM55 529v165h500v-165h-500zM112 655v-88h31q47 0 47 44q0 19 -12.5 31.5t-34.5 12.5h-31zM127 582v57h16q31 0 31 -28q0 -29 -31 -29h-16zM277 582h-46v21h46v16h-46v20h46v16h-62v-88h62v15zM380 567h16v88h-21l-26 -36l-26 36h-21v-88h17v66l30 -39l31 40v-67z
M466 660q-19 0 -32 -13.5t-13 -33.5t11.5 -33.5t33.5 -13.5q23 0 35 13.5t12 33.5q0 21 -13.5 34t-33.5 13zM436 613q0 13 8 22.5t22 9.5q15 0 23 -9.5t8 -22.5q0 -32 -31 -32q-14 0 -22 10t-8 22z" />
    <glyph glyph-name="adieresis.ss01" horiz-adv-x="623" 
d="M422 65q-20 -34 -61.5 -57t-101.5 -23q-58 0 -104 22t-73 59t-41 81.5t-14 92.5t14 92.5t41 81.5t73 59t104 22q60 0 101.5 -23t61.5 -57v65h150v-480h-150v65zM202 240q0 -47 26.5 -81t76.5 -34q33 0 59 17.5t38 42.5v110q-12 25 -38 42.5t-59 17.5q-50 0 -76.5 -34
t-26.5 -81zM62 694h500v-165h-500v165zM119 655v-88h31q47 0 47 44q0 19 -12.5 31.5t-34.5 12.5h-31zM134 639h16q31 0 31 -28q0 -29 -31 -29h-16v57zM284 582h-46v21h46v16h-46v20h46v16h-62v-88h62v15zM387 567h16v88h-21l-26 -36l-26 36h-21v-88h17v66l30 -39l31 40v-67z
M473 660q-19 0 -32 -13.5t-13 -33.5t11.5 -33.5t33.5 -13.5q23 0 35 13.5t12 33.5q0 21 -13.5 34t-33.5 13zM443 613q0 13 8 22.5t22 9.5q15 0 23 -9.5t8 -22.5q0 -32 -31 -32q-14 0 -22 10t-8 22z" />
    <glyph glyph-name="agrave.ss01" horiz-adv-x="623" 
d="M422 65q-20 -34 -61.5 -57t-101.5 -23q-58 0 -104 22t-73 59t-41 81.5t-14 92.5t14 92.5t41 81.5t73 59t104 22q60 0 101.5 -23t61.5 -57v65h150v-480h-150v65zM202 240q0 -47 26.5 -81t76.5 -34q33 0 59 17.5t38 42.5v110q-12 25 -38 42.5t-59 17.5q-50 0 -76.5 -34
t-26.5 -81zM22 529v165h500v-165h-500zM79 655v-88h31q47 0 47 44q0 19 -12.5 31.5t-34.5 12.5h-31zM94 582v57h16q31 0 31 -28q0 -29 -31 -29h-16zM244 582h-46v21h46v16h-46v20h46v16h-62v-88h62v15zM347 567h16v88h-21l-26 -36l-26 36h-21v-88h17v66l30 -39l31 40v-67z
M433 660q-19 0 -32 -13.5t-13 -33.5t11.5 -33.5t33.5 -13.5q23 0 35 13.5t12 33.5q0 21 -13.5 34t-33.5 13zM403 613q0 13 8 22.5t22 9.5q15 0 23 -9.5t8 -22.5q0 -32 -31 -32q-14 0 -22 10t-8 22z" />
    <glyph glyph-name="amacron.ss01" horiz-adv-x="623" 
d="M422 65q-20 -34 -61.5 -57t-101.5 -23q-58 0 -104 22t-73 59t-41 81.5t-14 92.5t14 92.5t41 81.5t73 59t104 22q60 0 101.5 -23t61.5 -57v65h150v-480h-150v65zM202 240q0 -47 26.5 -81t76.5 -34q33 0 59 17.5t38 42.5v110q-12 25 -38 42.5t-59 17.5q-50 0 -76.5 -34
t-26.5 -81zM67 529v165h500v-165h-500zM124 655v-88h31q47 0 47 44q0 19 -12.5 31.5t-34.5 12.5h-31zM139 582v57h16q31 0 31 -28q0 -29 -31 -29h-16zM289 582h-46v21h46v16h-46v20h46v16h-62v-88h62v15zM392 567h16v88h-21l-26 -36l-26 36h-21v-88h17v66l30 -39l31 40v-67z
M478 660q-19 0 -32 -13.5t-13 -33.5t11.5 -33.5t33.5 -13.5q23 0 35 13.5t12 33.5q0 21 -13.5 34t-33.5 13zM448 613q0 13 8 22.5t22 9.5q15 0 23 -9.5t8 -22.5q0 -32 -31 -32q-14 0 -22 10t-8 22z" />
    <glyph glyph-name="aogonek.ss01" horiz-adv-x="622" 
d="M422 65q-20 -34 -61.5 -57t-101.5 -23q-58 0 -104 22t-73 59t-41 81.5t-14 92.5t14 92.5t41 81.5t73 59t104 22q60 0 101.5 -23t61.5 -57v65h150v-480h-150v65zM202 240q0 -47 26.5 -81t76.5 -34q33 0 59 17.5t38 42.5v110q-12 25 -38 42.5t-59 17.5q-50 0 -76.5 -34
t-26.5 -81z" />
    <glyph glyph-name="aring.ss01" horiz-adv-x="623" 
d="M422 65q-20 -34 -61.5 -57t-101.5 -23q-58 0 -104 22t-73 59t-41 81.5t-14 92.5t14 92.5t41 81.5t73 59t104 22q60 0 101.5 -23t61.5 -57v65h150v-480h-150v65zM202 240q0 -47 26.5 -81t76.5 -34q33 0 59 17.5t38 42.5v110q-12 25 -38 42.5t-59 17.5q-50 0 -76.5 -34
t-26.5 -81zM72 529v165h500v-165h-500zM129 655v-88h31q47 0 47 44q0 19 -12.5 31.5t-34.5 12.5h-31zM144 582v57h16q31 0 31 -28q0 -29 -31 -29h-16zM294 582h-46v21h46v16h-46v20h46v16h-62v-88h62v15zM397 567h16v88h-21l-26 -36l-26 36h-21v-88h17v66l30 -39l31 40v-67z
M483 660q-19 0 -32 -13.5t-13 -33.5t11.5 -33.5t33.5 -13.5q23 0 35 13.5t12 33.5q0 21 -13.5 34t-33.5 13zM453 613q0 13 8 22.5t22 9.5q15 0 23 -9.5t8 -22.5q0 -32 -31 -32q-14 0 -22 10t-8 22z" />
    <glyph glyph-name="atilde.ss01" horiz-adv-x="623" 
d="M422 65q-20 -34 -61.5 -57t-101.5 -23q-58 0 -104 22t-73 59t-41 81.5t-14 92.5t14 92.5t41 81.5t73 59t104 22q60 0 101.5 -23t61.5 -57v65h150v-480h-150v65zM202 240q0 -47 26.5 -81t76.5 -34q33 0 59 17.5t38 42.5v110q-12 25 -38 42.5t-59 17.5q-50 0 -76.5 -34
t-26.5 -81zM52 529v165h500v-165h-500zM109 655v-88h31q47 0 47 44q0 19 -12.5 31.5t-34.5 12.5h-31zM124 582v57h16q31 0 31 -28q0 -29 -31 -29h-16zM274 582h-46v21h46v16h-46v20h46v16h-62v-88h62v15zM377 567h16v88h-21l-26 -36l-26 36h-21v-88h17v66l30 -39l31 40v-67z
M463 660q-19 0 -32 -13.5t-13 -33.5t11.5 -33.5t33.5 -13.5q23 0 35 13.5t12 33.5q0 21 -13.5 34t-33.5 13zM433 613q0 13 8 22.5t22 9.5q15 0 23 -9.5t8 -22.5q0 -32 -31 -32q-14 0 -22 10t-8 22z" />
    <glyph glyph-name="ae.ss01" horiz-adv-x="934" 
d="M422 65q-20 -34 -61.5 -57t-101.5 -23q-58 0 -104 22t-73 59t-41 81.5t-14 92.5t14 92.5t41 81.5t73 59t104 22q60 0 101.5 -23t61.5 -57v65h140v-64q45 79 142 79q63 0 109 -28t66.5 -72.5t27 -100t-8.5 -110.5h-314q14 -34 56 -51.5t97 -17.5q73 0 123 23v-126
q-54 -27 -131 -27q-108 0 -167 80v-65h-140v65zM202 240q0 -47 26.5 -81t76.5 -34q33 0 59 17.5t38 42.5v110q-12 25 -38 42.5t-59 17.5q-50 0 -76.5 -34t-26.5 -81zM668 370q-36 0 -61 -22t-25 -59h161q5 24 -12.5 52.5t-62.5 28.5z" />
    <glyph glyph-name="y.ss01" horiz-adv-x="592" 
d="M541 0q0 -113 -76.5 -174t-202.5 -61q-112 0 -197 45v145q73 -50 174 -50q132 0 132 105v26q-57 -51 -133 -51q-94 0 -143 55.5t-49 141.5v298h170v-275q0 -37 20 -56t53 -19q49 0 82 42v308h170v-480z" />
    <glyph glyph-name="yacute.ss01" horiz-adv-x="592" 
d="M541 0q0 -113 -76.5 -174t-202.5 -61q-112 0 -197 45v145q73 -50 174 -50q132 0 132 105v26q-57 -51 -133 -51q-94 0 -143 55.5t-49 141.5v298h170v-275q0 -37 20 -56t53 -19q49 0 82 42v308h170v-480zM62 529v165h500v-165h-500zM119 655v-88h31q47 0 47 44
q0 19 -12.5 31.5t-34.5 12.5h-31zM134 582v57h16q31 0 31 -28q0 -29 -31 -29h-16zM284 582h-46v21h46v16h-46v20h46v16h-62v-88h62v15zM387 567h16v88h-21l-26 -36l-26 36h-21v-88h17v66l30 -39l31 40v-67zM473 660q-19 0 -32 -13.5t-13 -33.5t11.5 -33.5t33.5 -13.5
q23 0 35 13.5t12 33.5q0 21 -13.5 34t-33.5 13zM443 613q0 13 8 22.5t22 9.5q15 0 23 -9.5t8 -22.5q0 -32 -31 -32q-14 0 -22 10t-8 22z" />
    <glyph glyph-name="ycircumflex.ss01" horiz-adv-x="592" 
d="M541 0q0 -113 -76.5 -174t-202.5 -61q-112 0 -197 45v145q73 -50 174 -50q132 0 132 105v26q-57 -51 -133 -51q-94 0 -143 55.5t-49 141.5v298h170v-275q0 -37 20 -56t53 -19q49 0 82 42v308h170v-480zM43 529v165h500v-165h-500zM100 655v-88h31q47 0 47 44
q0 19 -12.5 31.5t-34.5 12.5h-31zM115 582v57h16q31 0 31 -28q0 -29 -31 -29h-16zM265 582h-46v21h46v16h-46v20h46v16h-62v-88h62v15zM368 567h16v88h-21l-26 -36l-26 36h-21v-88h17v66l30 -39l31 40v-67zM454 660q-19 0 -32 -13.5t-13 -33.5t11.5 -33.5t33.5 -13.5
q23 0 35 13.5t12 33.5q0 21 -13.5 34t-33.5 13zM424 613q0 13 8 22.5t22 9.5q15 0 23 -9.5t8 -22.5q0 -32 -31 -32q-14 0 -22 10t-8 22z" />
    <glyph glyph-name="ydieresis.ss01" horiz-adv-x="592" 
d="M541 0q0 -113 -76.5 -174t-202.5 -61q-112 0 -197 45v145q73 -50 174 -50q132 0 132 105v26q-57 -51 -133 -51q-94 0 -143 55.5t-49 141.5v298h170v-275q0 -37 20 -56t53 -19q49 0 82 42v308h170v-480zM50 694h500v-165h-500v165zM107 655v-88h31q47 0 47 44
q0 19 -12.5 31.5t-34.5 12.5h-31zM122 639h16q31 0 31 -28q0 -29 -31 -29h-16v57zM272 582h-46v21h46v16h-46v20h46v16h-62v-88h62v15zM375 567h16v88h-21l-26 -36l-26 36h-21v-88h17v66l30 -39l31 40v-67zM461 660q-19 0 -32 -13.5t-13 -33.5t11.5 -33.5t33.5 -13.5
q23 0 35 13.5t12 33.5q0 21 -13.5 34t-33.5 13zM431 613q0 13 8 22.5t22 9.5q15 0 23 -9.5t8 -22.5q0 -32 -31 -32q-14 0 -22 10t-8 22z" />
    <glyph glyph-name="ygrave.ss01" horiz-adv-x="592" 
d="M541 0q0 -113 -76.5 -174t-202.5 -61q-112 0 -197 45v145q73 -50 174 -50q132 0 132 105v26q-57 -51 -133 -51q-94 0 -143 55.5t-49 141.5v298h170v-275q0 -37 20 -56t53 -19q49 0 82 42v308h170v-480zM10 529v165h500v-165h-500zM67 655v-88h31q47 0 47 44
q0 19 -12.5 31.5t-34.5 12.5h-31zM82 582v57h16q31 0 31 -28q0 -29 -31 -29h-16zM232 582h-46v21h46v16h-46v20h46v16h-62v-88h62v15zM335 567h16v88h-21l-26 -36l-26 36h-21v-88h17v66l30 -39l31 40v-67zM421 660q-19 0 -32 -13.5t-13 -33.5t11.5 -33.5t33.5 -13.5
q23 0 35 13.5t12 33.5q0 21 -13.5 34t-33.5 13zM391 613q0 13 8 22.5t22 9.5q15 0 23 -9.5t8 -22.5q0 -32 -31 -32q-14 0 -22 10t-8 22z" />
    <glyph glyph-name="f_b" horiz-adv-x="1017" 
d="M614 441q52 54 143 54q58 0 104 -22t73 -59t41 -81.5t14 -92.5t-14 -92.5t-41 -81.5t-73 -59t-104 -22q-60 0 -101.5 23t-61.5 57v-65h-150v557q-44 18 -84 18q-39 0 -63 -18t-24 -56v-21h118v-140h-118v-340h-170v340h-79v140h79v25q0 103 58.5 156.5t147.5 53.5
q85 0 160 -31l145 22v-265zM614 185q12 -25 38 -42.5t59 -17.5q50 0 76.5 34t26.5 81t-26.5 81t-76.5 34q-33 0 -59 -17.5t-38 -42.5v-110z" />
    <glyph glyph-name="f_f_b" horiz-adv-x="1351" 
d="M949 441q52 54 143 54q58 0 104 -22t73 -59t41 -81.5t14 -92.5t-14 -92.5t-41 -81.5t-73 -59t-104 -22q-60 0 -101.5 23t-61.5 57v-65h-150v567q-44 18 -84 18q-39 0 -63 -18t-24 -56v-31h118v-140h-118v-340h-170v340h-165v-340h-170v340h-79v140h79v16
q0 106 62.5 157.5t157.5 51.5q87 0 173 -34q55 54 148 54q85 0 160 -31l145 22v-275zM438 480v35q0 14 2 38q-39 17 -82 17q-40 0 -62.5 -19.5t-22.5 -55.5v-15h165zM949 185q12 -25 38 -42.5t59 -17.5q50 0 76.5 34t26.5 81t-26.5 81t-76.5 34q-33 0 -59 -17.5t-38 -42.5
v-110z" />
    <glyph glyph-name="f_f_h" horiz-adv-x="1320" 
d="M949 444q57 51 133 51q94 0 143 -55.5t49 -141.5v-298h-170v275q0 37 -20 56t-53 19q-49 0 -82 -42v-308h-170v567q-44 18 -84 18q-39 0 -63 -18t-24 -56v-31h118v-140h-118v-340h-170v340h-165v-340h-170v340h-79v140h79v16q0 106 62.5 157.5t157.5 51.5q87 0 173 -34
q55 54 148 54q85 0 160 -31l145 22v-272zM438 480v35q0 14 2 38q-39 17 -82 17q-40 0 -62.5 -19.5t-22.5 -55.5v-15h165z" />
    <glyph glyph-name="f_f_j" horiz-adv-x="991" 
d="M939 -67q0 -89 -52 -128.5t-123 -39.5q-50 0 -82 15v130q14 -4 32 -4q55 0 55 59v375h-161v-340h-170v340h-165v-340h-170v340h-79v140h79v16q0 106 62.5 157.5t157.5 51.5q85 0 173 -33q64 63 188 63q83 0 178 -29v-139q-70 28 -141 28q-51 0 -82 -20t-31 -61v-34h331
v-547zM273 495v-15h165v35q0 14 2 38q-39 17 -82 17q-40 0 -62.5 -19.5t-22.5 -55.5z" />
    </font>
</defs>
</svg>
